<?xml version="1.0" encoding="UTF-8"?>
<!DOCTYPE svg PUBLIC "-//W3C//DTD SVG 1.1//EN" "http://www.w3.org/Graphics/SVG/1.1/DTD/svg11.dtd">
<!-- Creator: CorelDRAW 2019 (64 Bit) -->
<svg xmlns="http://www.w3.org/2000/svg" xml:space="preserve" width="45.9897mm" height="26.5659mm" version="1.1" style="shape-rendering:geometricPrecision; text-rendering:geometricPrecision; image-rendering:optimizeQuality; fill-rule:evenodd; clip-rule:evenodd"
viewBox="0 0 7185.55 4150.73"
 xmlns:xlink="http://www.w3.org/1999/xlink">
 <defs>
  <style type="text/css">
   <![CDATA[
    .fil1 {fill:#7A28D5}
    .fil0 {fill:#7A28D5;fill-rule:nonzero}
   ]]>
  </style>
 </defs>
 <g id="Camada_x0020_1">
  <metadata id="CorelCorpID_0Corel-Layer"/>
  <g id="_2269277721680">
   <path class="fil0" d="M2127.63 4150.73c-92.29,0 -166.41,-28.09 -222.33,-84.29 -55.93,-56.18 -83.89,-128.54 -83.89,-217.04 0,-88.51 27.95,-160.87 83.89,-217.05 55.92,-56.2 130.04,-84.29 222.33,-84.29 82.53,0 149.71,20.23 201.57,60.68 51.86,40.44 81.57,94.6 89.18,162.48l-140.09 0c-7.59,-32.59 -24.42,-58.23 -50.5,-76.97 -26.05,-18.73 -59.17,-28.09 -99.35,-28.09 -53.2,0 -94.75,16.41 -124.6,49.26 -29.87,32.84 -44.79,77.51 -44.79,133.98 0,56.47 14.92,101.12 44.79,133.96 29.86,32.86 71.4,49.28 124.6,49.28 40.19,0 73.31,-9.37 99.35,-28.11 26.08,-18.73 42.9,-44.37 50.5,-76.95l140.09 0c-7.61,67.86 -37.33,122.03 -89.18,162.48 -51.86,40.44 -119.04,60.67 -201.57,60.67zm665.39 -16.3l-19.55 -69.22 -201.97 0 -19.55 69.22 -139.27 0 193.02 -570.08 132.74 0 193.85 570.08 -139.27 0zm-192.21 -172.65l143.35 0 -71.68 -253.28 -71.67 253.28zm842.12 -191.4c0,41.26 -9.5,78.06 -28.5,110.35 -19,32.31 -45.08,56.61 -78.18,72.9l100.17 180.79 -149.87 0 -89.57 -157.99 -69.23 0 0 157.99 -131.93 0 0 -570.08 242.71 0c59.17,0 108.04,19.41 146.59,58.22 38.56,38.83 57.83,88.11 57.83,147.82zm-315.19 -98.54l0 197.1 90.4 0c26.61,0 48.47,-9.23 65.56,-27.69 17.11,-18.48 25.66,-42.09 25.66,-70.87 0,-28.78 -8.55,-52.39 -25.66,-70.84 -17.09,-18.47 -38.95,-27.7 -65.56,-27.7l-90.4 0zm844.57 98.54c0,41.26 -9.5,78.06 -28.51,110.35 -19,32.31 -45.06,56.61 -78.18,72.9l100.18 180.79 -149.87 0 -89.57 -157.99 -69.23 0 0 157.99 -131.95 0 0 -570.08 242.71 0c59.18,0 108.04,19.41 146.6,58.22 38.55,38.83 57.83,88.11 57.83,147.82zm-315.19 -98.54l0 197.1 90.4 0c26.61,0 48.47,-9.23 65.56,-27.69 17.11,-18.48 25.66,-42.09 25.66,-70.87 0,-28.78 -8.55,-52.39 -25.66,-70.84 -17.09,-18.47 -38.95,-27.7 -65.56,-27.7l-90.4 0zm397.43 462.59l0 -570.08 348.58 0 0 105.87 -216.65 0 0 129.49 216.65 0 0 103.43 -216.65 0 0 125.42 216.65 0 0 105.87 -348.58 0zm552.18 0l0 -452.81 -156.37 0 0 -117.28 444.68 0 0 117.28 -157.2 0 0 452.81 -131.12 0zm618.14 0l-19.55 -69.22 -201.97 0 -19.55 69.22 -139.27 0 193.02 -570.08 132.74 0 193.85 570.08 -139.27 0zm-192.21 -172.65l143.35 0 -71.68 -253.28 -71.67 253.28z"/>
   <path class="fil1" d="M4126.07 2820.91l-533.29 0 0 70.15 533.29 0 0 -70.15zm1987.97 -210.16c64.28,0 116.37,52.09 116.37,116.35 0,64.26 -52.09,116.37 -116.37,116.37 -64.26,0 -116.35,-52.11 -116.35,-116.37 0,-64.26 52.09,-116.35 116.35,-116.35zm-1186.08 0c64.26,0 116.37,52.09 116.37,116.35 0,64.26 -52.11,116.37 -116.37,116.37 -64.26,0 -116.35,-52.11 -116.35,-116.37 0,-64.26 52.09,-116.35 116.35,-116.35zm-2185.38 0c64.26,0 116.35,52.09 116.35,116.35 0,64.26 -52.09,116.37 -116.35,116.37 -64.26,0 -116.37,-52.11 -116.37,-116.37 0,-64.26 52.11,-116.35 116.37,-116.35zm-1737.23 0c64.26,0 116.37,52.09 116.37,116.35 0,64.26 -52.11,116.37 -116.37,116.37 -64.26,0 -116.35,-52.11 -116.35,-116.37 0,-64.26 52.09,-116.35 116.35,-116.35zm5557.07 -168.77c29.94,46.97 52.7,98.92 66.73,154.38l345.91 0 0 -154.38 -412.64 0zm74.68 378.94c-44.31,248.71 -261.63,437.51 -523.05,437.51 -261.43,0 -478.76,-188.8 -523.05,-437.51l-139.96 0c-4.37,24.5 -10.45,48.39 -18.05,71.61 -25.45,97.25 -84.46,179.43 -162.3,240.55 -92.51,78.2 -212.1,125.35 -342.72,125.35 -260.72,0 -477.57,-187.8 -522.68,-435.53 -14.17,-1.84 -35.59,-1.98 -68.68,-1.98 0,357.4 90.21,280.67 -856.08,280.67 -138.7,0 -112.28,-171.45 -112.28,-280.67l-102.6 0c-44.29,248.71 -261.64,437.51 -523.07,437.51 -261.43,0 -478.76,-188.8 -523.05,-437.51l-691.09 0c-44.29,248.71 -261.64,437.51 -523.07,437.51 -261.41,0 -478.73,-188.8 -523.04,-437.48 -208.88,1.17 -482.31,41.5 -482.31,-112.31l0 -1445.54c0,-32.37 265.39,-349.25 304.34,-397.37 95.7,-118.2 249.3,-360.48 355.26,-360.48l1220.99 0c184.48,0 140.34,129.38 140.34,421.03 89.42,0 294.72,-34.3 294.72,84.21l0 870.12c0,111.29 -224.61,84.21 -294.72,84.21l0 252.61c400.97,0 793.73,0 1192.91,0l0 -140.34 -659.61 0c-67.89,0 -112.28,-44.4 -112.28,-112.28l0 -1838.49c0,-76.42 49.89,-126.32 126.31,-126.32l3634.89 0c139.92,0 175.88,224.55 -28.08,224.55l-3508.57 0 0 1642.02 4308.53 0 0 -1642.02c-258.53,0 -519.27,49.06 -519.27,-112.28 0,-67.87 44.39,-112.28 112.28,-112.28l505.23 0c67.9,0 112.28,44.4 112.28,112.28l0 1880.6c0,33.8 -50.42,84.21 -84.2,84.21l-673.64 0 0 140.34 645.56 0c51.29,0 112.28,38.73 112.28,84.21l0 400.67c-20.22,154.66 -121.62,119.34 -548.46,118.6zm-1038.14 -224.55c14.05,-55.45 36.78,-107.42 66.72,-154.38l-289.33 0c29.92,46.95 52.65,98.93 66.7,154.38l155.91 0zm515.09 -147.26c153.54,0 278.02,124.46 278.02,278 0,153.54 -124.48,278.02 -278.02,278.02 -153.54,0 -278,-124.48 -278,-278.02 0,-153.54 124.46,-278 278,-278zm89.12 -231.68l0 -140.34 -2778.79 0 0 140.34c929.85,0 1849.69,0 2778.79,0zm-1790.27 378.94c14.03,-55.45 36.78,-107.42 66.7,-154.38l-1288.64 0c29.92,46.95 52.67,98.93 66.7,154.38l1155.24 0zm515.07 -147.26c153.54,0 278,124.46 278,278 0,153.54 -124.46,278.02 -278,278.02 -153.54,0 -278,-124.48 -278,-278.02 0,-153.54 124.46,-278 278,-278zm-2700.47 147.26c14.05,-55.45 36.78,-107.43 66.7,-154.38l-273.25 0 0 154.38 206.55 0zm515.07 -147.26c153.56,0 278.02,124.46 278.02,278 0,153.54 -124.46,278.02 -278.02,278.02 -153.52,0 -277.99,-124.48 -277.99,-278.02 0,-153.54 124.46,-278 277.99,-278zm1187.04 -1943.86l0 1066.61c0,168.91 -224.55,168.91 -224.55,0l0 -1066.61c0,-163.26 224.55,-163.26 224.55,0zm1333.27 0l0 1066.61c0,153.91 -224.55,191.73 -224.55,-14.03l0 -1052.58c0,-163.26 224.55,-163.26 224.55,0zm1333.25 28.08l0 1010.45c0,212.49 -224.54,187.88 -224.54,42.12l0 -1108.71c0,-50.78 70.95,-106.24 132.06,-91.36 66.37,16.16 92.48,71.54 92.48,147.49zm-2006.91 -42.11l0 1122.74c0,108.31 -210.51,106.32 -210.51,0l0 -1122.74c0,-145.04 210.51,-145.04 210.51,0zm1333.27 0l0 1094.68c0,161.38 -210.52,123.21 -210.52,28.06l0 -1150.82c0,-100.78 210.52,-117.2 210.52,28.08zm-2666.51 0l0 1122.74c0,95.62 -210.52,133.23 -210.52,-28.06l0 -1094.68c0,-139.7 210.52,-144.6 210.52,0zm-2250.61 1704.59c248.32,0 456.84,170.37 515.09,400.56l289.99 0 0 -1866.57 -1094.67 0c-37.53,0 -41.51,20.25 -56.14,42.11 136.13,0 287.28,-6.31 421.46,-0.44 125.93,5.48 210.08,81.96 210.08,210.94 0,143.38 37.92,449.09 -182.44,449.09l-898.21 0 0 687.69c58.37,0 182.46,-7.98 182.46,98.25 0,123.6 -111.1,112.28 -182.46,112.28l0 266.66c169.84,0 245.55,1.81 281.17,-5.36 60.11,-227.47 267.28,-395.2 513.66,-395.2zm0 253.3c153.54,0 278,124.46 278,278 0,153.54 -124.46,278.02 -278,278.02 -153.54,0 -278,-124.48 -278,-278.02 0,-153.54 124.46,-278 278,-278zm1099.79 -1312.31l-84.2 0 0 603.47 84.2 0 0 -603.47zm-1038.53 -140.34l-561.36 0c-42.2,0 -79.71,63.34 -102.29,94.2 -33.08,45.23 -68.56,78.01 -94.2,116.31l757.85 0 0 -210.51z"/>
  </g>
 </g>
</svg>
