<?xml version="1.0" encoding="UTF-8"?>
<!DOCTYPE svg PUBLIC "-//W3C//DTD SVG 1.1//EN" "http://www.w3.org/Graphics/SVG/1.1/DTD/svg11.dtd">
<!-- Creator: CorelDRAW 2019 (64 Bit) -->
<svg xmlns="http://www.w3.org/2000/svg" xml:space="preserve" width="28.5334mm" height="21.6588mm" version="1.1" style="shape-rendering:geometricPrecision; text-rendering:geometricPrecision; image-rendering:optimizeQuality; fill-rule:evenodd; clip-rule:evenodd"
viewBox="0 0 290.41 220.44"
 xmlns:xlink="http://www.w3.org/1999/xlink">
 <defs>
  <style type="text/css">
   <![CDATA[
    .fil0 {fill:#7A28D5}
    .fil1 {fill:#7A28D5;fill-rule:nonzero}
   ]]>
  </style>
 </defs>
 <g id="Camada_x0020_1">
  <metadata id="CorelCorpID_0Corel-Layer"/>
  <g id="_2270289314016">
   <g>
    <path class="fil0" d="M31.76 132.73c0,-11.62 9.97,-20.42 18.15,-20.42l3.97 0c10.43,0 19.29,9.9 19.29,20.42 0,11.6 -9.4,20.5 -20.49,20.76 -11.36,0.27 -20.92,-8.96 -20.92,-20.76zm258.65 -23.26l0 24.35c-0.82,10.45 -5.05,9.68 -23.26,9.68 -2.81,5.31 -4.9,8.88 -9.55,12.57 -10.62,8.44 -25.55,8.22 -36.41,-0.08 -3.23,-2.47 -8.02,-8.01 -9.06,-12.49l-132.16 0c-3.41,6.44 -4.16,8.27 -9.81,12.88 -12,9.79 -31.88,7.13 -41.41,-5.9 -1.28,-1.75 -3.29,-4.81 -3.8,-6.98 -5.06,0 -11.56,0.36 -16.44,-0.01 -4.07,-0.3 -8.51,-3.77 -8.51,-7.93l0 -48.78c0,-14.5 13.18,-27.33 26.68,-28.34 7.96,-0.59 18.99,-0.1 27.21,-0.01 5.28,0.06 3.94,0.49 7.7,-2.51 0.92,-0.73 1.01,-0.82 1.8,-1.61l18.43 -16.17c7.52,-7.04 21.64,-18.14 29.22,-25.23 5.86,-5.48 13.1,-12.91 21.12,-12.91l104.37 0c14.88,0 25.52,17.52 25.52,21.55 0,5.71 -5.05,5.52 -7.27,3.31 -4.48,-4.47 -4.75,-16.36 -23.93,-16.36l-95.86 0c-6.53,0 -9.29,3.06 -13.75,7.24 -1.31,1.22 -1.82,1.32 -3.13,2.54 -1.1,1.03 -1.36,1.47 -2.65,2.46l-27.98 24.2c-1.98,1.85 -3.65,3.29 -5.68,5.1l-5.48 4.73c-1.15,0.89 -11.04,9.44 -11.22,9.77 -1.26,2.37 -0.46,35.73 -0.46,41.52 2.47,0.58 5.85,3.27 7.52,4.95 2.49,2.51 3.55,3.45 5.52,6.39 5.63,0 21.55,-1.95 21.55,3.4 0,7.9 -5.85,5.67 -18.15,5.67 0.62,1.3 0.71,3.45 0.86,5.39 0.18,2.27 -0.67,3.12 1.41,3.12l126.49 0 0.57 -8.51 -96.99 0c-2.74,0 -4.54,-1.79 -4.54,-4.54 0,-5.03 5.15,-4.55 10.21,-4.54l43.11 0c0.97,-4.17 6.81,-13.91 6.81,-17.02l0 -33.47 -83.38 0c-2.65,0 -3.4,-2.91 -3.4,-5.1 0,-2.29 13.2,-12.79 15.71,-14.92l13.05 -11.34c4.12,-3.48 19.42,-18.55 23.43,-18.55l100.4 0c3.41,0 6.81,3.4 6.81,6.81l0 34.03c0,4.91 -3.58,9.07 -8.51,9.07 -7.66,0 -13.05,1.33 -13.05,-3.97 0,-5.81 3.81,-4.54 12.48,-4.54l0 -32.33 -46.51 0 0 32.33 20.99 0c4.3,0 4.38,8.51 0,8.51l-29.5 0 0 36.3c0,2.68 -4.87,10.74 -5.67,14.18l42.54 0c7.1,-13.41 26,-18.73 40.82,-9.62 2.7,1.66 8.22,6.34 9.1,9.62l17.58 0c0,-4.77 0.76,-10.26 -4.17,-12.28 -3.69,-1.51 -5.59,0.22 -6.61,-4.17 -8.77,0 -18.15,1.49 -18.15,-12.48 0,-6.66 -1.06,-22.09 1.91,-26.45 3.3,-4.84 8.51,-3.61 15.67,-3.61 0,-12.33 -7.94,-15.64 -7.94,-20.99 0,-1.61 1.8,-3.97 3.4,-3.97 5.43,0 5.04,2.38 10.11,10.88 2.45,4.1 3.54,8.72 3.51,15.21 -0.06,12.28 -0,24.59 -0,36.87 5.05,1.18 10.78,6.9 10.78,13.05zm-71.47 25.52c0,-6.42 0.43,-11.52 5.8,-16.89 10.11,-10.11 28.71,-6.7 33.84,6.74 6.99,18.32 -11.11,33.36 -26.22,27.35 -7.38,-2.94 -13.42,-10.11 -13.42,-17.21zm-196.26 0l-12.48 0c-1.31,0 -1.7,-0.39 -1.7,-1.7l0 -6.81 14.75 0c0,3.28 -0.57,4.72 -0.57,8.51zm245.6 -8.51l13.61 0c0,10.68 2.54,8.51 -13.05,8.51 0,-2.21 0.26,-6.66 -0.57,-8.51zm-6.24 -42.54l8.51 0 0 7.94 -8.51 0 0 -7.94zm-253.55 3.4c1.1,-2.29 0.41,-7.94 3.4,-7.94 6.03,0 12.48,-1.27 12.48,3.97 0,5.75 -8.75,3.97 -15.88,3.97zm253.55 -20.42l8.51 0 0 7.94 -8.51 0 0 -7.94zm-230.86 0l24.96 0 0 36.3c-11.5,0 -20.54,2.42 -27.29,11.85 -0.76,1.06 -1.15,2.33 -2.78,2.33l-17.58 0 0 -20.99c9.43,0 15.36,1.39 20.87,-4.09 7.34,-7.3 3.87,-22 -10.09,-22l2.05 -1.36c2.47,-1.26 6.67,-2.05 9.86,-2.05zm137.83 -40.84l8.51 0 0 32.33 -8.51 0 0 -32.33zm-70.33 32.33c1.44,-2.15 8.04,-7.39 10.92,-10.07l11.9 -10.22c2.39,-2.13 13.11,-12.04 14.61,-12.04l24.39 0 0 30.63c0,2.83 -8.84,1.7 -14.18,1.7l-47.65 0z"/>
    <path class="fil0" d="M240.5 136.13c-6.83,0 -5.16,-6.81 -1.13,-6.81 5.03,0 4.38,6.81 1.13,6.81zm-13.61 -3.97c0,16.95 24.96,17.85 24.96,0 0,-9.74 -12.98,-16.34 -20.87,-8.39 -1.78,1.79 -4.09,5.09 -4.09,8.39z"/>
    <path class="fil0" d="M53.32 136.13c-7.05,0 -4.89,-6.81 -1.13,-6.81 5.81,0 4.32,6.81 1.13,6.81zm-1.7 9.08c17.97,0 16.77,-24.96 0.57,-24.96 -6.73,0 -11.97,5.85 -12.33,12.02 -0.37,6.3 5.38,12.94 11.76,12.94z"/>
    <path class="fil0" d="M145.21 77.71c0,5.8 7.3,4.54 12.48,4.54 5.91,0 7.02,-9.08 -1.7,-9.08 -3.73,0 -10.78,-0.46 -10.78,4.54z"/>
   </g>
   <path class="fil1" d="M73.5 220.44c-6.01,0 -10.84,-1.83 -14.49,-5.49 -3.64,-3.66 -5.47,-8.38 -5.47,-14.14 0,-5.77 1.82,-10.48 5.47,-14.14 3.64,-3.66 8.47,-5.49 14.49,-5.49 5.38,0 9.76,1.32 13.14,3.95 3.38,2.64 5.31,6.16 5.81,10.59l-9.13 0c-0.5,-2.12 -1.59,-3.8 -3.29,-5.01 -1.7,-1.22 -3.86,-1.83 -6.47,-1.83 -3.47,0 -6.17,1.07 -8.12,3.21 -1.95,2.14 -2.92,5.05 -2.92,8.73 0,3.68 0.97,6.59 2.92,8.73 1.95,2.14 4.65,3.21 8.12,3.21 2.62,0 4.78,-0.61 6.47,-1.83 1.7,-1.22 2.79,-2.89 3.29,-5.02l9.13 0c-0.5,4.42 -2.43,7.95 -5.81,10.59 -3.38,2.64 -7.76,3.95 -13.14,3.95zm43.36 -1.06l-1.27 -4.51 -13.16 0 -1.27 4.51 -9.07 0 12.58 -37.15 8.65 0 12.63 37.15 -9.08 0zm-12.52 -11.25l9.34 0 -4.67 -16.51 -4.67 16.51zm54.88 -12.47c0,2.69 -0.62,5.09 -1.86,7.19 -1.24,2.11 -2.94,3.69 -5.09,4.75l6.53 11.78 -9.76 0 -5.84 -10.3 -4.51 0 0 10.3 -8.6 0 0 -37.15 15.81 0c3.86,0 7.04,1.26 9.55,3.79 2.51,2.53 3.77,5.74 3.77,9.63zm-20.54 -6.42l0 12.84 5.89 0c1.73,0 3.16,-0.6 4.27,-1.8 1.11,-1.2 1.67,-2.74 1.67,-4.62 0,-1.87 -0.56,-3.41 -1.67,-4.62 -1.11,-1.2 -2.54,-1.8 -4.27,-1.8l-5.89 0zm55.03 6.42c0,2.69 -0.62,5.09 -1.86,7.19 -1.24,2.11 -2.94,3.69 -5.09,4.75l6.53 11.78 -9.76 0 -5.84 -10.3 -4.51 0 0 10.3 -8.6 0 0 -37.15 15.82 0c3.86,0 7.04,1.26 9.55,3.79 2.51,2.53 3.77,5.74 3.77,9.63zm-20.54 -6.42l0 12.84 5.89 0c1.73,0 3.16,-0.6 4.27,-1.8 1.11,-1.2 1.67,-2.74 1.67,-4.62 0,-1.87 -0.56,-3.41 -1.67,-4.62 -1.11,-1.2 -2.54,-1.8 -4.27,-1.8l-5.89 0zm58.27 25.5c-3.61,3.8 -8.42,5.7 -14.43,5.7 -6.02,0 -10.83,-1.9 -14.44,-5.7 -3.61,-3.8 -5.41,-8.45 -5.41,-13.93 0,-5.48 1.8,-10.13 5.41,-13.93 3.61,-3.8 8.42,-5.71 14.44,-5.71 6.01,0 10.83,1.9 14.43,5.71 3.61,3.8 5.41,8.45 5.41,13.93 0,5.48 -1.8,10.13 -5.41,13.93zm-14.43 -1.99c3.4,0 6.06,-1.14 7.99,-3.42 1.93,-2.28 2.89,-5.12 2.89,-8.52 0,-3.4 -0.96,-6.24 -2.89,-8.52 -1.93,-2.28 -4.59,-3.42 -7.99,-3.42 -3.43,0 -6.11,1.14 -8.04,3.42 -1.93,2.28 -2.87,5.12 -2.84,8.52 -0.03,3.4 0.91,6.24 2.84,8.52 1.93,2.28 4.61,3.42 8.04,3.42z"/>
  </g>
 </g>
</svg>
