<?xml version="1.0" encoding="UTF-8"?>
<!DOCTYPE svg PUBLIC "-//W3C//DTD SVG 1.1//EN" "http://www.w3.org/Graphics/SVG/1.1/DTD/svg11.dtd">
<!-- Creator: CorelDRAW 2019 (64 Bit) -->
<svg xmlns="http://www.w3.org/2000/svg" xml:space="preserve" width="53.9894mm" height="19.5995mm" version="1.1" style="shape-rendering:geometricPrecision; text-rendering:geometricPrecision; image-rendering:optimizeQuality; fill-rule:evenodd; clip-rule:evenodd"
viewBox="0 0 1691.11 613.92"
 xmlns:xlink="http://www.w3.org/1999/xlink">
 <defs>
  <style type="text/css">
   <![CDATA[
    .fil0 {fill:#7A28D5;fill-rule:nonzero}
   ]]>
  </style>
 </defs>
 <g id="Camada_x0020_1">
  <metadata id="CorelCorpID_0Corel-Layer"/>
  <g id="_2268913824112">
   <path class="fil0" d="M20.35 0l1670.76 0 0 613.91 -1691.11 0 0 -613.91 20.35 0zm1630.06 40.7l-1609.71 0 0 532.51 1609.71 0 0 -532.51z"/>
   <g>
    <path class="fil0" d="M128.31 368.82l0 -272.26 102.68 0c42.27,0 75.97,13.09 101.13,39.28 25.15,26.19 37.73,58.47 37.73,96.84 0,38.38 -12.51,70.66 -37.53,96.85 -25.02,26.19 -58.8,39.28 -101.32,39.28l-102.68 0zm63.01 -52.9l33.84 0c25.41,0 45.05,-8.1 58.92,-24.31 13.87,-16.21 20.81,-35.85 20.81,-58.92 0,-23.08 -6.93,-42.72 -20.81,-58.92 -13.87,-16.2 -33.51,-24.31 -58.92,-24.31l-33.84 0 0 166.47zm214.31 52.9l0 -272.26 166.47 0 0 50.56 -103.46 0 0 61.84 103.46 0 0 49.39 -103.46 0 0 59.9 103.46 0 0 50.56 -166.47 0zm263.7 0l0 -216.25 -74.68 0 0 -56.01 212.36 0 0 56.01 -75.07 0 0 216.25 -62.62 0zm379.61 -173.86c0,19.71 -4.54,37.27 -13.61,52.7 -9.08,15.43 -21.52,27.03 -37.34,34.81l47.84 86.35 -71.56 0 -42.78 -75.45 -33.06 0 0 75.45 -63.01 0 0 -272.26 115.9 0c28.26,0 51.6,9.27 70.01,27.81 18.41,18.54 27.62,42.07 27.62,70.59zm-150.52 -47.06l0 94.12 43.18 0c12.7,0 23.14,-4.41 31.31,-13.22 8.17,-8.82 12.25,-20.1 12.25,-33.84 0,-13.74 -4.08,-25.02 -12.25,-33.84 -8.17,-8.82 -18.61,-13.22 -31.31,-13.22l-43.18 0zm348.1 220.92l-9.33 -33.06 -96.46 0 -9.33 33.06 -66.51 0 92.17 -272.26 63.4 0 92.57 272.26 -66.51 0zm-91.79 -82.45l68.45 0 -34.23 -120.96 -34.23 120.96zm188.64 82.45l0 -272.26 64.56 0 94.51 176.19 0 -176.19 60.28 0 0 272.26 -64.56 0 -94.51 -176.19 0 176.19 -60.28 0z"/>
    <path class="fil0" d="M156.24 515.1l-28 -79.35 19.27 0 16.55 52.71 15.76 -52.71 14.28 0 15.76 52.71 16.55 -52.71 19.27 0 -28 79.35 -14.96 0 -15.76 -49.88 -15.76 49.88 -14.97 0zm120.16 0l-28 -79.35 19.27 0 16.55 52.71 15.76 -52.71 14.28 0 15.76 52.71 16.55 -52.71 19.27 0 -28 79.35 -14.96 0 -15.76 -49.88 -15.76 49.88 -14.96 0zm120.16 0l-28 -79.35 19.27 0 16.55 52.71 15.76 -52.71 14.28 0 15.76 52.71 16.55 -52.71 19.27 0 -28 79.35 -14.97 0 -15.76 -49.88 -15.76 49.88 -14.97 0zm105.71 -2.16c-2.16,2.19 -4.82,3.29 -7.99,3.29 -3.18,0 -5.84,-1.09 -7.99,-3.29 -2.15,-2.19 -3.23,-4.8 -3.23,-7.82 0,-3.1 1.08,-5.73 3.23,-7.88 2.15,-2.15 4.82,-3.23 7.99,-3.23 3.17,0 5.84,1.08 7.99,3.23 2.16,2.16 3.23,4.78 3.23,7.88 0,3.02 -1.07,5.63 -3.23,7.82zm17.4 2.16l0 -79.35 29.93 0c12.32,0 22.14,3.82 29.47,11.45 7.33,7.63 11,17.04 11,28.23 0,11.18 -3.65,20.59 -10.94,28.23 -7.29,7.63 -17.13,11.45 -29.53,11.45l-29.93 0zm18.36 -15.42l9.86 0c7.4,0 13.13,-2.36 17.17,-7.08 4.04,-4.72 6.06,-10.45 6.06,-17.17 0,-6.73 -2.02,-12.45 -6.06,-17.17 -4.04,-4.72 -9.77,-7.09 -17.17,-7.09l-9.86 0 0 48.52zm62.46 15.42l0 -79.35 48.52 0 0 14.74 -30.15 0 0 18.02 30.15 0 0 14.4 -30.15 0 0 17.46 30.15 0 0 14.74 -48.52 0zm76.86 0l0 -63.03 -21.77 0 0 -16.32 61.89 0 0 16.32 -21.88 0 0 63.03 -18.25 0zm110.64 -50.67c0,5.74 -1.32,10.87 -3.97,15.36 -2.64,4.5 -6.27,7.88 -10.88,10.15l13.94 25.17 -20.86 0 -12.47 -21.99 -9.63 0 0 21.99 -18.36 0 0 -79.35 33.78 0c8.24,0 15.04,2.7 20.4,8.11 5.37,5.4 8.05,12.26 8.05,20.57zm-43.87 -13.72l0 27.44 12.58 0c3.7,0 6.75,-1.29 9.12,-3.86 2.38,-2.57 3.57,-5.86 3.57,-9.86 0,-4 -1.19,-7.29 -3.57,-9.86 -2.38,-2.57 -5.42,-3.86 -9.12,-3.86l-12.58 0zm101.46 64.39l-2.72 -9.63 -28.11 0 -2.72 9.63 -19.39 0 26.87 -79.35 18.47 0 26.98 79.35 -19.39 0zm-26.75 -24.03l19.95 0 -9.97 -35.25 -9.97 35.25zm54.98 24.03l0 -79.35 18.82 0 27.55 51.35 0 -51.35 17.57 0 0 79.35 -18.82 0 -27.55 -51.35 0 51.35 -17.57 0zm97.32 -2.16c-2.15,2.19 -4.82,3.29 -7.99,3.29 -3.18,0 -5.84,-1.09 -7.99,-3.29 -2.15,-2.19 -3.23,-4.8 -3.23,-7.82 0,-3.1 1.08,-5.73 3.23,-7.88 2.16,-2.15 4.82,-3.23 7.99,-3.23 3.17,0 5.84,1.08 7.99,3.23 2.16,2.16 3.23,4.78 3.23,7.88 0,3.02 -1.07,5.63 -3.23,7.82zm79.63 -48.52c0,5.74 -1.32,10.87 -3.97,15.36 -2.65,4.5 -6.27,7.88 -10.88,10.15l13.94 25.17 -20.86 0 -12.47 -21.99 -9.64 0 0 21.99 -18.36 0 0 -79.35 33.78 0c8.23,0 15.04,2.7 20.4,8.11 5.37,5.4 8.05,12.26 8.05,20.57zm-43.87 -13.72l0 27.44 12.58 0c3.7,0 6.75,-1.29 9.12,-3.86 2.38,-2.57 3.57,-5.86 3.57,-9.86 0,-4 -1.19,-7.29 -3.57,-9.86 -2.38,-2.57 -5.42,-3.86 -9.12,-3.86l-12.58 0zm74.48 66.43c-9.3,0 -16.44,-2.68 -21.42,-8.05 -4.99,-5.37 -7.48,-12.47 -7.48,-21.31l18.36 0c0,4.23 0.89,7.56 2.67,9.98 1.78,2.42 4.4,3.63 7.88,3.63 3.55,0 6.23,-1.19 8.05,-3.57 1.81,-2.38 2.72,-5.57 2.72,-9.58l0 -52.48 18.25 0 0 51.35c0,9.68 -2.55,17.1 -7.65,22.28 -5.1,5.17 -12.23,7.76 -21.37,7.76zm56.85 -4.19c-2.16,2.19 -4.82,3.29 -7.99,3.29 -3.17,0 -5.84,-1.09 -7.99,-3.29 -2.16,-2.19 -3.23,-4.8 -3.23,-7.82 0,-3.1 1.08,-5.73 3.23,-7.88 2.15,-2.15 4.82,-3.23 7.99,-3.23 3.17,0 5.84,1.08 7.99,3.23 2.16,2.16 3.23,4.78 3.23,7.88 0,3.02 -1.07,5.63 -3.23,7.82zm96.98 -39.56l0 13.83 -7.48 0c-2.04,9.6 -6.52,17.02 -13.43,22.27 -6.91,5.25 -15.81,7.88 -26.69,7.88 -12.55,0 -22.69,-3.91 -30.44,-11.73 -7.75,-7.82 -11.58,-17.78 -11.5,-29.87 0,-12.02 3.83,-22.07 11.5,-30.15 7.67,-8.08 18.16,-12.13 31.46,-12.13 10.5,0 19.22,2.53 26.13,7.6 6.91,5.06 10.71,11.49 11.39,19.27l-20.07 0c-0.75,-3.4 -2.66,-6.16 -5.72,-8.28 -3.06,-2.11 -6.93,-3.17 -11.62,-3.17 -7.78,0 -13.74,2.46 -17.85,7.37 -4.12,4.91 -6.14,11.3 -6.06,19.16 -0.08,7.56 2.02,13.77 6.29,18.65 4.27,4.87 9.92,7.31 16.95,7.31 11.11,0 18.02,-4.73 20.75,-14.17l-14.17 0 0 -13.83 40.58 0zm79.92 31.8c-7.71,8.13 -17.99,12.19 -30.83,12.19 -12.85,0 -23.13,-4.06 -30.83,-12.19 -7.71,-8.13 -11.56,-18.05 -11.56,-29.76 0,-11.71 3.86,-21.63 11.56,-29.76 7.71,-8.13 17.99,-12.19 30.83,-12.19 12.85,0 23.13,4.06 30.83,12.19 7.71,8.13 11.56,18.04 11.56,29.76 0,11.71 -3.85,21.63 -11.56,29.76zm-30.83 -4.25c7.25,0 12.94,-2.44 17.06,-7.31 4.12,-4.87 6.18,-10.94 6.18,-18.19 0,-7.25 -2.06,-13.32 -6.18,-18.2 -4.12,-4.87 -9.8,-7.31 -17.06,-7.31 -7.33,0 -13.06,2.44 -17.17,7.31 -4.12,4.87 -6.14,10.94 -6.06,18.2 -0.08,7.25 1.95,13.32 6.06,18.19 4.12,4.88 9.84,7.31 17.17,7.31zm66.88 14.17l-26.64 -79.35 19.72 0 16.44 56 16.44 -56 19.72 0 -26.64 79.35 -19.04 0zm61.16 -2.16c-2.16,2.19 -4.82,3.29 -7.99,3.29 -3.18,0 -5.84,-1.09 -7.99,-3.29 -2.15,-2.19 -3.23,-4.8 -3.23,-7.82 0,-3.1 1.08,-5.73 3.23,-7.88 2.15,-2.15 4.82,-3.23 7.99,-3.23 3.17,0 5.84,1.08 7.99,3.23 2.16,2.16 3.23,4.78 3.23,7.88 0,3.02 -1.07,5.63 -3.23,7.82zm60.36 -38.43c4.76,0.45 8.67,2.32 11.73,5.61 3.06,3.29 4.59,7.61 4.59,12.98 0,6.8 -2.27,12.17 -6.8,16.1 -4.54,3.93 -10.73,5.89 -18.59,5.89l-33.89 0 0 -79.35 32.65 0c7.86,0 14.07,1.83 18.65,5.5 4.57,3.66 6.86,8.71 6.86,15.14 0,5.06 -1.36,9.12 -4.08,12.18 -2.72,3.06 -6.42,5.05 -11.11,5.95zm-14.4 -25.51l-10.21 0 0 19.27 10.21 0c3.47,0 6.21,-0.85 8.22,-2.55 2,-1.7 3,-4.06 3,-7.08 0,-3.03 -0.98,-5.39 -2.94,-7.09 -1.97,-1.7 -4.72,-2.55 -8.28,-2.55zm1.25 52.15c3.4,0 6.08,-0.92 8.05,-2.78 1.97,-1.85 2.95,-4.4 2.95,-7.66 0,-2.94 -1,-5.31 -3,-7.09 -2,-1.77 -4.66,-2.66 -7.99,-2.66l-11.45 0 0 20.18 11.45 0zm103.04 -36.73c0,5.74 -1.32,10.87 -3.97,15.36 -2.65,4.5 -6.27,7.88 -10.88,10.15l13.94 25.17 -20.86 0 -12.47 -21.99 -9.64 0 0 21.99 -18.36 0 0 -79.35 33.78 0c8.23,0 15.04,2.7 20.4,8.11 5.37,5.4 8.05,12.26 8.05,20.57zm-43.87 -13.72l0 27.44 12.58 0c3.7,0 6.75,-1.29 9.12,-3.86 2.38,-2.57 3.57,-5.86 3.57,-9.86 0,-4 -1.19,-7.29 -3.57,-9.86 -2.38,-2.57 -5.42,-3.86 -9.12,-3.86l-12.58 0z"/>
   </g>
  </g>
 </g>
</svg>
