<?xml version="1.0" encoding="UTF-8"?>
<!DOCTYPE svg PUBLIC "-//W3C//DTD SVG 1.1//EN" "http://www.w3.org/Graphics/SVG/1.1/DTD/svg11.dtd">
<!-- Creator: CorelDRAW 2019 (64 Bit) -->
<svg xmlns="http://www.w3.org/2000/svg" xml:space="preserve" width="18.5463mm" height="17.3566mm" version="1.1" style="shape-rendering:geometricPrecision; text-rendering:geometricPrecision; image-rendering:optimizeQuality; fill-rule:evenodd; clip-rule:evenodd"
viewBox="0 0 199.6 186.8"
 xmlns:xlink="http://www.w3.org/1999/xlink">
 <defs>
  <style type="text/css">
   <![CDATA[
    .fil0 {fill:#7A28D5}
    .fil1 {fill:#7A28D5;fill-rule:nonzero}
   ]]>
  </style>
 </defs>
 <g id="Camada_x0020_1">
  <metadata id="CorelCorpID_0Corel-Layer"/>
  <g id="_2269116059728">
   <path class="fil0" d="M173.48 90.93c0,9.9 -12.95,5.85 -22.22,5.85 1.3,5.59 7.58,10.14 15.21,10.14 7.94,0 14.82,-6.76 14.82,-16.38 0,-8.81 -9.6,-17.5 -20.53,-13.9 -1.8,0.59 -2.75,1.48 -4.03,1.82l0 0.78c3.25,0.76 6.5,3.05 9.69,4.34 3.06,1.24 7.07,2.99 7.07,7.35zm26.12 2.64l0 -4.27c-0.29,-4.88 -1.55,-9.46 -3.5,-13.18 -0.79,-1.5 -1.8,-3.18 -2.84,-4.57 -2.18,-2.92 -4.46,-5.29 -7.35,-7.46 -7.95,-5.97 -19.42,-8.08 -29.11,-5.43 -12.07,3.3 -12.91,8.2 -18.01,11.62 -3.91,-0.91 -7.38,-4.15 -11.31,-5.07 0.35,-1.31 1.62,-2.82 2.34,-3.9l9.08 0.68c2.7,0.39 6.3,-0.51 8.26,-1.28 5.42,-2.14 17.2,-14.08 21.46,-16.75 1.2,-0.75 5.21,-0.65 8.06,-1.69 3.42,-1.25 5.66,-4.03 7.73,-6.7l6.36 -7.67c2.84,-3.52 7.55,-7.38 4.56,-12.22 -2.37,-3.83 -11.94,-3.17 -15.67,-2.01 -4.88,1.52 -7.12,5.75 -10.85,8.25 -5.45,-1.27 -5.87,-3.99 -14.69,1.29 -10.83,6.48 -20.23,6.3 -23.91,8.06 -5.74,-8.57 -15.94,-16.93 -26.87,-16.37 -6.21,0.32 -12.06,2 -17.89,3.58 -2.52,0.69 -5.57,1.76 -8.1,2.81 -2.25,0.94 -5.1,2.86 -7.18,3.35 1.06,-1.58 2.28,-2.54 2.65,-4.76 1.02,-6.16 -3.95,-11.89 -10.77,-9.6 -1.34,0.45 -3.22,1.92 -4.59,2.82 -3.64,2.43 -10.28,5.52 -10.68,10.37l-0.78 0c0,-7.89 2.88,-12.83 2.65,-14.72 -0.46,-3.88 -5.76,-7.25 -9.15,-8.41 -5.88,-2.01 -9.54,5.37 -12.89,8.81l-4.06 4.52c-0.83,1.03 -1.12,1.33 -1.98,2.31l-4.11 4.86c-4.24,5.14 -6.16,11.31 -8.33,17.8 -1.3,3.91 -4.14,9.45 -1.03,13.22 2.37,2.86 9.91,3.14 13.56,3.99l-0.5 0.28c-2.52,1.32 -5.43,2.4 -7.69,4 -4.09,2.9 -3.99,2.42 -3.51,8.19 -0.73,1.08 -1.35,1.4 -2.18,2.5 -2.04,2.7 -3.55,5.17 -4.69,8.56 -4.86,14.46 -1.04,28.88 10.68,38.55 11.44,9.44 30.46,10.33 42.9,-0.57 0.85,-0.75 1.57,-1.12 2.34,-1.95 1.27,-1.36 2.41,-3.54 3.98,-4.59 1,4.29 3.8,4.3 8.97,4.29 2.94,-0.01 10.34,0.45 12.66,-0.21 1.56,-0.44 2.84,-2.11 1.99,-4.27 -0.7,-1.8 -2.58,-1.79 -4.89,-1.77 -4.29,0.04 -8.59,0.01 -12.88,0.01l-3.12 -16.77c9.76,0 15.86,-2.48 22.22,-5.85 0.55,6.57 8.17,13.26 16.55,11.48 4.58,-0.97 7.16,-4.65 9.17,-4.87 3.62,-0.39 10.11,0.01 14.05,0.01 -0.92,1.74 -1.73,2.59 -2.81,4.21l-8.11 11.78c-3.64,0 -7.28,0 -10.92,0 -2.9,0 -8.42,-0.8 -10.25,0.67 -1.01,0.82 -1.45,2.72 -0.7,4.02 0.63,1.1 2.14,1.54 3.91,1.57 4.16,0.08 17.79,0.62 20.71,-0.78 2.27,-1.09 10.38,-13.79 12.6,-17.03l1.02 -1.32c0.13,5.86 3.43,11.83 6.62,15.99 11.28,14.67 32.33,17.79 47.18,6.63 3.44,-2.59 4.74,-4.01 7.35,-7.46 1.85,-2.44 3.99,-6.47 4.97,-9.85 0.74,-2.56 1.17,-5.17 1.32,-7.74zm-78.37 -10.43l-0.46 3.89 8.65 0.01c3.44,0 1.77,3.12 7.39,3.14l24.96 1.16c1.82,-0.01 3.64,-0.01 5.47,-0.01 -0.33,-0.92 -0.14,-0.53 -0.9,-1.05 -0.1,-0.07 -1.08,-0.53 -1.31,-0.64 -1.03,-0.5 -1.56,-0.81 -2.64,-1.26 -2.2,-0.91 -3.51,-1.61 -5.55,-2.63l-27.16 -13c-1.09,-0.55 -1.59,-0.7 -2.72,-1.18 -1.25,-0.54 -1.67,-0.97 -3.01,-1.28l-3.9 5.46c0,2.13 1.51,4.95 1.17,7.41zm-99.81 -9.75l-6.63 -2.34c-0.86,0.57 -1.09,0.82 -1.79,1.72 -2.93,3.8 -4.93,6.65 -6.23,11.7 -3.84,14.93 5.8,30.89 20.59,34.06 6.12,1.31 10.23,1.1 16.05,-0.93 2.8,-0.97 5.18,-2.42 7.32,-3.99 2.3,-1.69 3.88,-3.36 5.63,-5.68 1.09,-1.44 3.67,-5.53 3.67,-7.64 0,-5.78 -7.01,-27.14 -11.31,-30.02 -2.56,5.34 -0.2,4.71 1.56,7.01 4.21,5.5 5.06,7.67 5.06,15.21 0,16.74 -22.92,29.75 -38.31,12.57 -5.82,-6.49 -1.82,-10.53 1.48,-8.53 1.89,1.14 3.53,10.38 16.16,10.38 8.9,0 17.97,-9.97 13.6,-21.4 -0.74,-1.94 -1.8,-3.26 -3.07,-4.72 -0.57,2.44 -4.24,14.22 -6.02,16.21 -4.38,4.91 -14.26,2.69 -14.26,-6.07 0,-2 3.44,-10.79 4.29,-14.43 -2.7,1.3 -5.01,1.9 -7.48,5 -1.57,1.97 -2.9,7.09 -5.39,7.09 -6.45,0 -1.29,-9.08 2.23,-12.59 1.1,-1.09 2.11,-1.54 2.84,-2.62zm79.15 -1.95c0,6.88 -7.8,4.23 -7.8,12.87 0,4.57 3.47,7.41 8.58,7.41 4.82,0 5.83,-4.68 8.97,-4.68l4.29 0c0.1,-4.3 2.18,-7.81 -3.99,-13.95 -3.35,-3.33 -6.48,-3.21 -10.44,-3.21 0.25,1.05 0.39,0.74 0.39,1.56zm86.95 19.89c0,3.2 -1.01,6.6 -1.99,8.92 -5.88,13.8 -27.03,18.86 -37.94,2.94 -2.1,-3.06 -2.22,-5.27 -2.95,-6.79l-6.24 0c1.22,14.6 20.98,29.03 38.74,20.41 16.4,-7.96 21.16,-26.76 11.96,-40.69 -2.64,-4 -6.29,-7.42 -10.66,-9.62 -5.33,-2.67 -8.86,-2.86 -14.69,-2.86 -7.43,0 -16.14,5.32 -19.11,9.75 1.86,0.43 2.87,1.51 4.63,2.05 4.06,1.24 3.1,-5.56 17.59,-5.56 10.7,0 20.66,9.86 20.66,21.44zm-124.77 -5.46c9.41,0 14.95,-0.91 22.93,-5.92 0.42,-0.27 1.36,-0.84 1.64,-1.09 1.2,-1.05 1.44,-3.11 3.79,-5.18 0.7,-0.62 3.22,-1.98 3.22,-2.63 0,-9.93 -10.18,-17.77 -13.13,-17.74 -6.02,0.07 -12.74,2.54 -17.41,5.13 -3.26,1.81 -7.67,5.41 -9.62,8.32 1.67,3.16 3.23,4.71 4.9,8.74 1.02,2.45 3.45,7.73 3.67,10.36zm-18.72 -20.66c-1.3,-0.69 -2.7,-1.54 -3.9,-2.34 -1.29,5.54 -8.97,25.23 -8.97,28.85 0,1.56 2.91,3.63 4.17,-0.12l8.7 -26.39zm60.83 -1.56l0 0zm-70.18 -3.51c-4.95,0 -15.47,1.18 -18.33,5.07 5.17,1.2 10.08,3.87 15.21,5.07 0.09,-1.03 2.68,-9.23 3.12,-10.14zm95.14 -9.75c-3.39,0 -6.36,-1.56 -9.75,-1.56 -0.51,0 -6.81,7.41 -7.7,8.28 -1.26,1.23 -1.5,1.62 -2.44,3.02 0.06,0.07 0.15,0.09 0.17,0.22l1.26 2.25c1.39,3.06 1.96,5.5 5.19,7.67l13.26 -19.89zm-110.34 -3.9c-1.11,-0.3 -1.66,-0.84 -3.05,-1.24 -1.08,-0.31 -2.74,-0.42 -3.97,-0.71 -0.14,1.66 -0.64,1.85 -0.78,3.51 2.22,0.05 5.72,1.55 7.8,-1.56zm143.09 -5.46l-5.05 -1.62c-1.8,1.25 -3.7,2.96 -5.39,4.43l-5.6 4.54c-7.19,5.4 -8.58,1.6 -10.79,4.03 -0.55,0.6 -1.54,2.31 -2.03,3.04 5.44,0 8.68,1.88 13.93,-2.06l14.92 -12.37zm-57.71 22.61c-0.31,-1.34 -0.74,-1.76 -1.28,-3.01 -4.31,-9.95 -7.67,-11.02 -17.04,-15.71l-18.7 -8.98c-3.15,-1.41 -3.81,-1.69 -7.03,0.01 0.78,1.07 9.06,4.78 10.86,5.51 3.5,1.42 7.5,3.68 10.98,5.4 5.49,2.72 10.22,5.78 13.57,10.99 1.28,1.99 1.8,3.68 2.8,5.78l5.85 0zm1.95 -10.14c1.95,-0.52 3.17,-3 4.58,-4.39l13.36 -14.71c-3.01,-5.68 -12.3,-13.26 -20.66,-13.26 -4.41,0 -13.05,2.05 -17.39,3.28 -7.28,2.07 -12.37,5.56 -14.59,6.08l0 0.78c2,0.47 7.28,3.44 9.49,4.55 4.14,2.07 15.74,7.54 18.7,9.76 2.18,1.63 5.78,5.17 6.51,7.91zm-40.55 -26.51l-0.12 0.12c0.01,-0.01 0.15,-0.08 0.12,-0.12zm0.78 -0.39l0 0zm0 0l0 0zm96.7 -0.39c-2.84,0 -3.41,0.17 -5.23,1.39 -1.41,0.95 -2.88,1.82 -4.38,2.63 -2.52,1.36 -7.27,2.97 -10.12,3.92 -3.38,1.13 -7.51,2.08 -11.3,2.74 -3.91,0.67 -2.24,0.24 -4.35,2.66 -1.12,1.29 -2.74,2.04 -3.21,3.81l12.09 2.34c4.53,0 9.78,-5.62 13.98,-9.02l12.53 -10.47zm-95.53 -0.39l0 0zm0 0l0.78 -0.39 -0.78 0.39zm0.78 -0.39l0.39 -0.39 -0.39 0.39zm0.39 -0.39l0.78 -0.39 -0.78 0.39zm120.48 -5.85c-8.81,0 -8.89,-0.68 -15.3,5.75 -3.47,3.48 -6.31,5.63 -10.06,8.65 -0.98,0.79 -0.76,0.13 -1.15,1.58 3.08,0.26 9.7,4.96 14.49,-1.11 1.38,-1.76 2.66,-3.13 4.06,-4.91l7.96 -9.97zm-124.77 -3.12c-2.17,0 -6.75,3.75 -9.6,5.61 -1.92,1.25 -2.35,1.47 -3.14,3.88 -0.55,1.67 -1.56,4.09 -1.7,5.71 1.21,0.81 2.13,1.8 3.9,1.95 0.11,-1.3 1.29,-4.73 1.82,-5.98 0.84,-2.02 2.37,-2.52 4.11,-3.69 1.66,-1.11 3,-2.01 4.7,-3.1 3.65,-2.36 0.77,-4.38 -0.09,-4.38zm-24.17 -1.95c-1.55,1.04 -6.32,9.11 -8.12,11.37 -3.05,3.82 -8.16,4.62 -14.88,4.62 -1.9,2.84 -2.09,5.62 -3.51,8.58 4.53,0.1 14.21,4 10.14,11.7 1.82,0.87 4.66,1.35 6.88,2.09 5.2,1.74 11.35,4.46 15.74,7.66 1.23,0.9 1.22,1.15 2.73,1.95 1.47,-0.99 3.31,-4.22 9.52,-8.02 2.61,-1.6 8.86,-4.95 12.31,-5.23l-22.85 -11.46c-5.57,-3.7 -8.66,-9.09 -8.99,-15.92 -0.07,-1.37 0.57,-6.25 1.05,-7.32zm-19.11 9.75c7.31,-0.16 7.75,-4.72 13.26,-12.48 0.58,-0.82 3.57,-4.31 2.8,-5.08 -0.71,-0.71 -5.46,5.27 -6.09,6.08 -0.78,1.01 -1.29,1.31 -2.06,2.23l-7.91 9.24z"/>
   <path class="fil1" d="M18.99 185.67l0 -39.28 10.55 0 10.44 27.89 10.44 -27.89 10.33 0 0 39.28 -8.7 0 0 -25.48 -8.7 25.48 -6.74 0 -8.92 -25.65 0 25.65 -8.7 0zm83.33 -4.91c-3.82,4.02 -8.9,6.03 -15.26,6.03 -6.36,0 -11.45,-2.01 -15.27,-6.03 -3.82,-4.02 -5.72,-8.93 -5.72,-14.73 0,-5.8 1.91,-10.71 5.72,-14.73 3.82,-4.02 8.9,-6.03 15.27,-6.03 6.36,0 11.45,2.01 15.26,6.03 3.82,4.02 5.72,8.93 5.72,14.73 0,5.8 -1.91,10.71 -5.72,14.73zm-15.26 -2.1c3.59,0 6.41,-1.21 8.45,-3.62 2.04,-2.41 3.06,-5.41 3.06,-9.01 0,-3.59 -1.02,-6.59 -3.06,-9.01 -2.04,-2.41 -4.85,-3.62 -8.45,-3.62 -3.63,0 -6.46,1.21 -8.5,3.62 -2.04,2.41 -3.04,5.42 -3,9.01 -0.04,3.59 0.96,6.59 3,9.01 2.04,2.41 4.87,3.62 8.5,3.62zm31.71 7.01l0 -31.2 -10.77 0 0 -8.08 30.64 0 0 8.08 -10.83 0 0 31.2 -9.03 0zm56.12 -4.91c-3.82,4.02 -8.9,6.03 -15.26,6.03 -6.36,0 -11.45,-2.01 -15.26,-6.03 -3.82,-4.02 -5.72,-8.93 -5.72,-14.73 0,-5.8 1.91,-10.71 5.72,-14.73 3.82,-4.02 8.9,-6.03 15.26,-6.03 6.36,0 11.45,2.01 15.26,6.03 3.82,4.02 5.72,8.93 5.72,14.73 0,5.8 -1.91,10.71 -5.72,14.73zm-15.26 -2.1c3.59,0 6.41,-1.21 8.45,-3.62 2.04,-2.41 3.06,-5.41 3.06,-9.01 0,-3.59 -1.02,-6.59 -3.06,-9.01 -2.04,-2.41 -4.85,-3.62 -8.45,-3.62 -3.63,0 -6.46,1.21 -8.5,3.62 -2.04,2.41 -3.04,5.42 -3,9.01 -0.04,3.59 0.96,6.59 3,9.01 2.04,2.41 4.87,3.62 8.5,3.62z"/>
  </g>
 </g>
</svg>
