<?xml version="1.0" encoding="UTF-8"?>
<!DOCTYPE svg PUBLIC "-//W3C//DTD SVG 1.1//EN" "http://www.w3.org/Graphics/SVG/1.1/DTD/svg11.dtd">
<!-- Creator: CorelDRAW 2019 (64 Bit) -->
<svg xmlns="http://www.w3.org/2000/svg" xml:space="preserve" width="31.5443mm" height="26.0289mm" version="1.1" style="shape-rendering:geometricPrecision; text-rendering:geometricPrecision; image-rendering:optimizeQuality; fill-rule:evenodd; clip-rule:evenodd"
viewBox="0 0 1178.35 972.32"
 xmlns:xlink="http://www.w3.org/1999/xlink">
 <defs>
  <style type="text/css">
   <![CDATA[
    .fil1 {fill:#7A28D5}
    .fil0 {fill:#7A28D5;fill-rule:nonzero}
   ]]>
  </style>
 </defs>
 <g id="Camada_x0020_1">
  <metadata id="CorelCorpID_0Corel-Layer"/>
  <g id="_2269281474480">
   <g>
    <path class="fil0" d="M308.98 793.31l27.66 21.82 -11.88 10.91 -15.78 -13.25 -15.58 13.25 -11.88 -10.91 27.46 -21.82zm53.57 158.07c-13.25,13.96 -30.9,20.94 -52.98,20.94 -22.07,0 -39.73,-6.98 -52.98,-20.94 -13.25,-13.96 -19.87,-31 -19.87,-51.13 0,-20.13 6.62,-37.17 19.87,-51.13 13.25,-13.96 30.91,-20.94 52.98,-20.94 22.08,0 39.73,6.98 52.98,20.94 13.25,13.96 19.87,31 19.87,51.13 0,20.13 -6.62,37.17 -19.87,51.13zm-52.98 -7.3c12.47,0 22.24,-4.19 29.32,-12.57 7.08,-8.38 10.62,-18.79 10.62,-31.26 0,-12.46 -3.54,-22.89 -10.62,-31.26 -7.08,-8.38 -16.85,-12.57 -29.32,-12.57 -12.6,0 -22.43,4.19 -29.51,12.57 -7.08,8.37 -10.55,18.8 -10.43,31.26 -0.13,12.47 3.35,22.89 10.43,31.26 7.08,8.38 16.91,12.57 29.51,12.57zm91.16 24.34l0 -136.34 32.33 0 47.33 88.23 0 -88.23 30.19 0 0 136.34 -32.33 0 -47.33 -88.23 0 88.23 -30.19 0zm136.35 0l0 -136.34 31.55 0 0 136.34 -31.55 0zm131.87 -69.73c8.18,0.78 14.9,3.99 20.16,9.64 5.26,5.65 7.89,13.08 7.89,22.3 0,11.68 -3.9,20.91 -11.68,27.66 -7.8,6.75 -18.44,10.13 -31.95,10.13l-58.24 0 0 -136.34 56.1 0c13.51,0 24.19,3.15 32.04,9.44 7.86,6.3 11.79,14.97 11.79,26 0,8.7 -2.34,15.68 -7.02,20.94 -4.67,5.26 -11.03,8.67 -19.08,10.22zm-24.74 -43.83l-17.53 0 0 33.11 17.53 0c5.97,0 10.68,-1.46 14.12,-4.38 3.44,-2.92 5.16,-6.98 5.16,-12.17 0,-5.2 -1.69,-9.25 -5.07,-12.18 -3.37,-2.92 -8.11,-4.38 -14.22,-4.38zm2.14 89.6c5.85,0 10.46,-1.59 13.83,-4.77 3.37,-3.18 5.06,-7.56 5.06,-13.15 0,-5.07 -1.72,-9.13 -5.16,-12.17 -3.44,-3.05 -8.02,-4.58 -13.73,-4.58l-19.67 0 0 34.67 19.67 0zm162.26 14.42c-9.87,8.7 -23.31,13.05 -40.32,13.05 -17.02,0 -30.42,-4.35 -40.22,-13.05 -9.8,-8.7 -14.71,-20.91 -14.71,-36.62l0 -90.18 31.36 0 0 88.23c0,7.66 2.11,13.63 6.33,17.92 4.22,4.29 9.96,6.43 17.24,6.43 7.27,0 13.02,-2.14 17.24,-6.43 4.22,-4.28 6.33,-10.26 6.33,-17.92l0 -88.23 31.55 0 0 90.18c0,15.72 -4.93,27.92 -14.8,36.62zm82.98 13.44c-16.75,0 -29.87,-4.25 -39.35,-12.76 -9.48,-8.51 -14.22,-20.42 -14.22,-35.74l31.55 0c0,7.4 1.98,13.18 5.94,17.33 3.96,4.16 9.38,6.23 16.26,6.23 5.85,0 10.35,-1.3 13.54,-3.9 3.18,-2.6 4.77,-6.3 4.77,-11.1 0,-4.15 -1.2,-7.5 -3.6,-10.03 -2.4,-2.53 -6.72,-5.03 -12.95,-7.5l-24.54 -9.54c-18.44,-6.88 -27.66,-19.28 -27.66,-37.2 0,-12.08 4.38,-21.75 13.15,-29.02 8.77,-7.27 20.55,-10.91 35.36,-10.91 15.06,0 27.14,3.93 36.23,11.79 9.09,7.86 13.63,18.35 13.63,31.46l-31.55 0c0,-6.37 -1.62,-11.24 -4.87,-14.61 -3.25,-3.37 -7.92,-5.06 -14.03,-5.06 -5.06,0 -9.05,1.2 -11.98,3.6 -2.92,2.4 -4.39,5.68 -4.39,9.84 0,3.77 1.43,6.98 4.29,9.64 2.85,2.66 7.66,5.36 14.41,8.08l22.59 8.97c18.31,7.14 27.47,19.93 27.47,38.37 0,12.72 -4.58,22.92 -13.73,30.58 -9.16,7.66 -21.26,11.49 -36.33,11.49z"/>
   </g>
   <path class="fil1" d="M454.07 719.02l16.03 0c19.23,0 37.05,-8.64 49.92,-23.13 12.53,-14.09 20.39,-33.72 20.39,-56.35 0,-18.74 -8.47,-36.98 -21.58,-50.49 -12.97,-13.38 -30.46,-22.11 -48.74,-22.11 -14.04,0 -24.18,0.32 -33.44,3.42 -9.23,3.09 -17.92,9.03 -29.22,20.28 -14.14,14.09 -21.05,32.98 -21.26,51.7 -0.21,19.29 6.69,38.38 20.11,51.86 5.38,5.4 12.42,11.67 20.62,16.54 8.05,4.79 17.27,8.27 27.16,8.27zm9.16 -90.25c-6.23,0 -10.37,3.78 -12.2,8.57 -0.73,1.92 -1.12,3.98 -1.13,6.01 -0.01,2.04 0.33,4.07 1.05,5.92 1.72,4.46 5.75,7.92 12.28,7.92 7.14,0 11.68,-3.65 13.63,-8.32 0.77,-1.85 1.16,-3.86 1.16,-5.89 0,-2.03 -0.39,-4.05 -1.16,-5.89 -1.95,-4.67 -6.49,-8.32 -13.63,-8.32zm55.63 6.19c0,9.81 -0.13,18.43 -2.38,26.58 -2.29,8.29 -6.72,15.85 -15.28,23.16 -12,10.26 -24.96,14.61 -37.31,14.61 -8.43,0 -16.56,-2.04 -23.89,-5.6 -7.3,-3.55 -13.82,-8.64 -19.06,-14.77 -8.25,-9.66 -13.34,-21.91 -13.34,-34.83 0,-15.26 5.42,-28.27 14.28,-38.07 9.38,-10.37 22.6,-17.1 37.32,-19.06 1.86,-0.25 3.69,-0.37 5.46,-0.37 12.72,0 25.48,5.71 35.39,14.06 9.94,8.38 17.09,19.51 18.53,30.29 0.18,1.37 0.28,2.71 0.28,3.99zm454.34 9.16c0,-7.07 -3.84,-12.01 -8.71,-14.19 -1.86,-0.84 -3.87,-1.29 -5.86,-1.3 -1.95,-0.01 -3.91,0.39 -5.7,1.25 -4.59,2.19 -8.15,7.49 -8.15,16.53 0,4.58 3.58,7.83 8.15,9.33 1.94,0.64 4.04,0.97 6.12,0.97 2.07,0 4.15,-0.32 6.05,-0.99 4.55,-1.6 8.11,-5.34 8.11,-11.6zm-70.99 0c0,-26.65 14.36,-44 32.82,-51.84 7.26,-3.09 15.17,-4.69 23.07,-4.79 7.9,-0.09 15.82,1.31 23.11,4.23 18.26,7.32 32.58,24.06 33.09,50.37 0.29,15.21 -5.61,29.42 -15.52,39.89 -9.74,10.28 -23.35,16.95 -38.76,17.4 -0.2,0 -1.22,-0.01 -1.33,0.03 -14.24,0 -28.17,-6.58 -38.6,-16.6 -10.44,-10.03 -17.45,-23.55 -17.85,-37.43 0,-0.19 0,-1.15 -0.03,-1.26zm-902.22 -371.56l0 -61.23c0,-8.67 4.92,-18.52 12.57,-26.44 7.16,-7.42 16.78,-13.24 27.05,-14.91 12.39,-2.02 37.19,-1.4 57.43,-0.9 6.69,0.16 12.86,0.32 18.24,0.35 3.17,-9.07 11.26,-19.81 20.96,-30.16 14.2,-15.14 32.02,-29.66 42.75,-36.7 46.33,-30.42 94.64,-29.96 148.35,-29.44 6.43,0.06 12.98,0.13 21.39,0.13 7.19,0 13.09,2.79 17.13,6.96 2.64,2.73 4.49,6.06 5.39,9.57 0.9,3.55 0.84,7.32 -0.33,10.91 -1.62,4.97 -5.36,9.55 -11.61,12.64 -6.12,3.03 -14.3,2.82 -22.84,2.6 -2.03,-0.05 -4.09,-0.1 -6.06,-0.11l-13.86 -0.08c-14.49,-0.09 -29.08,-0.18 -43.45,-0.02 -14.26,0.16 -33.07,4.41 -49.41,10.62 -11.88,4.51 -22.34,9.99 -28.61,15.58l14.93 -0.15c59.23,-0.65 212.42,-2.33 224.2,3.29 19.77,9.43 17.13,26.32 9.79,41.72 -3.26,6.84 -7.51,13.39 -10.97,18.71 -1.35,2.08 -2.58,3.97 -3.5,5.49 -3.98,6.6 -7.49,12.85 -11.01,19.13 -3.37,6.01 -6.77,12.06 -10.72,18.65 -7.43,12.37 -14.24,24.31 -21.03,36.22 -7.32,12.83 -14.63,25.65 -22.76,39.08 -11.45,18.92 -20.53,34.96 -28.15,48.43 -19.69,34.82 -29.83,52.75 -48.34,62.12 -19.43,9.84 -47.18,9.56 -104.36,8.99 -14.46,-0.14 -30.9,-0.31 -51.28,-0.32l0 30.71 31.38 0c31.35,0 35.51,33.15 35.51,60.76 0.01,4.88 -0.15,10.09 -0.29,14.78 -0.1,3.49 -0.2,6.67 -0.2,9.86 0,36.24 -30.08,39.78 -54.22,39.79 -2.38,0.01 -5.52,-0.05 -8.49,-0.1l-3.69 -0.06 0 44.43 84.05 0c3.25,0 7.74,-8.3 12.73,-17.52 1.83,-3.39 3.74,-6.91 5.78,-10.31l64.68 -111.71c2.02,-3.35 3.4,-5.85 4.81,-8.42 1.27,-2.3 2.57,-4.67 4.31,-7.61l18.66 -31.69 148.84 -256.5c2.7,-4.58 5.29,-9.39 7.91,-14.28 11.26,-21 23.3,-43.45 41.41,-43.45l561.02 0c6.95,0 14.01,3.57 19.29,8.85 5.29,5.29 8.86,12.35 8.86,19.3l0 125.27 23.84 0 0 -179.56 -704.61 0c-8.78,0 -17.45,-5.88 -21.59,-13.21 -1.61,-2.85 -2.58,-5.95 -2.64,-9.05 -0.06,-3.21 0.81,-6.39 2.89,-9.27 4.61,-6.39 15.29,-11.21 35.08,-11.05l371.76 0.03 31.18 -42.38c5.1,-6.69 11.03,-14.3 18.68,-20.31 7.85,-6.17 17.4,-10.6 29.49,-10.6l151.13 0c11.85,0 23.6,5.3 32.31,13.54 8.52,8.07 14.16,19.02 14.16,30.64l0 29.08c3.88,-0.05 7.78,-0.18 11.8,-0.31 5.82,-0.19 11.88,-0.39 17.43,-0.39 27.11,0 53.21,4.12 53.21,31.15l0 551.86c0,28.45 -29.56,28.25 -44.1,28.16l-0.06 0.01c-15.01,-0.11 -30.04,-0.08 -45.05,-0.06l-19.06 0.04c-5.58,20.84 -20.75,40.41 -41.35,54.7 -20.38,14.14 -46.13,23.16 -73.16,23.16 -24.63,0 -48.65,-9.32 -67.89,-23.55 -19.62,-14.5 -34.33,-34.16 -39.74,-54.3 -6.53,0.03 -13.09,0.18 -19.82,0.33 -16.16,0.37 -33.31,0.75 -46.84,-0.3 -10.07,-0.78 -16.3,-5.95 -19.04,-12.34 -1.17,-2.74 -1.68,-5.7 -1.57,-8.64 0.12,-2.93 0.86,-5.84 2.19,-8.46 3.15,-6.19 9.53,-10.88 18.69,-10.88l58.88 0c0.09,-9.98 0.65,-18.02 2.22,-25.88 1.73,-8.63 4.66,-16.98 9.48,-27.36 2.28,-4.9 5.93,-10.6 10,-16.08 4.58,-6.17 9.72,-12.1 14.03,-16.33 23.34,-22.87 52.78,-33.46 81.88,-33.46 15.88,0 31.69,3.17 46.36,9.23 14.67,6.06 28.19,15 39.51,26.56 19.86,20.27 32.97,48.55 33.68,83.33l60.51 0 0 -307.79 -690.87 0c-4.82,0 -14.45,18.92 -19.7,29.22 -1.23,2.41 -2.21,4.35 -3.05,5.81 -16.19,28.12 -34.5,59.08 -53.5,91.24 -36.95,62.5 -76.54,129.47 -104.31,181.53l79.15 0c0.23,-17.74 2.53,-32.27 7.84,-45.57 5.61,-14.05 14.54,-26.6 27.9,-40.01 19.89,-19.97 46.62,-31.19 73.89,-33.24 27.33,-2.05 55.23,5.11 77.35,21.91 16.23,12.32 28.92,27.06 37.49,44.1 7.9,15.72 12.28,33.36 12.69,52.82l118.43 0c7.18,0 12.62,2.67 16.22,6.67 1.67,1.86 2.94,4 3.78,6.3 0.84,2.28 1.26,4.7 1.26,7.13 0,5.67 -2.3,11.46 -6.99,15.68 -6.94,6.23 -27.74,5.49 -45.71,4.85 -5.05,-0.18 -9.86,-0.35 -14.37,-0.35l-80.58 0 -3.32 7.03c-9.38,19.99 -12.69,27.03 -35.03,45.5 -1.32,1.09 -2.74,2.21 -4.24,3.33 -24.4,18.28 -54.34,25.21 -83.37,21.27 -29,-3.94 -57.11,-18.73 -77.9,-43.89 -1.27,-1.53 -2.57,-3.19 -3.88,-4.94 -5.38,-7.18 -8.55,-13.7 -11.99,-20.76 -1.21,-2.48 -2.45,-5.03 -3.75,-7.55l-215.73 0.01 -2.93 0.03c-16.71,0.23 -43.56,0.59 -43.56,-32.76 0,-14.9 -0.11,-35.83 -0.24,-62.24 -0.58,-114.23 -1.65,-324.39 2.64,-354.85 0.59,-4.17 1.42,-7.52 2.22,-10.71 0.9,-3.59 1.75,-7.01 2.1,-11.19 -9.61,-0.05 -17.99,-0.3 -25,-0.52 -16.27,-0.49 -24.61,-0.74 -28.11,2.24 -3.53,2.99 -3.34,10.84 -2.96,26.93 0.15,6.12 0.32,13.32 0.32,21.05 0,17.05 5.3,23.08 9.99,28.41 4.39,5.01 8.33,9.49 8.33,19.68 0,4.85 -1.58,9.44 -4.36,12.94 -2.28,2.87 -5.38,5.02 -9.11,6 -3.63,0.95 -7.82,0.77 -12.34,-0.99 -6.7,-2.6 -14.24,-8.71 -21.85,-19.83 -3.32,-4.84 -5.74,-10.33 -7.49,-16.28 -1.72,-5.85 -2.79,-12.17 -3.42,-18.8l-0.03 -0.28zm948.69 446.45c13.89,0 25.58,-0.37 36.16,-3.39 10.45,-2.97 20.01,-8.58 29.9,-19.06 14.48,-15.35 20.62,-33.68 20.62,-51.65 0,-11.66 -2.57,-23.15 -7.1,-33.59 -4.54,-10.44 -11.05,-19.84 -18.92,-27.27 -11.17,-10.54 -25.1,-17.12 -40.04,-17.12l-2.07 0c-26.77,-0.03 -42.39,-0.03 -65.14,23.63 -14.64,15.24 -20.77,33.07 -20.77,50.5 0,11.34 2.58,22.53 7.1,32.73 4.52,10.22 10.97,19.45 18.7,26.88 11.71,11.26 26.35,18.33 41.57,18.33zm-790.68 -168.78c0,-4.69 0.11,-8.89 0.2,-12.45 0.23,-8.75 0.34,-13.28 -1.89,-23.52l-24.44 0 0 44.45 24.53 0 0.61 -1.86c0.58,-1.73 0.99,-2.97 0.99,-6.62zm89.31 -365.71c-20.06,-0.03 -36.35,-0.42 -49.24,-0.73 -21.03,-0.5 -32.78,-0.77 -39.84,1.07 -7.96,2.08 -10.15,7.67 -15.1,20.34l-2.71 6.84c-2.24,5.56 -4.39,11.68 -5.97,18.43 -1.57,6.69 -2.58,14.03 -2.58,22.08l0 148.17 115.44 0 0 -216.19zm366.38 0l-82.33 0 -31.99 57.22c-5.24,9.61 -10.62,18.58 -15.97,27.47 -5.17,8.61 -10.31,17.18 -15.23,26.16l145.51 0 0 -110.86zm176.32 0l-136.04 0 0 110.86 136.04 0 0 -110.86zm283.95 0l-65.06 0 0 110.86 65.06 0 0 -110.86zm-239.76 110.86l132.14 0 0 -110.86 -136.05 0 0 106.95c0,1.82 0.16,2.9 0.58,3.31 0.43,0.43 1.51,0.59 3.33,0.59zm-437.85 -110.86l-106.47 0 0 184.15c6.04,-9.76 16.4,-27.35 28.4,-48 29.23,-50.28 68.02,-118.44 78.06,-136.15zm659.3 -135.78c0,-1.86 -0.63,-3.42 -1.7,-4.49 -1.06,-1.08 -2.63,-1.7 -4.49,-1.7l-148.84 0c-3.01,0 -4.91,0.28 -6.36,0.95 -1.41,0.64 -2.63,1.75 -4.19,3.39l-20.11 26.37 185.7 0 0 -24.52z"/>
  </g>
 </g>
</svg>
