<?xml version="1.0" encoding="UTF-8"?>
<!DOCTYPE svg PUBLIC "-//W3C//DTD SVG 1.1//EN" "http://www.w3.org/Graphics/SVG/1.1/DTD/svg11.dtd">
<!-- Creator: CorelDRAW 2019 (64 Bit) -->
<svg xmlns="http://www.w3.org/2000/svg" xml:space="preserve" width="15.0692mm" height="14.3873mm" version="1.1" style="shape-rendering:geometricPrecision; text-rendering:geometricPrecision; image-rendering:optimizeQuality; fill-rule:evenodd; clip-rule:evenodd"
viewBox="0 0 406.55 388.15"
 xmlns:xlink="http://www.w3.org/1999/xlink">
 <defs>
  <style type="text/css">
   <![CDATA[
    .fil1 {fill:#FFCC00}
    .fil0 {fill:#FFCC00;fill-rule:nonzero}
   ]]>
  </style>
    <clipPath id="id0" style="clip-rule:nonzero">
     <path d="M208.86 12.61l55.17 111.78c0.91,1.84 2.66,3.11 4.69,3.41l123.35 17.92c5.11,0.74 7.15,7.03 3.45,10.63l-89.26 87.01c-1.47,1.43 -2.14,3.49 -1.79,5.51l21.07 122.86c0.87,5.09 -4.47,8.97 -9.04,6.57l-110.33 -58c-1.82,-0.95 -3.98,-0.95 -5.8,0l-110.33 58c-4.57,2.4 -9.91,-1.48 -9.04,-6.57l21.07 -122.86c0.35,-2.02 -0.32,-4.08 -1.79,-5.51l-89.26 -87.01c-3.7,-3.6 -1.66,-9.88 3.45,-10.63l123.35 -17.92c2.03,-0.3 3.79,-1.57 4.69,-3.41l55.17 -111.78c2.29,-4.63 8.89,-4.63 11.17,0z"/>
    </clipPath>
 </defs>
 <g id="Camada_x0020_1">
  <metadata id="CorelCorpID_0Corel-Layer"/>
  <g id="_2268973781904">
   <g>
    <path class="fil0" d="M255.84 128.43l-55.17 -111.78 16.38 -8.09 55.17 111.78 0 0.01 -16.38 8.08zm16.38 -8.09c2.23,4.52 0.38,10 -4.15,12.23 -4.52,2.23 -10,0.38 -12.23,-4.15l16.38 -8.09zm-2.19 -1.59l-2.63 18.08 -0.01 -0 -0.47 -0.08 -0.45 -0.09 -0.46 -0.1 -0.46 -0.12 -0.44 -0.13 -0.49 -0.16 -0.39 -0.14 -0.39 -0.15 -0.5 -0.21 -0.44 -0.21 -0.33 -0.16 -0.42 -0.23 -0.47 -0.27 -0.36 -0.22 -0.39 -0.25 -0.35 -0.25 -0.34 -0.25 -0.4 -0.32 -0.36 -0.3 -0.31 -0.28 -0.37 -0.36 -0.32 -0.33 -0.29 -0.31 -0.3 -0.35 -0.32 -0.39 -0.29 -0.38 -0.22 -0.3 -0.31 -0.46 -0.27 -0.43 -0.19 -0.32 -0.23 -0.42 -0.23 -0.45 16.39 -8.07 -0.06 -0.11 -0.04 -0.08 0.01 0.01 -0.07 -0.11 -0.1 -0.14 0 0 -0.06 -0.08 -0.08 -0.1 -0.06 -0.07 -0.03 -0.04 -0.06 -0.06 -0.1 -0.1 -0.04 -0.03 -0.07 -0.06 -0.11 -0.09 -0.04 -0.03 -0.04 -0.03 -0.07 -0.05 -0.04 -0.02 -0.14 -0.08 -0.09 -0.05 0.01 0.01 -0.1 -0.04 -0.15 -0.07 -0.04 -0.01 -0.04 -0.01 -0.13 -0.04 -0.08 -0.02 -0.09 -0.02 -0.09 -0.02 -0.07 -0.01 -0.09 -0.02 -0.01 -0zm0.01 0c4.99,0.73 8.44,5.37 7.72,10.36 -0.73,4.99 -5.37,8.44 -10.36,7.72l2.64 -18.08zm120.72 36l-123.35 -17.92 2.63 -18.08 123.35 17.92 0 0 -2.63 18.08zm2.63 -18.08c4.99,0.72 8.45,5.36 7.73,10.35 -0.72,4.99 -5.36,8.45 -10.35,7.73l2.63 -18.08zm8.52 26.21l-12.76 -13.08 0 0 -0.12 0.13 -0.12 0.15 -0.13 0.19 -0.1 0.16 -0.1 0.21 -0.09 0.21 -0.06 0.19 -0.06 0.24 -0.04 0.21 -0.02 0.19 -0.01 0.19 0 0.2 0.02 0.21 0.03 0.18 0.04 0.15 0.05 0.16 0.07 0.18 0.07 0.17 0.08 0.16 0.1 0.16 0.11 0.16 0.13 0.16 0.12 0.13 0.17 0.16 0.17 0.14 0.16 0.11 0.2 0.12 0.2 0.1 0.19 0.08 0.22 0.08 0.18 0.05 0.17 0.03 2.63 -18.08 1.11 0.21 1.09 0.28 1.09 0.37 1.02 0.43 0.98 0.5 0.95 0.57 0.86 0.61 0.84 0.68 0.78 0.74 0.7 0.75 0.66 0.81 0.59 0.85 0.53 0.87 0.47 0.9 0.4 0.93 0.35 0.97 0.28 0.97 0.21 0.97 0.16 1 0.09 1.04 0.02 1.04 -0.05 1.04 -0.12 1.03 -0.2 1.04 -0.28 1.06 -0.35 1.01 -0.43 1.01 -0.51 0.99 -0.56 0.93 -0.66 0.93 -0.71 0.87 -0.78 0.82 0 0zm-0 0c-3.61,3.52 -9.4,3.45 -12.92,-0.17 -3.52,-3.61 -3.45,-9.4 0.17,-12.92l12.75 13.08zm-102.01 73.92l89.26 -87.01 12.76 13.08 -89.26 87.01 -0 0 -12.75 -13.08zm12.76 13.08c-3.61,3.52 -9.4,3.45 -12.92,-0.16 -3.52,-3.61 -3.45,-9.4 0.16,-12.92l12.76 13.08zm0.83 -2.57l-18.01 3.09 0 0.01 -0.07 -0.46 -0.06 -0.51 -0.04 -0.44 -0.03 -0.45 -0.02 -0.52 0 -0.45 0.01 -0.45 0.03 -0.45 0.04 -0.45 0.06 -0.51 0.07 -0.45 0.07 -0.39 0.11 -0.51 0.11 -0.45 0.12 -0.44 0.13 -0.44 0.13 -0.4 0.18 -0.48 0.18 -0.42 0.18 -0.41 0.2 -0.41 0.21 -0.4 0.25 -0.45 0.22 -0.36 0.24 -0.38 0.29 -0.43 0.25 -0.34 0.29 -0.38 0.3 -0.36 0.31 -0.35 0.35 -0.37 0.32 -0.32 12.75 13.08 0.05 -0.05 0.09 -0.09 0.06 -0.07 0.05 -0.07 0.06 -0.07 0.03 -0.04 0.08 -0.11 0.04 -0.06 0.02 -0.04 0.07 -0.12 0.04 -0.07 0.04 -0.07 0.03 -0.07 0.03 -0.07 0.05 -0.14 0.02 -0.04 0.02 -0.08 0.02 -0.08 0.02 -0.08 0.03 -0.15 0 -0.02 0.01 -0.08 0.02 -0.14 0.01 -0.08 0.01 -0.08 0 -0.07 0 -0.07 -0.01 -0.14 -0 -0.07 -0.01 -0.06 -0.01 -0.13 -0.01 -0.08 0 0.01zm0 -0.01c0.86,4.97 -2.48,9.7 -7.45,10.55 -4.97,0.86 -9.7,-2.48 -10.55,-7.45l18.01 -3.1zm3.06 125.95l-21.07 -122.86 18.01 -3.09 21.07 122.86 -18.01 3.09 0 -0zm18.01 -3.09c0.85,4.97 -2.49,9.7 -7.46,10.55 -4.97,0.85 -9.7,-2.49 -10.55,-7.46l18.01 -3.09zm-22.3 16.2l8.5 -16.17 0 0 -0.17 -0.08 -0.17 -0.07 -0.19 -0.06 -0.25 -0.06 -0.21 -0.04 -0.21 -0.02 -0.23 -0 -0.21 0.01 -0.22 0.03 -0.21 0.04 -0.17 0.04 -0.18 0.06 -0.2 0.09 -0.15 0.08 -0.16 0.09 -0.13 0.09 -0.15 0.12 -0.15 0.13 -0.12 0.12 -0.12 0.14 -0.11 0.15 -0.13 0.19 -0.1 0.18 -0.08 0.16 -0.08 0.21 -0.07 0.22 -0.05 0.19 -0.04 0.23 -0.02 0.25 -0 0.19 0.01 0.18 0.02 0.19 18.01 -3.09 0.15 1.13 0.07 1.11 -0.01 1.1 -0.1 1.15 -0.18 1.1 -0.25 1.04 -0.32 1.04 -0.39 1 -0.44 0.92 -0.51 0.92 -0.59 0.9 -0.62 0.82 -0.67 0.77 -0.71 0.71 -0.77 0.68 -0.81 0.63 -0.82 0.56 -0.87 0.51 -0.9 0.46 -0.97 0.41 -0.97 0.33 -0.98 0.26 -1.04 0.21 -1.07 0.14 -1.06 0.06 -1.09 -0.01 -1.07 -0.09 -1.08 -0.17 -1.12 -0.26 -1.06 -0.33 -1.04 -0.41 -1.03 -0.5 0 0zm0 0c-4.46,-2.35 -6.18,-7.87 -3.83,-12.34 2.35,-4.46 7.87,-6.18 12.34,-3.83l-8.5 16.17zm-101.83 -74.18l110.33 58 -8.5 16.17 -110.33 -58 8.5 -16.18 0.01 0.01zm-8.5 16.17c-4.46,-2.35 -6.18,-7.87 -3.83,-12.34 2.35,-4.46 7.87,-6.18 12.34,-3.83l-8.5 16.17zm2.71 0l-8.5 -16.17 0 -0 0.41 -0.21 0.43 -0.2 0.44 -0.19 0.42 -0.17 0.46 -0.17 0.43 -0.14 0.4 -0.12 0.49 -0.13 0.45 -0.1 0.45 -0.09 0.5 -0.08 0.45 -0.06 0.38 -0.04 0.45 -0.04 0.52 -0.02 0.45 -0.01 0.45 0.01 0.51 0.02 0.46 0.04 0.39 0.04 0.44 0.06 0.52 0.08 0.45 0.09 0.45 0.1 0.5 0.13 0.36 0.11 0.43 0.14 0.51 0.18 0.42 0.17 0.39 0.17 0.43 0.2 0.43 0.22 -8.49 16.18 0.09 0.04 0.08 0.04 0.04 0.02 0.07 0.03 0.15 0.05 0.07 0.03 0 0 0.14 0.04 0.08 0.02 0.08 0.01 0.14 0.02 0.06 0.01 0.02 0 0.08 0.01 0.14 0.01 0.08 0 0.08 0 0.14 -0.01 0.08 -0.01 0.01 0 0.08 -0.01 0.14 -0.02 0.08 -0.01 0.08 -0.02 0.12 -0.03 0.04 -0.01 0.08 -0.03 0.11 -0.04 0.07 -0.03 0.09 -0.04 0.09 -0.04 0.07 -0.04 0 -0zm-0 0c-4.46,2.34 -9.99,0.63 -12.34,-3.84 -2.34,-4.46 -0.63,-9.99 3.84,-12.34l8.5 16.18zm-118.83 41.83l110.33 -58 8.5 16.17 -110.33 58 -8.5 -16.17zm8.5 16.17c-4.46,2.35 -9.99,0.63 -12.34,-3.83 -2.35,-4.46 -0.63,-9.99 3.83,-12.34l8.5 16.17zm-22.3 -16.2l18.01 3.09 0 0 0.02 -0.19 0.01 -0.21 0 -0.16 -0.02 -0.23 -0.04 -0.26 -0.05 -0.19 -0.07 -0.22 -0.08 -0.21 -0.08 -0.16 -0.11 -0.2 -0.11 -0.18 -0.12 -0.15 -0.12 -0.14 -0.12 -0.12 -0.16 -0.14 -0.14 -0.11 -0.13 -0.09 -0.14 -0.09 -0.17 -0.08 -0.21 -0.09 -0.17 -0.06 -0.16 -0.04 -0.21 -0.04 -0.23 -0.03 -0.21 -0.01 -0.23 0 -0.21 0.02 -0.22 0.04 -0.23 0.05 -0.19 0.06 -0.18 0.07 -0.16 0.08 8.5 16.17 -1.02 0.49 -1.04 0.41 -1.07 0.33 -1.11 0.26 -1.08 0.17 -1.08 0.09 -1.09 0.01 -1.06 -0.06 -1.07 -0.14 -1.04 -0.21 -0.97 -0.26 -0.96 -0.33 -0.98 -0.41 -0.91 -0.46 -0.86 -0.51 -0.82 -0.56 -0.8 -0.62 -0.78 -0.69 -0.7 -0.71 -0.67 -0.77 -0.62 -0.82 -0.57 -0.88 -0.52 -0.94 -0.44 -0.92 -0.39 -1 -0.32 -1.04 -0.25 -1.04 -0.18 -1.13 -0.09 -1.12 -0.01 -1.08 0.07 -1.14 0.15 -1.13 0 0zm0 -0c0.85,-4.97 5.58,-8.31 10.55,-7.46 4.97,0.85 8.31,5.58 7.46,10.55l-18.01 -3.09zm39.08 -119.77l-21.07 122.86 -18.01 -3.09 21.07 -122.86 0 -0.01 18.01 3.09zm-18.01 -3.09c0.85,-4.97 5.58,-8.31 10.55,-7.46 4.97,0.85 8.31,5.58 7.46,10.55l-18.01 -3.09zm0.83 2.57l12.76 -13.08 -0 0 0.32 0.32 0.35 0.37 0.31 0.35 0.3 0.36 0.29 0.38 0.25 0.34 0.29 0.43 0.24 0.38 0.22 0.36 0.25 0.45 0.21 0.4 0.2 0.41 0.18 0.41 0.18 0.42 0.18 0.48 0.13 0.4 0.13 0.44 0.12 0.44 0.11 0.45 0.11 0.51 0.07 0.39 0.07 0.45 0.06 0.51 0.04 0.45 0.03 0.45 0.01 0.45 0 0.45 -0.02 0.52 -0.03 0.45 -0.04 0.44 -0.06 0.51 -0.07 0.46 -18.01 -3.1 -0.01 0.08 -0.01 0.13 -0.01 0.06 -0 0.07 -0.01 0.14 0 0.07 0 0.07 0.01 0.08 0.01 0.08 0.02 0.14 0.01 0.08 0 0.02 0.03 0.15 0.02 0.08 0.02 0.08 0.02 0.08 0.02 0.04 0.05 0.14 0.03 0.07 0.03 0.07 0.04 0.07 0.04 0.07 0.07 0.12 0.02 0.04 0.04 0.06 0.08 0.11 0.03 0.04 0.06 0.07 0.05 0.07 0.06 0.07 0.09 0.09 0.05 0.05 -0 0zm0 0c-3.61,-3.52 -3.69,-9.3 -0.17,-12.92 3.52,-3.61 9.3,-3.69 12.92,-0.17l-12.75 13.08zm-76.51 -100.09l89.26 87.01 -12.76 13.08 -89.26 -87.01 12.75 -13.08 0 0zm-12.76 13.08c-3.61,-3.52 -3.69,-9.31 -0.16,-12.92 3.52,-3.61 9.31,-3.69 12.92,-0.16l-12.76 13.08zm8.52 -26.21l2.63 18.08 0 0 0.17 -0.03 0.18 -0.05 0.22 -0.08 0.19 -0.08 0.2 -0.1 0.2 -0.12 0.16 -0.11 0.17 -0.14 0.17 -0.16 0.12 -0.13 0.13 -0.16 0.11 -0.16 0.1 -0.16 0.08 -0.16 0.07 -0.17 0.07 -0.18 0.05 -0.16 0.04 -0.15 0.03 -0.18 0.02 -0.21 0 -0.2 -0.01 -0.19 -0.02 -0.19 -0.04 -0.21 -0.06 -0.24 -0.06 -0.19 -0.09 -0.21 -0.1 -0.21 -0.1 -0.16 -0.13 -0.19 -0.12 -0.15 -0.12 -0.13 -12.75 13.08 -0.78 -0.82 -0.71 -0.87 -0.66 -0.93 -0.56 -0.93 -0.51 -0.99 -0.43 -1.01 -0.35 -1.01 -0.28 -1.06 -0.2 -1.04 -0.12 -1.03 -0.05 -1.04 0.02 -1.04 0.09 -1.04 0.16 -1 0.21 -0.97 0.28 -0.97 0.35 -0.97 0.4 -0.93 0.47 -0.9 0.53 -0.87 0.59 -0.85 0.66 -0.81 0.7 -0.75 0.78 -0.74 0.84 -0.68 0.86 -0.61 0.95 -0.57 0.98 -0.5 1.02 -0.43 1.09 -0.37 1.09 -0.28 1.11 -0.21 0 0zm-0 0c4.99,-0.73 9.63,2.73 10.36,7.72 0.73,4.99 -2.73,9.63 -7.72,10.36l-2.63 -18.08zm125.98 0.16l-123.35 17.92 -2.63 -18.08 123.35 -17.92 2.63 18.08 -0.01 0zm-2.63 -18.08c4.99,-0.72 9.63,2.74 10.35,7.73 0.72,4.99 -2.74,9.63 -7.73,10.35l-2.63 -18.08zm-2.19 1.59l16.38 8.09 0 -0.01 -0.23 0.45 -0.23 0.42 -0.19 0.32 -0.27 0.43 -0.31 0.46 -0.22 0.3 -0.29 0.38 -0.32 0.39 -0.3 0.35 -0.29 0.31 -0.29 0.3 -0.4 0.39 -0.35 0.31 -0.32 0.27 -0.37 0.3 -0.37 0.28 -0.38 0.26 -0.33 0.22 -0.36 0.23 -0.52 0.3 -0.43 0.22 -0.3 0.15 -0.44 0.21 -0.5 0.21 -0.39 0.15 -0.37 0.14 -0.51 0.17 -0.46 0.13 -0.44 0.12 -0.46 0.1 -0.45 0.09 -0.47 0.08 -2.64 -18.08 -0.1 0.02 -0.07 0.01 -0.09 0.02 -0.08 0.02 -0.09 0.03 -0.15 0.05 -0.02 0.01 -0.04 0.01 -0.15 0.07 -0.1 0.04 0.04 -0.02 -0.09 0.05 -0.2 0.11 -0.04 0.03 -0.01 0.01 -0.07 0.05 -0.08 0.06 -0.08 0.06 -0.04 0.03 -0.07 0.06 -0.13 0.13 -0.03 0.03 -0.03 0.04 -0.06 0.07 -0.08 0.1 -0.06 0.08 0 -0 -0.1 0.14 -0.07 0.11 0.01 -0.01 -0.04 0.08 -0.06 0.11 0 -0.01zm-0 0.01c2.23,-4.52 7.71,-6.39 12.23,-4.16 4.52,2.23 6.39,7.71 4.16,12.23l-16.39 -8.07zm71.55 -103.7l-55.17 111.78 -16.38 -8.09 55.17 -111.78 16.38 8.09 -0 0zm-16.38 -8.09c2.23,-4.52 7.71,-6.38 12.23,-4.15 4.52,2.23 6.38,7.71 4.15,12.23l-16.38 -8.09zm27.56 0l-16.38 8.09 -0 -0 0.09 0.16 0.1 0.16 0.12 0.17 0.15 0.17 0.15 0.15 0.18 0.15 0.17 0.13 0.18 0.12 0.18 0.1 0.19 0.09 0.21 0.08 0.18 0.05 0.16 0.04 0.18 0.03 0.2 0.02 0.18 0.01 0.18 -0.01 0.2 -0.02 0.18 -0.03 0.16 -0.04 0.18 -0.05 0.21 -0.08 0.19 -0.09 0.18 -0.1 0.18 -0.12 0.17 -0.13 0.18 -0.15 0.15 -0.15 0.15 -0.17 0.12 -0.17 0.1 -0.16 0.09 -0.16 -16.39 -8.08 0.54 -1 0.6 -0.95 0.67 -0.9 0.73 -0.84 0.77 -0.77 0.84 -0.73 0.86 -0.64 0.9 -0.58 0.93 -0.51 0.95 -0.44 0.99 -0.38 0.98 -0.3 0.97 -0.23 1 -0.17 1.03 -0.1 1.01 -0.03 1.01 0.03 1.03 0.1 1 0.17 0.97 0.23 0.98 0.3 0.99 0.38 0.95 0.44 0.93 0.51 0.9 0.58 0.86 0.64 0.84 0.73 0.77 0.77 0.73 0.84 0.67 0.9 0.6 0.95 0.54 1 -0 -0zm0 0c2.23,4.52 0.37,10 -4.15,12.23 -4.52,2.23 -10,0.37 -12.23,-4.15l16.39 -8.08z"/>
   </g>
   <g>
   </g>
   <g style="clip-path:url(#id0)">
    <g>
     <rect class="fil1" x="-7.7" y="-16.9" width="421.95" height="421.95"/>
    </g>
   </g>
  </g>
 </g>
</svg>
