<?xml version="1.0" encoding="UTF-8"?>
<!DOCTYPE svg PUBLIC "-//W3C//DTD SVG 1.1//EN" "http://www.w3.org/Graphics/SVG/1.1/DTD/svg11.dtd">
<!-- Creator: CorelDRAW 2019 (64 Bit) -->
<svg xmlns="http://www.w3.org/2000/svg" xml:space="preserve" width="17.5938mm" height="18.0762mm" version="1.1" style="shape-rendering:geometricPrecision; text-rendering:geometricPrecision; image-rendering:optimizeQuality; fill-rule:evenodd; clip-rule:evenodd"
viewBox="0 0 164 168.5"
 xmlns:xlink="http://www.w3.org/1999/xlink">
 <defs>
  <style type="text/css">
   <![CDATA[
    .fil0 {fill:#FEFEFE;fill-rule:nonzero}
   ]]>
  </style>
 </defs>
 <g id="Camada_x0020_1">
  <metadata id="CorelCorpID_0Corel-Layer"/>
  <g id="_2269279638496">
   <path class="fil0" d="M116.29 168.5l-68.58 0c-26.24,0 -47.71,-21.47 -47.71,-47.71l0 -73.08c0,-26.24 21.47,-47.71 47.71,-47.71l68.58 0c26.24,0 47.71,21.47 47.71,47.71l0 73.08c0,26.24 -21.47,47.71 -47.71,47.71zm0 -12.61l0 0c9.32,0 18.13,-3.67 24.78,-10.32 6.66,-6.66 10.32,-15.46 10.32,-24.78l0 -73.08c0,-9.32 -3.67,-18.13 -10.32,-24.78 -6.66,-6.66 -15.46,-10.32 -24.78,-10.32l-68.58 0c-9.32,0 -18.13,3.67 -24.78,10.32 -6.66,6.66 -10.32,15.46 -10.32,24.78l0 73.08c0,9.32 3.67,18.12 10.32,24.78 6.66,6.66 15.46,10.32 24.78,10.32l68.58 0z"/>
   <path class="fil0" d="M127.42 83.6c0,24.94 -20.22,45.16 -45.16,45.16 -24.94,0 -45.16,-20.22 -45.16,-45.16 0,-24.94 20.22,-45.16 45.16,-45.16 24.94,0 45.16,20.22 45.16,45.16zm-45.38 -29.54l0 0c-16.33,0 -29.57,13.24 -29.57,29.57 0,16.33 13.24,29.57 29.57,29.57 16.33,0 29.57,-13.24 29.57,-29.57 0,-16.33 -13.24,-29.57 -29.57,-29.57z"/>
   <path class="fil0" d="M138.83 37.74c0,5.91 -4.79,10.69 -10.69,10.69 -5.91,0 -10.69,-4.79 -10.69,-10.69 0,-5.91 4.79,-10.69 10.69,-10.69 5.91,0 10.69,4.79 10.69,10.69z"/>
  </g>
 </g>
</svg>
