<?xml version="1.0" encoding="UTF-8"?>
<!DOCTYPE svg PUBLIC "-//W3C//DTD SVG 1.1//EN" "http://www.w3.org/Graphics/SVG/1.1/DTD/svg11.dtd">
<!-- Creator: CorelDRAW 2019 (64 Bit) -->
<svg xmlns="http://www.w3.org/2000/svg" xml:space="preserve" width="18.0762mm" height="18.0762mm" version="1.1" style="shape-rendering:geometricPrecision; text-rendering:geometricPrecision; image-rendering:optimizeQuality; fill-rule:evenodd; clip-rule:evenodd"
viewBox="0 0 115.69 115.69"
 xmlns:xlink="http://www.w3.org/1999/xlink">
 <defs>
  <style type="text/css">
   <![CDATA[
    .fil0 {fill:white}
   ]]>
  </style>
 </defs>
 <g id="Camada_x0020_1">
  <metadata id="CorelCorpID_0Corel-Layer"/>
  <g>
   <path class="fil0" d="M101.91 0l-88.14 0c-7.59,0 -13.77,6.18 -13.77,13.77l0 88.14c0,7.59 6.18,13.77 13.77,13.77l88.14 0c7.59,0 13.77,-6.18 13.77,-13.77l0 -88.14c0,-7.59 -6.18,-13.77 -13.77,-13.77l0 0zm-11 50.47c-0.63,0.06 -1.27,0.09 -1.9,0.1 -0,0 -0,0 -0,0 -6.96,0 -13.45,-3.51 -17.27,-9.33l0 31.78c0,12.97 -10.52,23.49 -23.49,23.49 -12.97,0 -23.49,-10.52 -23.49,-23.49 0,-12.97 10.52,-23.49 23.49,-23.49 0.49,0 0.97,0.04 1.45,0.07l0 11.57c-0.48,-0.06 -0.96,-0.15 -1.45,-0.15 -6.62,0 -11.99,5.37 -11.99,11.99 0,6.62 5.37,11.99 11.99,11.99 6.62,0 12.47,-5.22 12.47,-11.84l0.12 -53.97 11.07 0c1.04,9.93 9.05,17.69 19.01,18.41l0 12.86 -0.01 0zm0 0l0 0 0 0z"/>
  </g>
 </g>
</svg>
