<?xml version="1.0" encoding="UTF-8"?>
<!DOCTYPE svg PUBLIC "-//W3C//DTD SVG 1.1//EN" "http://www.w3.org/Graphics/SVG/1.1/DTD/svg11.dtd">
<!-- Creator: CorelDRAW 2019 (64 Bit) -->
<svg xmlns="http://www.w3.org/2000/svg" xml:space="preserve" width="18.076mm" height="18.0762mm" version="1.1" style="shape-rendering:geometricPrecision; text-rendering:geometricPrecision; image-rendering:optimizeQuality; fill-rule:evenodd; clip-rule:evenodd"
viewBox="0 0 138.97 138.98"
 xmlns:xlink="http://www.w3.org/1999/xlink">
 <defs>
  <style type="text/css">
   <![CDATA[
    .fil0 {fill:white;fill-rule:nonzero}
   ]]>
  </style>
 </defs>
 <g id="Camada_x0020_1">
  <metadata id="CorelCorpID_0Corel-Layer"/>
  <path class="fil0" d="M106.12 0l-73.26 0c-18.15,0 -32.86,14.74 -32.86,32.93l0 73.11c0,18.19 14.71,32.93 32.86,32.93l26.53 0c0,-16.5 0,-33 0,-49.5l0 -0.63 -0.71 0c-5.27,0 -10.55,0 -15.83,0 -0.73,0 -0.74,-0 -0.74,-0.71 -0,-6.2 0.01,-12.41 -0.01,-18.61 -0,-0.57 0.17,-0.71 0.72,-0.71 5.28,0.02 10.55,0.01 15.83,0.01l0.74 0c0,-0.22 -0,-0.41 0,-0.6 0.01,-5.16 -0.03,-10.32 0.04,-15.47 0.06,-4.15 0.86,-8.17 2.67,-11.93 2.45,-5.11 6.3,-8.77 11.53,-10.94 3.5,-1.46 7.16,-2.14 10.93,-2.08 4.32,0.07 8.64,0.26 12.96,0.41 0.8,0.03 1.6,0.17 2.41,0.21 0.45,0.02 0.6,0.19 0.59,0.64 -0.02,2.57 -0.01,5.14 -0.01,7.71 0,3.03 -0.01,6.06 0.01,9.09 0,0.53 -0.15,0.69 -0.68,0.68 -3.28,-0.02 -6.56,-0.06 -9.84,0.01 -1.49,0.03 -3,0.2 -4.45,0.52 -2.81,0.62 -4.47,2.48 -5.03,5.27 -0.23,1.12 -0.35,2.29 -0.36,3.43 -0.04,4.2 -0.02,8.41 -0.02,12.61 0,0.13 0.02,0.25 0.03,0.44l0.72 0c6.04,0 12.09,0 18.13,0 0.79,0 0.8,0 0.71,0.75 -0.43,3.31 -0.87,6.61 -1.29,9.92 -0.35,2.76 -0.7,5.52 -1.03,8.29 -0.13,1.05 -0.1,1.06 -1.16,1.06 -5.13,0 -10.26,0 -15.39,0l-0.72 0 0 0.8c0,16.39 0,32.79 -0,49.18 0,0.05 -0,0.1 -0,0.16l25.97 0c18.15,0 32.86,-14.74 32.86,-32.93l0 -73.11c0,-18.19 -14.71,-32.93 -32.86,-32.93z"/>
 </g>
</svg>
