<?xml version="1.0" encoding="UTF-8"?>
<!DOCTYPE svg PUBLIC "-//W3C//DTD SVG 1.1//EN" "http://www.w3.org/Graphics/SVG/1.1/DTD/svg11.dtd">
<!-- Creator: CorelDRAW 2019 (64 Bit) -->
<svg xmlns="http://www.w3.org/2000/svg" xml:space="preserve" width="17.8832mm" height="18.0761mm" version="1.1" style="shape-rendering:geometricPrecision; text-rendering:geometricPrecision; image-rendering:optimizeQuality; fill-rule:evenodd; clip-rule:evenodd"
viewBox="0 0 226.01 228.45"
 xmlns:xlink="http://www.w3.org/1999/xlink">
 <defs>
  <style type="text/css">
   <![CDATA[
    .fil0 {fill:white}
   ]]>
  </style>
 </defs>
 <g id="Camada_x0020_1">
  <metadata id="CorelCorpID_0Corel-Layer"/>
  <path class="fil0" d="M114.66 0c-61.5,0 -111.35,49.85 -111.35,111.35 0,30.52 16.16,57.8 16.16,57.8l-19.47 59.29 61.01 -19.5c0,0 22.65,13.75 53.65,13.75 61.5,0 111.35,-49.85 111.35,-111.35 0,-61.5 -49.85,-111.35 -111.35,-111.35zm-42.4 62.87c0,0 3.01,-1.91 4.58,-1.91 1.57,0 8.77,0 8.77,0 0,0 2.35,0.41 3.43,2.86 1.08,2.45 8.48,19.83 9.03,21.17 0.55,1.34 1.99,4.66 -0.32,7.63 -2.3,2.97 -7.12,8.52 -7.12,8.52 0,0 -1.91,1.72 -0.26,4.45 1.65,2.73 7.47,11.75 15.07,18.56 7.6,6.81 16.91,11.82 21.55,13.35 4.64,1.53 5.66,-0.51 7.44,-2.8 1.78,-2.29 7.31,-9.28 7.31,-9.28 0,0 1.91,-2.8 5.66,-1.08 3.75,1.72 21.99,10.55 21.99,10.55 0,0 2.22,0.38 2.35,2.86 0.13,2.48 1.65,9.9 -4.96,17.04 -6.61,7.14 -20.67,10.44 -27.33,8.58 -6.66,-1.86 -28.67,-7.62 -43.03,-21.01 -14.36,-13.39 -25.98,-27.48 -30.74,-37.87 -4.76,-10.39 -4.49,-16.56 -4.23,-19.47 0.26,-2.91 1.79,-16.38 10.8,-22.15zm-43.13 137.63l-1.18 0.39 0.13 -0.39 0.25 -0.73 0.24 -0.73 0.25 -0.73 0.25 -0.73 0.25 -0.73 0.24 -0.73 0.25 -0.73 0.25 -0.73 0.25 -0.73 0.24 -0.73 0.25 -0.73 0.25 -0.73 0.24 -0.73 0.25 -0.73 0.25 -0.73 0.25 -0.73 0.25 -0.73 0.24 -0.73 0.25 -0.73 0.25 -0.73 0.25 -0.73 0.24 -0.73 0.25 -0.73 0.25 -0.73 0.24 -0.73 0.25 -0.73 0.25 -0.73 0.25 -0.73 0.24 -0.73 0.25 -0.73 0.25 -0.73 0.25 -0.73 0.24 -0.73 0.25 -0.73 0.25 -0.73 0.25 -0.73 0.24 -0.73 0.25 -0.73 0.25 -0.73 0.25 -0.73 0.24 -0.73 0.25 -0.73 0.25 -0.73 0.25 -0.73 0.24 -0.73 0.25 -0.73 0.02 -0.05c0,0 -0.17,-0.23 -0.47,-0.68 -0.14,-0.2 -0.3,-0.44 -0.49,-0.73 -0.14,-0.22 -0.3,-0.46 -0.48,-0.73 -0.14,-0.22 -0.3,-0.47 -0.46,-0.73 -0.15,-0.23 -0.3,-0.48 -0.45,-0.73 -0.14,-0.23 -0.29,-0.48 -0.45,-0.73 -0.14,-0.24 -0.29,-0.48 -0.44,-0.73 -0.14,-0.24 -0.28,-0.48 -0.43,-0.73 -0.14,-0.24 -0.28,-0.48 -0.42,-0.73 -0.14,-0.24 -0.27,-0.48 -0.41,-0.73 -0.14,-0.24 -0.27,-0.48 -0.41,-0.73 -0.13,-0.24 -0.26,-0.48 -0.4,-0.73 -0.13,-0.24 -0.26,-0.48 -0.39,-0.73 -0.13,-0.24 -0.26,-0.48 -0.38,-0.73 -0.13,-0.24 -0.25,-0.48 -0.38,-0.73 -0.12,-0.24 -0.25,-0.48 -0.37,-0.73 -0.12,-0.24 -0.24,-0.48 -0.37,-0.73 -0.12,-0.24 -0.24,-0.48 -0.36,-0.73 -0.12,-0.24 -0.24,-0.48 -0.35,-0.73 -0.12,-0.24 -0.23,-0.48 -0.35,-0.73 -0.11,-0.24 -0.23,-0.49 -0.34,-0.73 -0.11,-0.24 -0.22,-0.49 -0.34,-0.73 -0.11,-0.24 -0.22,-0.48 -0.33,-0.73 -0.11,-0.24 -0.22,-0.48 -0.32,-0.73 -0.11,-0.24 -0.21,-0.48 -0.32,-0.73 -0.1,-0.24 -0.21,-0.49 -0.31,-0.73 -0.1,-0.24 -0.21,-0.49 -0.31,-0.73 -0.1,-0.24 -0.2,-0.48 -0.3,-0.73 -0.1,-0.24 -0.2,-0.49 -0.29,-0.73 -0.1,-0.24 -0.19,-0.49 -0.29,-0.73 -0.09,-0.24 -0.19,-0.48 -0.28,-0.73 -0.09,-0.24 -0.18,-0.49 -0.28,-0.73 -0.09,-0.24 -0.18,-0.49 -0.27,-0.73 -0.09,-0.24 -0.18,-0.49 -0.27,-0.73 -0.09,-0.24 -0.17,-0.49 -0.26,-0.73 -0.08,-0.24 -0.17,-0.49 -0.25,-0.73 -0.08,-0.24 -0.17,-0.49 -0.25,-0.73 -0.08,-0.24 -0.16,-0.49 -0.24,-0.73 -0.08,-0.24 -0.16,-0.49 -0.24,-0.73 -0.08,-0.24 -0.16,-0.49 -0.23,-0.73 -0.07,-0.24 -0.15,-0.49 -0.22,-0.73 -0.07,-0.24 -0.15,-0.49 -0.22,-0.73 -0.07,-0.24 -0.14,-0.49 -0.21,-0.73 -0.07,-0.24 -0.14,-0.49 -0.21,-0.73 -0.07,-0.24 -0.14,-0.49 -0.2,-0.73 -0.07,-0.24 -0.13,-0.49 -0.19,-0.73 -0.06,-0.24 -0.13,-0.49 -0.19,-0.73 -0.06,-0.24 -0.13,-0.49 -0.18,-0.73 -0.06,-0.24 -0.12,-0.49 -0.18,-0.73 -0.06,-0.24 -0.12,-0.49 -0.17,-0.73 -0.05,-0.24 -0.11,-0.49 -0.16,-0.73 -0.05,-0.24 -0.11,-0.49 -0.16,-0.73 -0.05,-0.24 -0.1,-0.49 -0.15,-0.73 -0.05,-0.24 -0.1,-0.49 -0.15,-0.73 -0.05,-0.24 -0.09,-0.49 -0.14,-0.73 -0.05,-0.24 -0.09,-0.49 -0.13,-0.73 -0.04,-0.24 -0.09,-0.49 -0.13,-0.73 -0.04,-0.24 -0.08,-0.49 -0.12,-0.73 -0.04,-0.24 -0.08,-0.49 -0.12,-0.73 -0.04,-0.24 -0.07,-0.49 -0.11,-0.73 -0.04,-0.24 -0.07,-0.49 -0.11,-0.73 -0.03,-0.24 -0.06,-0.49 -0.1,-0.73 -0.03,-0.24 -0.06,-0.49 -0.09,-0.73 -0.03,-0.24 -0.06,-0.49 -0.08,-0.73 -0.03,-0.24 -0.05,-0.49 -0.08,-0.73 -0.02,-0.24 -0.05,-0.49 -0.07,-0.73 -0.02,-0.24 -0.05,-0.49 -0.06,-0.73 -0.02,-0.24 -0.04,-0.49 -0.06,-0.73 -0.02,-0.24 -0.03,-0.49 -0.05,-0.73 -0.02,-0.24 -0.03,-0.49 -0.05,-0.73 -0.01,-0.24 -0.02,-0.49 -0.04,-0.73 -0.01,-0.24 -0.02,-0.49 -0.03,-0.73 -0.01,-0.24 -0.02,-0.49 -0.02,-0.73 -0.01,-0.24 -0.02,-0.49 -0.02,-0.73 -0.01,-0.24 -0.01,-0.49 -0.01,-0.73 -0,-0.24 -0.01,-0.49 -0.01,-0.73l0 0c0,-0.24 0.01,-0.49 0.01,-0.73 0,-0.24 0.01,-0.49 0.01,-0.73 0.01,-0.24 0,-0.49 0.01,-0.73 0.01,-0.24 0.01,-0.49 0.02,-0.73 0.01,-0.24 0.02,-0.49 0.03,-0.73 0.01,-0.24 0.02,-0.49 0.03,-0.73 0.01,-0.24 0.02,-0.49 0.04,-0.73 0.01,-0.25 0.03,-0.49 0.05,-0.73 0.01,-0.24 0.03,-0.49 0.05,-0.73 0.02,-0.24 0.03,-0.49 0.05,-0.73 0.02,-0.24 0.05,-0.49 0.07,-0.73 0.02,-0.24 0.04,-0.49 0.06,-0.73 0.02,-0.24 0.04,-0.49 0.06,-0.73 0.03,-0.24 0.05,-0.49 0.08,-0.73 0.03,-0.24 0.06,-0.49 0.08,-0.73 0.03,-0.24 0.05,-0.49 0.08,-0.73 0.03,-0.24 0.06,-0.49 0.1,-0.73 0.03,-0.24 0.07,-0.49 0.1,-0.73 0.04,-0.24 0.07,-0.49 0.1,-0.73 0.04,-0.24 0.07,-0.49 0.11,-0.73 0.04,-0.24 0.08,-0.49 0.12,-0.73 0.04,-0.24 0.08,-0.49 0.12,-0.73 0.04,-0.24 0.08,-0.49 0.13,-0.73 0.04,-0.25 0.09,-0.49 0.14,-0.73 0.05,-0.24 0.09,-0.49 0.14,-0.73 0.05,-0.24 0.09,-0.49 0.14,-0.73 0.05,-0.24 0.11,-0.49 0.16,-0.73 0.05,-0.24 0.1,-0.49 0.16,-0.73 0.05,-0.24 0.1,-0.49 0.16,-0.73 0.06,-0.25 0.12,-0.49 0.18,-0.73 0.06,-0.24 0.12,-0.49 0.18,-0.73 0.06,-0.24 0.12,-0.49 0.18,-0.73 0.06,-0.24 0.13,-0.49 0.2,-0.73 0.06,-0.25 0.13,-0.49 0.2,-0.73 0.07,-0.24 0.13,-0.49 0.2,-0.73 0.07,-0.25 0.15,-0.49 0.22,-0.73 0.07,-0.24 0.14,-0.49 0.22,-0.73 0.07,-0.24 0.14,-0.49 0.22,-0.73 0.08,-0.24 0.16,-0.49 0.24,-0.73 0.08,-0.25 0.16,-0.49 0.24,-0.73 0.08,-0.24 0.16,-0.49 0.24,-0.73 0.08,-0.25 0.17,-0.49 0.26,-0.73 0.09,-0.24 0.17,-0.49 0.26,-0.73 0.09,-0.24 0.17,-0.49 0.26,-0.73 0.09,-0.25 0.19,-0.49 0.28,-0.73 0.09,-0.24 0.18,-0.49 0.28,-0.73 0.09,-0.24 0.18,-0.49 0.28,-0.73 0.1,-0.24 0.2,-0.49 0.3,-0.73 0.1,-0.24 0.2,-0.49 0.3,-0.73 0.1,-0.24 0.2,-0.49 0.3,-0.73 0.1,-0.25 0.21,-0.49 0.32,-0.73 0.11,-0.24 0.21,-0.49 0.32,-0.73 0.11,-0.24 0.22,-0.49 0.33,-0.73 0.11,-0.24 0.23,-0.49 0.34,-0.73 0.11,-0.24 0.22,-0.49 0.34,-0.73 0.12,-0.24 0.23,-0.49 0.35,-0.73 0.12,-0.25 0.24,-0.49 0.36,-0.73 0.12,-0.24 0.24,-0.49 0.36,-0.73 0.12,-0.24 0.25,-0.49 0.38,-0.73 0.13,-0.24 0.26,-0.49 0.38,-0.73 0.13,-0.24 0.26,-0.49 0.39,-0.73 0.13,-0.25 0.27,-0.49 0.41,-0.73 0.14,-0.24 0.27,-0.49 0.41,-0.73 0.14,-0.24 0.27,-0.49 0.41,-0.73 0.14,-0.25 0.29,-0.49 0.43,-0.73 0.14,-0.24 0.29,-0.49 0.43,-0.73 0.15,-0.25 0.3,-0.49 0.45,-0.73 0.15,-0.25 0.3,-0.49 0.46,-0.73 0.15,-0.24 0.3,-0.49 0.46,-0.73 0.16,-0.25 0.32,-0.49 0.48,-0.73 0.16,-0.24 0.32,-0.49 0.48,-0.73 0.16,-0.25 0.33,-0.49 0.49,-0.73 0.17,-0.25 0.34,-0.49 0.51,-0.73 0.17,-0.24 0.34,-0.49 0.51,-0.73 0.17,-0.25 0.35,-0.49 0.53,-0.73 0.18,-0.25 0.35,-0.49 0.53,-0.73 0.18,-0.25 0.36,-0.49 0.55,-0.73 0.18,-0.25 0.37,-0.49 0.56,-0.73 0.19,-0.24 0.37,-0.49 0.56,-0.73 0.19,-0.25 0.39,-0.49 0.59,-0.73 0.2,-0.25 0.39,-0.49 0.59,-0.73 0.2,-0.25 0.4,-0.49 0.6,-0.73 0.21,-0.25 0.41,-0.49 0.62,-0.73 0.21,-0.24 0.41,-0.49 0.62,-0.73 0.21,-0.25 0.43,-0.49 0.65,-0.73 0.22,-0.24 0.43,-0.49 0.65,-0.73 0.22,-0.25 0.45,-0.49 0.68,-0.73 0.22,-0.25 0.45,-0.49 0.68,-0.73 0.23,-0.25 0.47,-0.49 0.7,-0.73 0.24,-0.24 0.47,-0.49 0.71,-0.73 0.24,-0.24 0.49,-0.49 0.73,-0.73 0.25,-0.24 0.5,-0.49 0.75,-0.73 0.25,-0.25 0.51,-0.49 0.76,-0.73 0.26,-0.25 0.52,-0.49 0.78,-0.73 0.27,-0.24 0.53,-0.49 0.8,-0.73 0.27,-0.25 0.55,-0.49 0.82,-0.73 0.28,-0.24 0.55,-0.49 0.83,-0.73 0.29,-0.25 0.58,-0.49 0.87,-0.73 0.29,-0.25 0.58,-0.49 0.87,-0.73 0.3,-0.25 0.61,-0.49 0.91,-0.73 0.31,-0.25 0.61,-0.49 0.92,-0.73 0.31,-0.25 0.63,-0.49 0.95,-0.73 0.32,-0.25 0.65,-0.49 0.97,-0.73 0.33,-0.25 0.67,-0.49 1,-0.73 0.34,-0.25 0.69,-0.49 1.03,-0.73 0.35,-0.25 0.7,-0.49 1.05,-0.73 0.37,-0.25 0.73,-0.49 1.1,-0.73 0.37,-0.25 0.74,-0.49 1.12,-0.73 0.39,-0.25 0.78,-0.49 1.17,-0.73 0.4,-0.25 0.8,-0.49 1.21,-0.73 0.41,-0.25 0.82,-0.49 1.23,-0.73 0.43,-0.25 0.87,-0.49 1.3,-0.73 0.44,-0.25 0.89,-0.49 1.34,-0.73 0.46,-0.25 0.92,-0.49 1.38,-0.73 0.49,-0.25 0.98,-0.49 1.47,-0.73 0.51,-0.25 1.02,-0.49 1.53,-0.73 0.53,-0.25 1.06,-0.49 1.6,-0.73 0.55,-0.25 1.11,-0.49 1.68,-0.73 0.59,-0.25 1.19,-0.49 1.79,-0.73 0.63,-0.25 1.27,-0.49 1.91,-0.73 0.68,-0.25 1.36,-0.49 2.04,-0.73 0.73,-0.25 1.46,-0.5 2.2,-0.73 0.8,-0.25 1.6,-0.5 2.41,-0.73 0.88,-0.26 1.78,-0.5 2.67,-0.73 1.02,-0.26 2.06,-0.5 3.1,-0.73 1.2,-0.27 2.41,-0.51 3.63,-0.73 1.59,-0.29 3.21,-0.53 4.83,-0.73 3.84,-0.48 7.76,-0.73 11.74,-0.73 3.97,0 7.89,0.25 11.73,0.73 1.62,0.2 3.23,0.45 4.83,0.73 1.22,0.22 2.43,0.47 3.63,0.73 1.04,0.23 2.07,0.47 3.1,0.73 0.9,0.23 1.79,0.48 2.67,0.73 0.81,0.23 1.61,0.48 2.41,0.73 0.74,0.24 1.47,0.48 2.2,0.73 0.68,0.24 1.36,0.48 2.04,0.73 0.64,0.24 1.27,0.48 1.91,0.73 0.6,0.24 1.2,0.48 1.79,0.73 0.56,0.24 1.12,0.48 1.68,0.73 0.53,0.24 1.07,0.48 1.6,0.73 0.51,0.24 1.02,0.48 1.53,0.73 0.49,0.24 0.98,0.48 1.47,0.73 0.47,0.24 0.93,0.49 1.39,0.73 0.45,0.24 0.9,0.48 1.34,0.73 0.43,0.24 0.87,0.48 1.3,0.73 0.41,0.24 0.83,0.49 1.24,0.73 0.4,0.24 0.81,0.48 1.2,0.73 0.39,0.24 0.78,0.48 1.17,0.73 0.38,0.24 0.75,0.49 1.12,0.73 0.37,0.24 0.74,0.48 1.1,0.73 0.35,0.24 0.7,0.49 1.05,0.73 0.35,0.24 0.69,0.48 1.04,0.73 0.33,0.24 0.67,0.48 1,0.73 0.33,0.24 0.65,0.49 0.97,0.73 0.32,0.24 0.64,0.49 0.95,0.73 0.31,0.24 0.62,0.49 0.92,0.73 0.3,0.24 0.61,0.48 0.91,0.73 0.29,0.24 0.58,0.49 0.88,0.73 0.29,0.24 0.58,0.48 0.86,0.73 0.28,0.24 0.55,0.49 0.83,0.73 0.27,0.24 0.55,0.49 0.82,0.73 0.27,0.24 0.53,0.49 0.79,0.73 0.26,0.24 0.53,0.49 0.78,0.73 0.26,0.24 0.51,0.49 0.76,0.73 0.25,0.24 0.5,0.49 0.75,0.73 0.25,0.24 0.49,0.49 0.73,0.73 0.24,0.24 0.48,0.49 0.71,0.73 0.24,0.24 0.47,0.49 0.7,0.73 0.23,0.24 0.45,0.49 0.68,0.73 0.22,0.24 0.45,0.48 0.68,0.73 0.22,0.24 0.43,0.49 0.65,0.73 0.22,0.24 0.43,0.49 0.65,0.73 0.21,0.24 0.42,0.49 0.63,0.73 0.21,0.24 0.41,0.49 0.62,0.73 0.2,0.24 0.41,0.49 0.61,0.73 0.2,0.24 0.39,0.49 0.59,0.73 0.19,0.24 0.39,0.48 0.59,0.73 0.19,0.24 0.37,0.49 0.56,0.73 0.19,0.24 0.38,0.49 0.56,0.73 0.18,0.24 0.36,0.49 0.54,0.73 0.18,0.24 0.36,0.49 0.53,0.73 0.18,0.24 0.36,0.48 0.53,0.73 0.17,0.24 0.34,0.49 0.51,0.73 0.17,0.24 0.34,0.49 0.51,0.73 0.17,0.24 0.33,0.49 0.49,0.73 0.16,0.24 0.32,0.49 0.48,0.73 0.16,0.25 0.32,0.49 0.48,0.73 0.16,0.24 0.3,0.49 0.46,0.73 0.15,0.24 0.3,0.49 0.45,0.73 0.15,0.24 0.3,0.49 0.45,0.73 0.15,0.24 0.29,0.49 0.43,0.73 0.14,0.24 0.29,0.49 0.43,0.73 0.14,0.24 0.28,0.49 0.41,0.73 0.14,0.24 0.27,0.49 0.41,0.73 0.13,0.24 0.27,0.49 0.41,0.73 0.13,0.24 0.26,0.49 0.38,0.73 0.13,0.24 0.26,0.49 0.39,0.73 0.13,0.24 0.26,0.49 0.38,0.73 0.12,0.24 0.24,0.49 0.36,0.73 0.12,0.24 0.24,0.49 0.36,0.73 0.12,0.24 0.24,0.49 0.35,0.73 0.12,0.24 0.23,0.49 0.34,0.73 0.11,0.24 0.23,0.49 0.34,0.73 0.11,0.24 0.22,0.49 0.33,0.73 0.11,0.24 0.21,0.49 0.32,0.73 0.11,0.24 0.22,0.49 0.32,0.73 0.1,0.24 0.2,0.49 0.3,0.73 0.1,0.24 0.2,0.49 0.3,0.73 0.1,0.25 0.2,0.49 0.3,0.73 0.1,0.24 0.18,0.49 0.28,0.73 0.09,0.24 0.19,0.49 0.28,0.73 0.09,0.24 0.19,0.49 0.28,0.73 0.09,0.24 0.17,0.49 0.26,0.73 0.09,0.24 0.17,0.49 0.26,0.73 0.08,0.24 0.17,0.49 0.26,0.73 0.08,0.24 0.16,0.49 0.24,0.73 0.08,0.24 0.16,0.49 0.24,0.73 0.08,0.24 0.16,0.49 0.24,0.73 0.07,0.24 0.14,0.49 0.22,0.73 0.07,0.24 0.15,0.49 0.22,0.73 0.07,0.24 0.15,0.49 0.21,0.73 0.07,0.24 0.13,0.49 0.2,0.73 0.07,0.24 0.13,0.49 0.2,0.73 0.06,0.24 0.13,0.49 0.2,0.73 0.06,0.24 0.12,0.49 0.18,0.73 0.06,0.24 0.12,0.49 0.18,0.73 0.06,0.24 0.12,0.49 0.18,0.73 0.06,0.24 0.11,0.49 0.16,0.73 0.05,0.24 0.11,0.49 0.16,0.73 0.05,0.25 0.11,0.49 0.16,0.73 0.05,0.24 0.1,0.49 0.14,0.73 0.05,0.24 0.09,0.49 0.14,0.73 0.05,0.24 0.1,0.49 0.14,0.73 0.04,0.24 0.08,0.49 0.13,0.73 0.04,0.24 0.08,0.49 0.12,0.73 0.04,0.24 0.08,0.49 0.12,0.73 0.04,0.24 0.07,0.49 0.11,0.73 0.04,0.24 0.07,0.49 0.1,0.73 0.04,0.24 0.07,0.49 0.1,0.73 0.03,0.24 0.07,0.49 0.1,0.73 0.03,0.24 0.05,0.49 0.08,0.73 0.03,0.24 0.06,0.49 0.08,0.73 0.03,0.24 0.06,0.49 0.08,0.73 0.03,0.24 0.04,0.49 0.07,0.73 0.02,0.24 0.04,0.49 0.06,0.73 0.02,0.24 0.05,0.49 0.06,0.73 0.02,0.24 0.03,0.49 0.05,0.73 0.02,0.24 0.03,0.49 0.05,0.73 0.02,0.24 0.03,0.49 0.05,0.73 0.01,0.24 0.02,0.49 0.03,0.73 0.01,0.24 0.02,0.49 0.03,0.73 0.01,0.24 0.02,0.49 0.03,0.73 0.01,0.24 0.02,0.49 0.02,0.73 0.01,0.24 0.01,0.49 0.01,0.73 0,0.24 0.01,0.49 0.01,0.73 0,0.15 0,0.3 0.01,0.45l0 0.28 0 0.28c0,0.15 -0.01,0.3 -0.01,0.45 -0,0.24 -0.01,0.49 -0.01,0.73 -0.01,0.24 -0,0.49 -0.01,0.73 -0.01,0.24 -0.02,0.49 -0.02,0.73 -0.01,0.24 -0.02,0.49 -0.03,0.73 -0.01,0.24 -0.02,0.49 -0.03,0.73 -0.01,0.24 -0.02,0.49 -0.03,0.73 -0.01,0.24 -0.03,0.49 -0.05,0.73 -0.02,0.24 -0.03,0.49 -0.05,0.73 -0.02,0.24 -0.03,0.49 -0.05,0.73 -0.02,0.25 -0.04,0.49 -0.06,0.73 -0.02,0.24 -0.04,0.49 -0.06,0.73 -0.02,0.24 -0.04,0.49 -0.07,0.73 -0.02,0.24 -0.05,0.49 -0.08,0.73 -0.03,0.24 -0.06,0.49 -0.08,0.73 -0.03,0.24 -0.05,0.49 -0.08,0.73 -0.03,0.25 -0.06,0.49 -0.1,0.73 -0.03,0.24 -0.07,0.49 -0.1,0.73 -0.03,0.24 -0.07,0.49 -0.1,0.73 -0.04,0.24 -0.07,0.49 -0.11,0.73 -0.04,0.24 -0.08,0.49 -0.12,0.73 -0.04,0.24 -0.08,0.49 -0.12,0.73 -0.04,0.24 -0.08,0.49 -0.13,0.73 -0.05,0.25 -0.09,0.49 -0.14,0.73 -0.05,0.24 -0.09,0.49 -0.14,0.73 -0.05,0.24 -0.09,0.49 -0.14,0.73 -0.05,0.25 -0.11,0.49 -0.16,0.73 -0.05,0.24 -0.1,0.49 -0.16,0.73 -0.05,0.24 -0.1,0.49 -0.16,0.73 -0.06,0.24 -0.12,0.49 -0.18,0.73 -0.06,0.25 -0.12,0.49 -0.18,0.73 -0.06,0.24 -0.12,0.49 -0.18,0.73 -0.06,0.25 -0.13,0.49 -0.2,0.73 -0.06,0.24 -0.13,0.49 -0.2,0.73 -0.07,0.24 -0.13,0.49 -0.2,0.73 -0.07,0.24 -0.14,0.49 -0.21,0.73 -0.07,0.25 -0.14,0.49 -0.22,0.73 -0.07,0.24 -0.14,0.49 -0.22,0.73 -0.08,0.25 -0.16,0.49 -0.24,0.73 -0.08,0.24 -0.16,0.49 -0.24,0.73 -0.08,0.24 -0.16,0.49 -0.24,0.73 -0.08,0.24 -0.17,0.49 -0.26,0.73 -0.08,0.25 -0.17,0.49 -0.26,0.73 -0.09,0.24 -0.17,0.49 -0.26,0.73 -0.09,0.25 -0.19,0.49 -0.28,0.73 -0.09,0.24 -0.18,0.49 -0.28,0.73 -0.09,0.24 -0.18,0.49 -0.28,0.73 -0.1,0.25 -0.2,0.49 -0.3,0.73 -0.1,0.25 -0.2,0.49 -0.3,0.73 -0.1,0.24 -0.2,0.49 -0.3,0.73 -0.1,0.25 -0.21,0.49 -0.32,0.73 -0.11,0.24 -0.21,0.49 -0.32,0.73 -0.11,0.25 -0.21,0.49 -0.33,0.73 -0.11,0.25 -0.23,0.49 -0.34,0.73 -0.11,0.24 -0.23,0.49 -0.34,0.73 -0.12,0.24 -0.23,0.49 -0.35,0.73 -0.12,0.24 -0.24,0.49 -0.36,0.73 -0.12,0.24 -0.24,0.49 -0.36,0.73 -0.13,0.25 -0.25,0.49 -0.38,0.73 -0.13,0.25 -0.26,0.49 -0.39,0.73 -0.13,0.24 -0.25,0.49 -0.38,0.73 -0.14,0.25 -0.27,0.49 -0.41,0.73 -0.14,0.24 -0.27,0.49 -0.41,0.73 -0.14,0.24 -0.28,0.49 -0.42,0.73 -0.14,0.25 -0.29,0.49 -0.43,0.73 -0.14,0.24 -0.29,0.49 -0.43,0.73 -0.15,0.24 -0.3,0.49 -0.45,0.73 -0.15,0.24 -0.3,0.49 -0.46,0.73 -0.15,0.24 -0.3,0.49 -0.45,0.73 -0.16,0.25 -0.32,0.49 -0.48,0.73 -0.16,0.24 -0.32,0.49 -0.48,0.73 -0.16,0.24 -0.33,0.49 -0.49,0.73 -0.17,0.25 -0.34,0.49 -0.51,0.73 -0.17,0.24 -0.33,0.49 -0.51,0.73 -0.18,0.25 -0.36,0.49 -0.53,0.73 -0.18,0.24 -0.36,0.49 -0.53,0.73 -0.18,0.24 -0.36,0.49 -0.54,0.73 -0.19,0.25 -0.37,0.49 -0.56,0.73 -0.19,0.24 -0.37,0.49 -0.56,0.73 -0.19,0.25 -0.39,0.49 -0.59,0.73 -0.2,0.24 -0.39,0.49 -0.59,0.73 -0.2,0.25 -0.4,0.49 -0.61,0.73 -0.2,0.25 -0.41,0.49 -0.62,0.73 -0.21,0.24 -0.41,0.49 -0.63,0.73 -0.21,0.25 -0.43,0.49 -0.65,0.73 -0.21,0.24 -0.43,0.49 -0.65,0.73 -0.22,0.25 -0.45,0.49 -0.68,0.73 -0.23,0.24 -0.45,0.49 -0.68,0.73 -0.23,0.25 -0.47,0.49 -0.7,0.73 -0.24,0.24 -0.48,0.49 -0.71,0.73 -0.24,0.25 -0.49,0.49 -0.73,0.73 -0.25,0.25 -0.5,0.49 -0.75,0.73 -0.25,0.24 -0.51,0.49 -0.76,0.73 -0.26,0.25 -0.52,0.49 -0.78,0.73 -0.26,0.24 -0.53,0.49 -0.79,0.73 -0.27,0.25 -0.55,0.49 -0.82,0.73 -0.28,0.24 -0.55,0.49 -0.83,0.73 -0.29,0.25 -0.58,0.49 -0.86,0.73 -0.29,0.24 -0.58,0.49 -0.88,0.73 -0.3,0.25 -0.6,0.49 -0.91,0.73 -0.31,0.25 -0.61,0.49 -0.92,0.73 -0.31,0.25 -0.63,0.49 -0.95,0.73 -0.32,0.25 -0.65,0.49 -0.97,0.73 -0.33,0.25 -0.67,0.49 -1,0.73 -0.34,0.25 -0.69,0.49 -1.04,0.73 -0.35,0.24 -0.7,0.49 -1.05,0.73 -0.37,0.25 -0.73,0.49 -1.1,0.73 -0.37,0.25 -0.74,0.49 -1.12,0.73 -0.39,0.25 -0.78,0.49 -1.17,0.73 -0.4,0.25 -0.8,0.49 -1.2,0.73 -0.41,0.24 -0.82,0.49 -1.24,0.73 -0.43,0.25 -0.87,0.49 -1.3,0.73 -0.44,0.25 -0.89,0.49 -1.34,0.73 -0.46,0.25 -0.92,0.49 -1.39,0.73 -0.49,0.25 -0.98,0.49 -1.47,0.73 -0.51,0.25 -1.02,0.49 -1.53,0.73 -0.53,0.25 -1.06,0.49 -1.6,0.73 -0.56,0.25 -1.12,0.49 -1.68,0.73 -0.59,0.25 -1.19,0.49 -1.79,0.73 -0.63,0.25 -1.27,0.49 -1.91,0.73 -0.68,0.25 -1.36,0.49 -2.04,0.73 -0.73,0.25 -1.46,0.5 -2.2,0.73 -0.8,0.25 -1.6,0.5 -2.41,0.73 -0.89,0.26 -1.78,0.5 -2.68,0.73 -1.02,0.26 -2.06,0.5 -3.1,0.73 -1.2,0.26 -2.41,0.51 -3.63,0.73 -1.6,0.29 -3.21,0.53 -4.83,0.73 -3.84,0.48 -7.76,0.73 -11.73,0.73 -3.75,0 -7.41,-0.27 -10.93,-0.73 -1.57,-0.2 -3.12,-0.45 -4.64,-0.73 -1.21,-0.22 -2.41,-0.47 -3.58,-0.73 -1.03,-0.23 -2.04,-0.48 -3.04,-0.73 -0.91,-0.23 -1.8,-0.48 -2.68,-0.73 -0.83,-0.24 -1.64,-0.48 -2.43,-0.73 -0.76,-0.24 -1.51,-0.48 -2.25,-0.73 -0.71,-0.24 -1.41,-0.48 -2.09,-0.73 -0.67,-0.24 -1.32,-0.49 -1.97,-0.73 -0.63,-0.24 -1.25,-0.49 -1.86,-0.73 -0.6,-0.24 -1.19,-0.49 -1.77,-0.73 -0.58,-0.24 -1.14,-0.49 -1.68,-0.73 -0.55,-0.25 -1.09,-0.49 -1.62,-0.73 -0.53,-0.25 -1.05,-0.49 -1.55,-0.73 -0.51,-0.25 -1.01,-0.49 -1.49,-0.73 -0.5,-0.25 -0.97,-0.49 -1.43,-0.73 -0.48,-0.25 -0.95,-0.5 -1.38,-0.73 -0.47,-0.26 -0.91,-0.5 -1.33,-0.73 -0.47,-0.26 -0.89,-0.51 -1.28,-0.73 -0.47,-0.28 -0.88,-0.52 -1.22,-0.73 -0.56,-0.34 -0.95,-0.59 -1.16,-0.73 -0.13,-0.08 -0.19,-0.13 -0.19,-0.13l-0.4 0.13 -2.24 0.73 -2.24 0.73 -2.24 0.73 -2.24 0.73 -2.24 0.73 -2.24 0.73 -2.24 0.73 -2.24 0.73 -2.24 0.73 -2.24 0.73 -2.24 0.73 -2.24 0.73 -2.24 0.73 -2.24 0.73 -2.24 0.73z"/>
 </g>
</svg>
