<?xml version="1.0" encoding="UTF-8"?>
<!DOCTYPE svg PUBLIC "-//W3C//DTD SVG 1.1//EN" "http://www.w3.org/Graphics/SVG/1.1/DTD/svg11.dtd">
<!-- Creator: CorelDRAW 2019 (64 Bit) -->
<svg xmlns="http://www.w3.org/2000/svg" xml:space="preserve" width="197.239mm" height="65.8952mm" version="1.1" style="shape-rendering:geometricPrecision; text-rendering:geometricPrecision; image-rendering:optimizeQuality; fill-rule:evenodd; clip-rule:evenodd"
viewBox="0 0 12210.83 4079.48"
 xmlns:xlink="http://www.w3.org/1999/xlink">
 <defs>
  <style type="text/css">
   <![CDATA[
    .fil0 {fill:white}
    .fil1 {fill:white;fill-rule:nonzero}
   ]]>
  </style>
 </defs>
 <g id="Camada_x0020_1">
  <metadata id="CorelCorpID_0Corel-Layer"/>
  <g id="_2268920651344">
   <path class="fil0" d="M-0 1358.15l0 1363.18c0,47.84 14.86,104.13 29.1,139.42 14.75,36.56 23.23,53.02 43.32,84.94 31.79,50.52 137.78,150.58 184.75,197.54l763.33 763.33c69.59,69.59 106.5,106.9 196.44,143.1 35.25,14.19 91.55,29.82 141.21,29.82l1363.19 0c47.84,0 104.12,-14.86 139.41,-29.09 47.74,-19.26 70.32,-32.08 109.58,-61.45 51.57,-38.58 472.86,-466.57 512.46,-506.16 39.3,-39.31 467.5,-460.77 506.16,-512.46 5.63,-7.53 11.79,-14.88 17.15,-23.09 40.18,-61.52 73.39,-148.12 73.39,-225.91l0 -1363.18c0,-47.84 -14.86,-104.12 -29.1,-139.42 -36.72,-91.02 -71.8,-126.22 -142.56,-196.97 -29.12,-29.12 -56.39,-56.39 -85.51,-85.51l-763.33 -763.33c-29.36,-29.36 -55.51,-57.57 -88.66,-82.37 -37.98,-28.41 -61.55,-42.12 -107.78,-60.73 -35.25,-14.19 -91.56,-29.82 -141.21,-29.82l-1363.19 0c-47.84,0 -104.12,14.86 -139.41,29.1 -36.56,14.75 -53.02,23.23 -84.95,43.32 -50.52,31.79 -150.57,137.78 -197.54,184.75 -113.79,113.79 -225.74,225.74 -339.54,339.54 -39.3,39.3 -467.5,460.77 -506.16,512.45 -28.42,37.99 -42.12,61.56 -60.73,107.79 -14.18,35.25 -29.82,91.55 -29.82,141.21zm1466.76 -442.33c-8.03,-5.66 -16.6,-10.07 -25.73,-13.22 -9.12,-3.15 -18.88,-4.72 -29.26,-4.72 -13.05,0 -25.02,2.44 -35.88,7.4 -10.86,4.96 -20.13,11.72 -27.92,20.23 -7.79,8.41 -13.93,18.41 -18.33,29.81 -4.4,11.33 -6.61,23.52 -6.61,36.35 0,12.9 2.21,25.02 6.61,36.35 4.4,11.32 10.46,21.16 18.26,29.58 7.79,8.41 17.06,15.02 27.92,19.91 10.78,4.87 22.73,7.32 35.8,7.32 5.51,0 10.94,-0.39 16.37,-1.18 5.42,-0.79 11.16,-1.81 17.3,-3.07l0 -61.85c0,-2.98 0.86,-5.5 2.59,-7.47 1.74,-1.97 4.34,-2.91 7.79,-2.91l64.43 0c2.36,0 4.88,0.94 7.56,2.83 2.66,1.89 4.01,4.4 4.01,7.55l0 114.39c0,4.25 -2.28,7.71 -6.85,10.39 -7.4,5.04 -15.56,9.37 -24.53,12.98 -8.97,3.7 -18.42,6.69 -28.17,9.05 -9.74,2.36 -19.59,4.1 -29.57,5.27 -10,1.18 -19.75,1.8 -29.19,1.8 -16.68,0 -32.73,-2.12 -48.07,-6.37 -15.34,-4.25 -29.73,-10.3 -43.11,-18.18 -13.37,-7.87 -25.58,-17.3 -36.51,-28.24 -10.93,-10.94 -20.37,-23.05 -28.24,-36.35 -7.87,-13.29 -13.93,-27.69 -18.16,-43.03 -4.25,-15.34 -6.38,-31.31 -6.38,-48.07 0,-16.68 2.13,-32.66 6.38,-47.99 4.23,-15.42 10.38,-29.82 18.24,-43.27 7.86,-13.45 17.32,-25.64 28.26,-36.74 11.01,-11.01 23.12,-20.37 36.57,-28.16 13.37,-7.79 27.77,-13.84 43.11,-18.16 15.35,-4.33 31.33,-6.53 47.99,-6.53 18.89,0 36.74,2.67 53.5,7.96 16.76,5.26 32.48,12.9 47.28,22.81 2.67,1.57 4.72,3.69 6.14,6.29 1.42,2.6 1.1,5.51 -0.95,8.9l-38.22 55.3c-2.06,2.53 -4.1,4.17 -6.14,5.03 -2.04,0.87 -4.79,0.25 -8.26,-1.96zm108.1 -88.27c0,-3.3 0.87,-5.9 2.61,-7.87 1.72,-1.96 4.32,-2.99 7.79,-2.99l152.46 0c16.2,0 31.39,3.07 45.55,9.13 14.17,6.05 26.52,14.23 37.05,24.63 10.54,10.38 18.89,22.58 24.94,36.5 6.07,13.93 9.04,28.8 9.04,44.52 0,10.71 -1.41,20.94 -4.33,30.61 -2.9,9.67 -7,18.71 -12.19,27.13 -5.19,8.43 -11.33,16.05 -18.48,22.9 -7.17,6.84 -15.04,12.73 -23.54,17.63l60.89 114.3c1.11,2.21 2.53,4.8 4.25,7.79 1.74,2.99 2.6,5.58 2.6,7.79 0,2.53 -0.79,4.4 -2.43,5.75 -1.67,1.33 -3.95,2.04 -6.78,2.04l-81.19 0c-2.66,0 -5.02,-0.79 -7.15,-2.36 -2.12,-1.57 -3.54,-3.71 -4.17,-6.37l-57.19 -107.86 -38.16 0 0 106.44c0,6.76 -3.62,10.15 -10.85,10.15l-70.33 0c-3.14,0 -5.67,-0.86 -7.57,-2.51 -1.89,-1.66 -2.83,-4.17 -2.83,-7.63l0 -329.71zm184.56 105.03c0,-4.72 -0.86,-9.44 -2.58,-14.16 -1.74,-4.72 -4.18,-9.04 -7.25,-12.98 -3.14,-3.95 -6.93,-7.24 -11.32,-9.92 -4.33,-2.67 -9.2,-4.4 -14.55,-5.19 -4.32,-0.32 -8.5,-0.63 -12.26,-0.86 -3.86,-0.24 -8.04,-0.32 -12.6,-0.32l-32.42 0 0 86.62 43.2 0c2.82,0 5.36,-0.09 7.55,-0.25 2.21,-0.15 4.57,-0.39 7.24,-0.71 5.5,-0.62 10.47,-2.28 14.79,-4.87 4.4,-2.6 8.09,-5.83 11.09,-9.68 2.9,-3.86 5.19,-8.18 6.76,-12.98 1.57,-4.81 2.36,-9.68 2.36,-14.72zm211.5 95.03c0,11.65 1.65,21.56 4.87,29.66 3.22,8.11 7.47,14.72 12.75,19.83 5.26,5.11 11.4,8.9 18.41,11.25 7,2.36 14.23,3.53 21.8,3.53 7.86,0 15.33,-1.42 22.34,-4.17 7,-2.75 13.13,-6.83 18.41,-12.26 5.26,-5.43 9.43,-12.21 12.51,-20.23 3.07,-8.03 4.57,-17.22 4.57,-27.62l0 -200.53c0,-2.83 1.02,-5.26 2.98,-7.32 1.97,-2.04 4.57,-3.07 7.87,-3.07l69.15 0c3.63,0 6.46,1.1 8.5,3.23 2.04,2.12 3.07,4.48 3.07,7.16l0 199.27c0,27.53 -4.1,50.67 -12.19,69.47 -8.11,18.72 -18.97,33.81 -32.66,45.24 -13.76,11.4 -29.59,19.59 -47.6,24.53 -18.09,4.96 -36.97,7.47 -56.8,7.47 -19.9,0 -38.87,-2.59 -56.96,-7.7 -18.1,-5.11 -33.99,-13.46 -47.76,-25.02 -13.69,-11.57 -24.55,-26.76 -32.65,-45.39 -8.09,-18.65 -12.19,-41.55 -12.19,-68.61l0 -199.27c0,-2.68 0.95,-5.04 2.75,-7.16 1.81,-2.13 4.02,-3.23 6.69,-3.23l70.82 0c2.36,0 4.87,1.03 7.47,2.99 2.59,1.97 3.86,4.4 3.86,7.4l0 200.53zm245.22 -200.06c0,-3.3 0.86,-5.9 2.59,-7.87 1.74,-1.96 4.33,-2.99 7.79,-2.99l150.98 0c10.84,0 21.08,1.49 30.67,4.49 9.61,3 18.41,7.16 26.44,12.44 8.02,5.26 15.33,11.55 21.79,18.88 6.44,7.39 11.87,15.26 16.37,23.83 4.48,8.5 7.94,17.39 10.3,26.83 2.36,9.36 3.53,18.88 3.53,28.48 0,14.16 -2.51,28.08 -7.63,41.61 -5.11,13.54 -12.42,25.65 -21.87,36.2 -9.44,10.54 -20.77,19.12 -33.99,25.64 -13.21,6.53 -27.85,9.92 -43.89,10.07l-71.51 0 0 112.11c0,6.76 -3.62,10.15 -10.86,10.15l-70.33 0c-3.14,0 -5.66,-0.86 -7.55,-2.51 -1.89,-1.66 -2.83,-4.17 -2.83,-7.63l0 -329.71zm177.95 103.6c0,-4.72 -0.79,-9.43 -2.44,-14.16 -1.65,-4.72 -4.1,-8.96 -7.24,-12.65 -3.14,-3.71 -6.91,-6.69 -11.4,-9.05 -4.48,-2.36 -9.59,-3.53 -15.26,-3.53l-50.03 0 0 78.82 50.03 0c5.67,0 10.78,-1.18 15.33,-3.46 4.57,-2.27 8.43,-5.19 11.5,-8.8 3.07,-3.62 5.43,-7.79 7.08,-12.51 1.65,-4.72 2.44,-9.6 2.44,-14.64zm193.07 60.89c0,13.07 2.21,25.26 6.61,36.59 4.4,11.33 10.54,21.16 18.49,29.59 7.94,8.41 17.3,15.02 28.16,19.82 10.86,4.8 22.82,7.24 35.88,7.24 12.98,0 25.02,-2.44 35.88,-7.24 10.93,-4.8 20.37,-11.41 28.31,-19.82 7.96,-8.43 14.08,-18.26 18.5,-29.59 4.4,-11.33 6.61,-23.52 6.61,-36.59 0,-12.9 -2.21,-25.09 -6.61,-36.5 -4.41,-11.4 -10.54,-21.33 -18.5,-29.81 -7.94,-8.5 -17.38,-15.19 -28.31,-20.08 -10.86,-4.87 -22.9,-7.32 -35.88,-7.32 -13.06,0 -25.02,2.45 -35.88,7.32 -10.86,4.89 -20.23,11.58 -28.16,20.08 -7.94,8.48 -14.08,18.41 -18.49,29.81 -4.4,11.4 -6.61,23.59 -6.61,36.5zm-91.56 0.32c0,-16.68 2.12,-32.66 6.36,-47.99 4.25,-15.42 10.3,-29.82 18.26,-43.27 7.86,-13.45 17.3,-25.64 28.24,-36.74 10.94,-11.01 23.13,-20.37 36.5,-28.16 13.46,-7.79 27.77,-13.84 43.19,-18.16 15.34,-4.33 31.39,-6.53 48.15,-6.53 16.52,0 32.49,2.2 47.99,6.53 15.41,4.33 29.81,10.38 43.27,18.16 13.37,7.79 25.56,17.15 36.64,28.16 11.03,11.11 20.47,23.3 28.26,36.74 7.79,13.46 13.84,27.86 18.16,43.27 4.33,15.33 6.54,31.31 6.54,47.99 0,16.76 -2.21,32.72 -6.54,48.07 -4.32,15.33 -10.38,29.73 -18.16,43.03 -7.79,13.3 -17.23,25.41 -28.26,36.35 -11.09,10.93 -23.28,20.37 -36.64,28.24 -13.47,7.88 -27.87,13.93 -43.27,18.18 -15.5,4.25 -31.47,6.37 -47.99,6.37 -16.76,0 -32.81,-2.12 -48.15,-6.37 -15.43,-4.25 -29.73,-10.3 -43.19,-18.18 -13.37,-7.87 -25.56,-17.3 -36.5,-28.24 -10.93,-10.94 -20.37,-23.05 -28.24,-36.35 -7.96,-13.29 -14,-27.69 -18.26,-43.03 -4.25,-15.34 -6.36,-31.31 -6.36,-48.07zm-1756.5 1210.41c6.43,5.29 14.76,12.3 24.78,21.19 10.03,8.88 21.38,17.77 34.24,26.47 19.3,12.87 38.4,22.9 57.31,30.08 18.93,7.18 38.78,10.78 59.58,10.78 19.3,0 35.56,-2.27 48.61,-6.62 13.05,-4.36 23.27,-10.03 30.84,-17.21 7.56,-7.19 13.05,-15.51 16.26,-24.97 3.22,-9.45 4.74,-19.48 4.74,-30.07 0,-11.72 -4.36,-22.32 -13.25,-31.6 -8.88,-9.26 -19.85,-17.39 -32.71,-24.58 -12.86,-7.18 -26.29,-13.43 -40.3,-18.54 -13.99,-5.1 -26.09,-9.27 -36.32,-12.67 -45.39,-15.89 -85.11,-33.1 -119.16,-51.45 -34.04,-18.34 -62.42,-38.78 -85.12,-61.28 -22.68,-22.51 -39.71,-47.28 -51.06,-74.34 -11.35,-27.04 -17.03,-57.11 -17.03,-90.41 0,-35.18 7.2,-67.15 21.37,-95.91 14.19,-28.74 34.43,-53.33 60.91,-73.76 26.29,-20.42 58.06,-36.32 95.14,-47.48 37.27,-11.14 78.7,-16.63 124.47,-16.63 34.42,0 67.54,3.78 99.12,11.54 31.58,7.76 62.6,20.24 93.25,37.25 12.87,7.58 25.15,15.32 36.69,23.46 11.54,8.13 21.57,16.08 30.26,23.64 8.7,7.57 15.7,14.77 20.81,21.57 5.1,6.8 7.57,12.68 7.57,17.59 0,4.91 -1.13,9.45 -3.6,13.61 -2.45,4.16 -6.23,8.9 -11.14,14.19l-86.83 92.49c-6.43,6.44 -12.86,9.65 -19.28,9.65 -5.29,0 -10.03,-1.51 -14.37,-4.53 -4.36,-3.03 -9.27,-6.81 -14.57,-11.35l-5.11 -4.54c-7.56,-6.44 -15.9,-13.05 -25.15,-19.87 -9.27,-6.81 -19.3,-13.04 -29.88,-18.53 -10.59,-5.49 -21.75,-10.03 -33.49,-13.61 -11.73,-3.6 -23.64,-5.31 -35.75,-5.31 -12.49,0 -24.21,1.13 -35.18,3.22 -10.98,2.09 -20.62,5.29 -28.95,9.83 -8.32,4.54 -14.93,10.6 -19.86,17.97 -4.92,7.38 -7.37,16.27 -7.37,26.86 0,10.78 2.64,19.85 7.94,27.62 5.3,7.76 13.24,14.94 23.84,21.57 10.59,6.61 23.82,13.04 39.52,18.91 15.7,5.86 33.86,12.1 54.66,18.92 40.11,13.24 77.19,27.23 111.03,41.79 33.86,14.57 62.98,31.78 87.58,51.84 24.6,19.86 43.88,43.5 57.69,71.3 13.81,27.62 20.62,61.1 20.62,100.63 0,41.63 -8.5,79.45 -25.53,113.31 -17.21,33.86 -40.48,62.8 -70.36,86.63 -29.69,24.02 -64.69,42.36 -104.79,55.41 -40.3,13.06 -83.42,19.67 -129.56,19.67 -43.5,0 -86.26,-7.74 -128.24,-23.44 -41.99,-15.52 -81.15,-36.51 -117.47,-62.8 -15.12,-10.97 -27.8,-21.75 -38.2,-32.53 -10.41,-10.59 -18.73,-19.11 -24.78,-25.53l-1.71 -1.89c-0.38,-0.76 -0.76,-1.13 -1.14,-1.33 -0.38,-0.18 -0.76,-0.56 -1.13,-0.93 -0.38,-0.77 -0.76,-1.15 -1.13,-1.33 -0.38,-0.2 -0.76,-0.58 -1.13,-0.95 -8.7,-9.45 -13.06,-17.02 -13.06,-22.69 0,-6.62 4.36,-13.81 13.06,-21.75l98.16 -93.64c7.96,-5.68 14.38,-8.5 19.3,-8.5 3.4,0 7,1.13 10.78,3.4 3.78,2.27 8.32,5.67 13.61,10.21zm530.62 -545.88c0,-7.57 2.65,-13.61 7.76,-18.15 5.1,-4.54 11.35,-6.82 18.91,-6.82l611.13 0c6.82,0 12.87,2.09 18.16,6.25 5.29,4.15 8.32,10.4 9.08,18.72l0 141.3c0,6.8 -2.27,13.24 -7,19.48 -4.72,6.25 -11.53,9.45 -20.24,9.45l-195.76 0 0 621.35c0,6.8 -2.45,12.86 -7.39,18.34 -4.92,5.48 -11.34,8.32 -19.28,8.32l-166.83 0c-6.43,0 -12.48,-2.64 -18.15,-7.76 -5.69,-5.1 -8.52,-11.34 -8.52,-18.91l0 -621.35 -195.2 0c-7.56,0 -13.81,-2.45 -18.91,-7.39 -5.11,-4.92 -7.76,-12.1 -7.76,-21.55l0 -141.3zm861.42 396.64c0,31.4 5.29,60.73 15.88,87.95 10.6,27.24 25.35,50.88 44.46,71.11 19.1,20.24 41.61,36.14 67.72,47.68 26.1,11.54 54.86,17.4 86.26,17.4 31.2,0 60.14,-5.86 86.24,-17.4 26.29,-11.54 48.99,-27.44 68.09,-47.68 19.11,-20.24 33.87,-43.87 44.46,-71.11 10.59,-27.23 15.88,-56.55 15.88,-87.95 0,-31.02 -5.29,-60.34 -15.88,-87.76 -10.59,-27.44 -25.35,-51.26 -44.46,-71.7 -19.1,-20.42 -41.8,-36.5 -68.09,-48.23 -26.1,-11.72 -55.04,-17.59 -86.24,-17.59 -31.4,0 -60.16,5.87 -86.26,17.59 -26.11,11.74 -48.62,27.82 -67.72,48.23 -19.11,20.44 -33.85,44.26 -44.46,71.7 -10.59,27.42 -15.88,56.73 -15.88,87.76zm-220.16 0.76c0,-40.1 5.1,-78.5 15.3,-115.37 10.23,-37.07 24.79,-71.7 43.89,-104.03 18.91,-32.35 41.61,-61.67 67.9,-88.33 26.29,-26.48 55.62,-48.99 87.77,-67.72 32.33,-18.73 66.76,-33.29 103.83,-43.7 36.89,-10.41 75.47,-15.7 115.77,-15.7 39.71,0 78.1,5.29 115.37,15.7 37.07,10.41 71.69,24.97 104.03,43.7 32.16,18.73 61.47,41.23 88.15,67.72 26.47,26.66 49.17,55.98 67.9,88.33 18.72,32.33 33.29,66.96 43.7,104.03 10.41,36.87 15.7,75.27 15.7,115.37 0,40.29 -5.29,78.7 -15.7,115.57 -10.41,36.89 -24.97,71.5 -43.7,103.47 -18.73,31.96 -41.43,61.09 -67.9,87.37 -26.68,26.29 -55.99,48.99 -88.15,67.91 -32.34,18.91 -66.96,33.47 -104.03,43.68 -37.27,10.22 -75.66,15.32 -115.37,15.32 -40.3,0 -78.88,-5.1 -115.77,-15.32 -37.07,-10.21 -71.5,-24.78 -103.83,-43.68 -32.16,-18.92 -61.49,-41.62 -87.77,-67.91 -26.29,-26.29 -48.99,-55.41 -67.9,-87.37 -19.11,-31.98 -33.67,-66.58 -43.89,-103.47 -10.21,-36.87 -15.3,-75.28 -15.3,-115.57zm934.05 -396.26c0,-7.94 2.09,-14.18 6.25,-18.91 4.16,-4.73 10.41,-7.19 18.73,-7.19l362.97 0c26.11,0 50.7,3.6 73.76,10.78 23.09,7.2 44.28,17.22 63.56,29.89 19.3,12.67 36.89,27.8 52.39,45.39 15.52,17.79 28.56,36.71 39.34,57.32 10.78,20.42 19.11,41.79 24.79,64.5 5.68,22.5 8.5,45.39 8.5,68.47 0,34.05 -6.05,67.52 -18.34,100.05 -12.3,32.54 -29.89,61.67 -52.57,87.02 -22.71,25.35 -49.95,45.96 -81.73,61.66 -31.78,15.7 -66.95,23.82 -105.54,24.2l-171.93 0 0 269.54c0,16.26 -8.71,24.4 -26.11,24.4l-169.1 0c-7.57,0 -13.61,-2.09 -18.15,-6.05 -4.55,-3.98 -6.82,-10.03 -6.82,-18.35l0 -792.72zm427.86 249.11c0,-11.35 -1.89,-22.7 -5.87,-34.05 -3.98,-11.34 -9.83,-21.57 -17.4,-30.45 -7.58,-8.89 -16.65,-16.08 -27.44,-21.76 -10.78,-5.68 -23.06,-8.5 -36.69,-8.5l-120.29 0 0 189.51 120.29 0c13.63,0 25.91,-2.83 36.89,-8.32 10.96,-5.49 20.24,-12.47 27.62,-21.19 7.37,-8.69 13.04,-18.72 17.02,-30.06 3.97,-11.35 5.87,-23.09 5.87,-35.18zm-442.46 764.81l664.9 0 0 24.87 -664.9 0 0 -24.87zm-2246.25 0l664.91 0 0 24.87 -664.91 0 0 -24.87zm870.39 94.55c-2.25,2.3 -4.72,4.72 -7.43,7.31 -2.71,2.59 -5.71,5.01 -8.96,7.26 -3.26,2.28 -6.76,4.13 -10.51,5.58 -3.75,1.47 -7.81,2.22 -12.15,2.22 -11.35,0 -21.78,-2.14 -31.34,-6.38 -9.55,-4.27 -17.77,-10.1 -24.66,-17.49 -6.88,-7.39 -12.26,-16.1 -16.15,-26.12 -3.87,-10.01 -5.84,-20.78 -5.84,-32.33 0,-11.6 1.97,-22.37 5.84,-32.38 3.89,-9.97 9.27,-18.65 16.15,-26.03 6.88,-7.39 15.11,-13.19 24.66,-17.41 9.56,-4.2 19.99,-6.33 31.34,-6.33 4.58,0 8.8,0.66 12.6,1.99 3.8,1.35 7.26,3.06 10.39,5.18 3.13,2.09 6.01,4.43 8.64,7.09 2.64,2.63 5.1,5.17 7.43,7.73l0 -57.2c0,-2.67 0.83,-4.93 2.46,-6.76 1.62,-1.84 4.04,-2.75 7.31,-2.75l28.16 0c1.08,0 2.25,0.2 3.47,0.67 1.21,0.45 2.28,1.12 3.29,1.95 1,0.85 1.83,1.84 2.45,3.01 0.64,1.16 0.92,2.46 0.92,3.89l0 187.1c0,6.41 -3.37,9.63 -10.13,9.63l-24.53 0c-1.68,0 -2.97,-0.21 -3.89,-0.64 -0.92,-0.41 -1.67,-1 -2.3,-1.78 -0.62,-0.8 -1.21,-1.8 -1.71,-3.01 -0.5,-1.21 -1.11,-2.63 -1.88,-4.2l-3.63 -9.78zm-71.98 -59.95c0,5.5 0.88,10.68 2.59,15.43 1.72,4.81 4.14,8.98 7.31,12.45 3.18,3.49 7.02,6.29 11.48,8.33 4.46,2.04 9.39,3.05 14.81,3.05 5.34,0 10.39,-0.97 15.11,-2.88 4.72,-1.93 8.8,-4.54 12.31,-7.93 3.5,-3.37 6.34,-7.34 8.48,-11.93 2.12,-4.59 3.29,-9.52 3.53,-14.77l0 -1.75c0,-5.31 -1,-10.39 -2.99,-15.24 -2.01,-4.84 -4.77,-9.1 -8.31,-12.73 -3.55,-3.66 -7.73,-6.57 -12.52,-8.71 -4.79,-2.13 -10.01,-3.18 -15.61,-3.18 -5.42,0 -10.34,1.05 -14.81,3.18 -4.46,2.14 -8.3,5.05 -11.48,8.71 -3.16,3.63 -5.58,7.9 -7.31,12.73 -1.71,4.84 -2.59,9.92 -2.59,15.24zm272.91 60.29c-7.35,6.76 -15.61,12.02 -24.79,15.82 -9.18,3.8 -18.91,5.71 -29.16,5.71 -11.43,0 -22.25,-2.09 -32.43,-6.26 -10.18,-4.18 -19.11,-9.99 -26.79,-17.37 -7.67,-7.38 -13.76,-16.07 -18.27,-26.08 -4.51,-10.01 -6.76,-20.9 -6.76,-32.67 0,-7.35 0.92,-14.47 2.71,-21.37 1.8,-6.88 4.34,-13.31 7.64,-19.32 3.29,-6.01 7.31,-11.56 12.02,-16.61 4.71,-5.05 9.97,-9.35 15.81,-12.93 5.84,-3.58 12.19,-6.38 19.03,-8.38 6.85,-2.01 14.07,-3.01 21.66,-3.01 6.93,0 13.64,0.92 20.15,2.75 6.52,1.83 12.65,4.42 18.36,7.76 5.72,3.34 10.94,7.35 15.69,12.02 4.77,4.67 8.85,9.76 12.28,15.3 3.42,5.55 6.08,11.48 7.96,17.77 1.89,6.31 2.8,12.81 2.8,19.5 0,4.33 -0.05,7.88 -0.17,10.64 -0.12,2.75 -0.79,4.93 -1.95,6.55 -1.18,1.63 -3.1,2.75 -5.81,3.39 -2.71,0.62 -6.72,0.95 -11.98,0.95l-90.11 0c0.83,5.34 2.54,9.8 5.08,13.4 2.54,3.58 5.48,6.41 8.8,8.54 3.34,2.13 6.88,3.67 10.65,4.59 3.75,0.91 7.31,1.38 10.64,1.38 3.01,0 6.09,-0.33 9.27,-0.97 3.16,-0.62 6.25,-1.45 9.21,-2.49 2.97,-1.04 5.67,-2.25 8.14,-3.63 2.46,-1.37 4.43,-2.8 5.92,-4.31 1.33,-1.08 2.5,-1.91 3.47,-2.45 0.95,-0.54 1.97,-0.8 3.04,-0.8 1.09,0 2.22,0.38 3.34,1.14 1.12,0.74 2.37,1.83 3.8,3.25l13.27 15.02c0.92,1.09 1.51,2.04 1.75,2.92 0.26,0.88 0.38,1.8 0.38,2.71 0,1.68 -0.45,3.1 -1.37,4.31 -0.92,1.21 -2,2.28 -3.25,3.21zm-60.21 -104.27c-3.26,0 -6.38,0.64 -9.43,1.92 -3.05,1.3 -5.92,3.04 -8.61,5.22 -2.66,2.17 -5.05,4.63 -7.17,7.38 -2.13,2.75 -3.89,5.55 -5.22,8.39l63.96 0c-1.75,-3.26 -3.63,-6.26 -5.67,-9.01 -2.04,-2.75 -4.38,-5.17 -7.01,-7.26 -2.62,-2.09 -5.63,-3.72 -9.02,-4.89 -3.37,-1.16 -7.34,-1.75 -11.84,-1.75zm114.43 73.86c2.25,2.25 4.71,4.13 7.34,5.67 2.63,1.54 5.13,2.8 7.55,3.75 2.42,0.97 4.56,1.68 6.38,2.09 1.84,0.43 3.1,0.64 3.77,0.64 1.58,0 3.63,-0.09 6.09,-0.21 2.45,-0.12 4.8,-0.5 7.05,-1.14 2.25,-0.62 4.2,-1.62 5.84,-3.04 1.63,-1.42 2.42,-3.42 2.42,-6.01 0,-2.34 -0.46,-4.22 -1.38,-5.6 -0.92,-1.37 -2.25,-2.54 -4.01,-3.5 -1.75,-0.95 -3.87,-1.79 -6.43,-2.54 -2.54,-0.74 -5.42,-1.62 -8.59,-2.63 -10.01,-2.66 -18.27,-5.88 -24.79,-9.63 -6.51,-3.75 -11.63,-7.97 -15.43,-12.6 -3.8,-4.63 -6.48,-9.59 -7.97,-14.94 -1.51,-5.34 -2.25,-10.96 -2.25,-16.89 0,-6.93 1.37,-13.22 4.13,-18.91 2.75,-5.67 6.67,-10.54 11.77,-14.6 5.08,-4.06 11.17,-7.18 18.27,-9.39 7.09,-2.21 14.98,-3.3 23.66,-3.3 5.26,0 10.18,0.43 14.78,1.31 4.58,0.87 8.97,2.25 13.14,4.13 4.17,1.88 8.26,4.29 12.22,7.26 3.96,2.97 7.88,6.51 11.81,10.6 1.42,1.67 2.17,3.21 2.21,4.67 0.04,1.45 -0.92,3.04 -2.84,4.71 -3.26,2.67 -6.34,5.31 -9.3,7.89 -2.97,2.59 -6.05,5.46 -9.21,8.64 -1.01,0.83 -2.01,1.33 -3.01,1.54 -1,0.21 -1.96,0.21 -2.87,-0.04 -0.92,-0.24 -1.8,-0.67 -2.63,-1.26 -0.84,-0.58 -1.59,-1.29 -2.25,-2.12 -2.92,-3.27 -6.27,-5.47 -10.02,-6.59 -3.76,-1.13 -7.26,-1.68 -10.51,-1.68 -4.1,0 -7.35,0.71 -9.77,2.13 -2.42,1.42 -3.54,3.58 -3.37,6.51 0.17,2.17 1,3.84 2.45,5.05 1.47,1.21 3.27,2.2 5.39,2.96 2.13,0.76 4.39,1.34 6.76,1.8 2.37,0.46 4.55,1 6.55,1.59 7.52,2.42 14.4,5.03 20.66,7.88 6.27,2.84 11.68,6.3 16.28,10.43 4.58,4.13 8.17,9.09 10.72,14.86 2.54,5.75 3.8,12.77 3.8,21.02 0,8.26 -1.63,15.65 -4.93,22.16 -3.3,6.5 -7.83,11.98 -13.6,16.39 -5.76,4.43 -12.57,7.81 -20.45,10.13 -7.87,2.35 -16.39,3.51 -25.48,3.51 -5.19,0 -10.44,-0.46 -15.77,-1.38 -5.34,-0.92 -10.51,-2.41 -15.52,-4.46 -5.02,-2.04 -9.77,-4.67 -14.28,-7.88 -4.51,-3.22 -8.52,-7.09 -12.01,-11.69 -0.92,-1.16 -1.59,-2.42 -2.06,-3.7 -0.45,-1.3 -0.66,-2.56 -0.62,-3.8 0.05,-1.26 0.29,-2.42 0.76,-3.47 0.46,-1.04 1.17,-1.92 2.17,-2.67l16.15 -16.16c2,-1.66 3.8,-2.25 5.34,-1.74 1.54,0.5 3.5,1.91 5.92,4.25zm219.57 30.08c-2.25,2.3 -4.72,4.72 -7.42,7.31 -2.71,2.59 -5.72,5.01 -8.97,7.26 -3.25,2.28 -6.76,4.13 -10.51,5.58 -3.75,1.47 -7.81,2.22 -12.15,2.22 -11.34,0 -21.78,-2.14 -31.34,-6.38 -9.55,-4.27 -17.77,-10.1 -24.65,-17.49 -6.88,-7.39 -12.27,-16.1 -16.16,-26.12 -3.87,-10.01 -5.84,-20.78 -5.84,-32.33 0,-11.6 1.97,-22.37 5.84,-32.38 3.89,-9.97 9.27,-18.65 16.16,-26.03 6.88,-7.39 15.11,-13.19 24.65,-17.41 9.56,-4.2 20,-6.33 31.34,-6.33 4.58,0 8.8,0.66 12.6,1.99 3.8,1.35 7.26,3.06 10.39,5.18 3.13,2.09 6.01,4.43 8.64,7.09 2.63,2.63 5.1,5.17 7.42,7.73l0 -57.2c0,-2.67 0.84,-4.93 2.46,-6.76 1.62,-1.84 4.04,-2.75 7.31,-2.75l28.17 0c1.07,0 2.25,0.2 3.46,0.67 1.21,0.45 2.28,1.12 3.3,1.95 1,0.85 1.83,1.84 2.45,3.01 0.64,1.16 0.92,2.46 0.92,3.89l0 187.1c0,6.41 -3.37,9.63 -10.13,9.63l-24.53 0c-1.68,0 -2.97,-0.21 -3.89,-0.64 -0.92,-0.41 -1.67,-1 -2.3,-1.78 -0.63,-0.8 -1.21,-1.8 -1.71,-3.01 -0.5,-1.21 -1.12,-2.63 -1.88,-4.2l-3.63 -9.78zm-71.98 -59.95c0,5.5 0.88,10.68 2.59,15.43 1.73,4.81 4.15,8.98 7.31,12.45 3.18,3.49 7.02,6.29 11.48,8.33 4.46,2.04 9.39,3.05 14.8,3.05 5.34,0 10.39,-0.97 15.11,-2.88 4.72,-1.93 8.8,-4.54 12.31,-7.93 3.49,-3.37 6.33,-7.34 8.47,-11.93 2.12,-4.59 3.29,-9.52 3.53,-14.77l0 -1.75c0,-5.31 -1,-10.39 -2.99,-15.24 -2.01,-4.84 -4.77,-9.1 -8.31,-12.73 -3.55,-3.66 -7.73,-6.57 -12.52,-8.71 -4.8,-2.13 -10.02,-3.18 -15.61,-3.18 -5.41,0 -10.34,1.05 -14.8,3.18 -4.46,2.14 -8.31,5.05 -11.48,8.71 -3.16,3.63 -5.58,7.9 -7.31,12.73 -1.71,4.84 -2.59,9.92 -2.59,15.24zm272.91 60.29c-7.35,6.76 -15.61,12.02 -24.79,15.82 -9.18,3.8 -18.91,5.71 -29.17,5.71 -11.43,0 -22.25,-2.09 -32.43,-6.26 -10.18,-4.18 -19.11,-9.99 -26.79,-17.37 -7.66,-7.38 -13.76,-16.07 -18.27,-26.08 -4.51,-10.01 -6.76,-20.9 -6.76,-32.67 0,-7.35 0.92,-14.47 2.71,-21.37 1.8,-6.88 4.35,-13.31 7.64,-19.32 3.3,-6.01 7.31,-11.56 12.02,-16.61 4.71,-5.05 9.97,-9.35 15.81,-12.93 5.84,-3.58 12.2,-6.38 19.03,-8.38 6.85,-2.01 14.07,-3.01 21.66,-3.01 6.93,0 13.64,0.92 20.15,2.75 6.52,1.83 12.64,4.42 18.36,7.76 5.71,3.34 10.93,7.35 15.68,12.02 4.77,4.67 8.85,9.76 12.28,15.3 3.42,5.55 6.08,11.48 7.96,17.77 1.89,6.31 2.8,12.81 2.8,19.5 0,4.33 -0.04,7.88 -0.17,10.64 -0.12,2.75 -0.79,4.93 -1.95,6.55 -1.18,1.63 -3.1,2.75 -5.81,3.39 -2.71,0.62 -6.72,0.95 -11.98,0.95l-90.11 0c0.83,5.34 2.54,9.8 5.08,13.4 2.54,3.58 5.47,6.41 8.8,8.54 3.34,2.13 6.88,3.67 10.64,4.59 3.75,0.91 7.31,1.38 10.64,1.38 3.01,0 6.1,-0.33 9.27,-0.97 3.16,-0.62 6.25,-1.45 9.21,-2.49 2.97,-1.04 5.68,-2.25 8.14,-3.63 2.46,-1.37 4.43,-2.8 5.93,-4.31 1.33,-1.08 2.49,-1.91 3.46,-2.45 0.95,-0.54 1.97,-0.8 3.04,-0.8 1.09,0 2.22,0.38 3.34,1.14 1.12,0.74 2.38,1.83 3.8,3.25l13.27 15.02c0.92,1.09 1.51,2.04 1.75,2.92 0.26,0.88 0.38,1.8 0.38,2.71 0,1.68 -0.45,3.1 -1.37,4.31 -0.92,1.21 -1.99,2.28 -3.25,3.21zm-60.21 -104.27c-3.26,0 -6.38,0.64 -9.42,1.92 -3.06,1.3 -5.93,3.04 -8.61,5.22 -2.67,2.17 -5.05,4.63 -7.18,7.38 -2.13,2.75 -3.88,5.55 -5.21,8.39l63.96 0c-1.76,-3.26 -3.63,-6.26 -5.68,-9.01 -2.04,-2.75 -4.38,-5.17 -7.01,-7.26 -2.62,-2.09 -5.63,-3.72 -9.01,-4.89 -3.37,-1.16 -7.34,-1.75 -11.84,-1.75zm160.87 -43.68c0,-3.18 1.83,-5.76 5.5,-7.76l17.03 -8.39c2.17,-1.42 4.3,-2.25 6.38,-2.49 2.09,-0.26 4.8,-0.38 8.05,-0.38l28.37 0c1.67,0 3.09,0.5 4.25,1.5 1.18,1 1.75,2.34 1.75,4.01l0 175c0,3.68 -1.95,5.5 -5.88,5.5l-35.67 0c-2.09,0 -3.51,-0.59 -4.31,-1.7 -0.79,-1.14 -1.21,-2.3 -1.21,-3.56l0 -138.01 -17.14 8.51c-0.42,0.17 -0.85,0.2 -1.26,0.17 -0.42,-0.04 -0.71,0.12 -0.88,0.45 -1.58,0 -2.79,-0.59 -3.67,-1.75 -0.88,-1.16 -1.33,-2.54 -1.33,-4.13l0 -26.96zm216.82 34.67c0.12,1.42 0.24,2.8 0.33,4.13 0.12,1.34 0.17,2.67 0.17,4.01 -0.09,5.51 -0.76,10.85 -2.04,16.07 -1.3,5.22 -3.3,10.23 -5.97,14.99l-49.32 87.62c-0.91,1.76 -2,3.09 -3.25,4.04 -1.24,0.97 -2.92,1.46 -5.01,1.46l-35.54 0c-3.26,0 -4.89,-0.92 -4.89,-2.75 0,-0.33 0.09,-0.92 0.26,-1.75 0.17,-0.84 0.33,-1.34 0.5,-1.5 2.92,-5.1 5.5,-9.61 7.76,-13.52 2.25,-3.92 4.25,-7.48 6.01,-10.6 1.75,-3.13 3.34,-5.96 4.76,-8.55 1.41,-2.58 2.83,-5.1 4.21,-7.52 1.37,-2.42 2.75,-4.92 4.17,-7.47 1.42,-2.54 3.01,-5.29 4.77,-8.3 -8.11,-0.83 -15.66,-3.04 -22.66,-6.62 -7.02,-3.58 -13.12,-8.18 -18.29,-13.78 -5.17,-5.58 -9.21,-12.01 -12.18,-19.27 -2.97,-7.26 -4.46,-14.98 -4.46,-23.16 0,-8.85 1.71,-17.15 5.13,-24.86 3.42,-7.73 8.09,-14.44 14.02,-20.16 5.96,-5.71 12.88,-10.23 20.86,-13.52 8.02,-3.3 16.53,-4.92 25.67,-4.92 8.43,0 16.35,1.33 23.87,4.04 7.45,2.72 14.1,6.57 19.9,11.53 5.79,4.96 10.56,10.89 14.26,17.72 3.72,6.85 6.05,14.4 6.97,22.66zm-44.06 7.14c0,-3.34 -0.51,-6.43 -1.51,-9.26 -0.95,-2.84 -2.37,-5.31 -4.2,-7.4 -1.8,-2.09 -4.01,-3.7 -6.64,-4.87 -2.58,-1.18 -5.5,-1.75 -8.72,-1.75 -3.26,0 -6.13,0.58 -8.72,1.75 -2.54,1.17 -4.76,2.79 -6.54,4.87 -1.85,2.09 -3.26,4.56 -4.22,7.4 -1,2.83 -1.5,5.91 -1.5,9.26 0,3.25 0.5,6.31 1.5,9.14 0.97,2.84 2.37,5.29 4.22,7.42 1.78,2.14 4.01,3.84 6.54,5.1 2.59,1.25 5.46,1.88 8.72,1.88 3.22,0 6.14,-0.63 8.72,-1.88 2.64,-1.26 4.84,-2.97 6.64,-5.1 1.83,-2.13 3.25,-4.58 4.2,-7.42 1,-2.83 1.51,-5.89 1.51,-9.14zm198.67 -60.83c2.33,0 4.08,0.71 5.2,2.13 1.14,1.41 1.68,3.04 1.68,4.87 0,2.18 -0.76,4.3 -2.25,6.38l-89.14 168.37c-0.66,1.33 -1.62,2.38 -2.87,3.13 -1.26,0.74 -2.59,1.11 -4.01,1.11l-44.56 0c-3.01,0 -4.51,-1.08 -4.51,-3.25 0,-0.83 0.17,-1.58 0.5,-2.25l70.97 -136.19 -67.72 0c-1.67,0 -3.04,-0.47 -4.18,-1.37 -1.11,-0.92 -1.7,-2.39 -1.7,-4.39l0 -32.79c0,-1.68 0.59,-3.06 1.75,-4.15 1.16,-1.07 2.54,-1.62 4.13,-1.62l136.7 0zm77.45 144.7l56.24 0c1.68,0 3.05,0.46 4.13,1.38 1.09,0.92 1.63,2.33 1.63,4.25l0 29.3c0,1.59 -0.54,3.05 -1.67,4.39 -1.13,1.33 -2.56,1.99 -4.22,1.99l-115.16 0c-1.58,0 -3.04,-0.62 -4.38,-1.92 -1.33,-1.28 -2,-2.8 -2,-4.46l0 -18.65c0,-1.13 0.26,-2.25 0.76,-3.34l75.97 -90.7c2.25,-2.59 3.68,-4.8 4.27,-6.59 0.58,-1.83 0.87,-3.89 0.87,-6.14 0,-2.83 -0.53,-5.34 -1.62,-7.5 -1.09,-2.18 -2.51,-4.01 -4.25,-5.48 -1.75,-1.45 -3.72,-2.54 -5.88,-3.29 -2.18,-0.74 -4.38,-1.12 -6.64,-1.12 -2.51,0 -4.84,0.5 -7.05,1.5 -2.22,1.01 -4.17,2.35 -5.85,4.06 -1.67,1.71 -3,3.67 -3.99,5.88 -1.02,2.21 -1.52,4.51 -1.52,6.83l0 6.88c0,1.34 -0.54,2.67 -1.62,4.01 -1.09,1.35 -2.63,2.01 -4.63,2.01l-32.05 0c-2.09,0 -3.5,-0.59 -4.3,-1.71 -0.8,-1.13 -1.21,-2.3 -1.21,-3.55l0 -6.5c0,-8.78 1.62,-16.82 4.88,-24.13 3.25,-7.29 7.67,-13.6 13.27,-18.89 5.58,-5.26 12.1,-9.35 19.53,-12.31 7.42,-2.92 15.35,-4.38 23.77,-4.38 8.61,0 16.82,1.33 24.67,4.06 7.84,2.71 14.77,6.55 20.74,11.51 5.96,4.96 10.72,10.98 14.26,18.03 3.55,7.05 5.31,14.93 5.31,23.7 0,4.51 -0.54,8.71 -1.63,12.67 -1.09,3.96 -2.51,7.68 -4.3,11.19 -1.8,3.49 -3.84,6.79 -6.14,9.84 -2.28,3.04 -4.71,5.93 -7.22,8.69l-42.97 48.52zm-1127.05 -2206.35l974.09 0c48.88,0 95.22,10.78 136.84,30.08 17.55,8.17 33.69,17.55 49.61,28.55 16.87,11.81 32.57,25.17 46.9,39.88l640.87 640.87 -2722.54 0 640.87 -640.87c14.33,-14.72 30.03,-28.06 46.9,-39.88 15.92,-10.99 32.06,-20.37 49.61,-28.55 41.59,-19.3 87.95,-30.08 136.84,-30.08zm-100.19 -308.89l1174.46 0c58.94,0 114.82,13 165,36.26 21.17,9.86 40.62,21.16 59.82,34.43 20.35,14.23 39.28,30.34 56.56,48.07l822.71 822.72c17.97,17.45 34.27,36.63 48.64,57.23 11.45,16.33 20.97,32.94 29.99,50.7 25.89,52.38 40.46,111.37 40.46,173.77l0 1174.47c0,58.94 -13,114.82 -36.27,165 -9.86,21.17 -21.15,40.62 -34.42,59.82 -14.23,20.35 -30.34,39.28 -48.07,56.55l-822.72 822.71c-17.46,17.97 -36.63,34.27 -57.23,48.65 -16.32,11.45 -32.94,20.97 -50.69,29.98 -52.39,25.9 -111.37,40.47 -173.78,40.47l-1174.46 0c-62.4,0 -121.38,-14.57 -173.78,-40.47 -17.76,-9.01 -34.37,-18.54 -50.7,-29.98 -20.6,-14.38 -39.77,-30.68 -57.23,-48.65l-822.72 -822.71c-17.73,-17.27 -33.85,-36.2 -48.07,-56.55 -13.27,-19.2 -24.56,-38.65 -34.42,-59.82 -23.27,-50.15 -36.27,-106.04 -36.27,-165l0 -1174.47c0,-62.39 14.57,-121.38 40.46,-173.77 9.02,-17.76 18.54,-34.37 29.99,-50.7 14.38,-20.6 30.68,-39.78 48.64,-57.23l822.71 -822.72c17.28,-17.74 36.21,-33.85 56.56,-48.07 19.2,-13.27 38.65,-24.56 59.82,-34.43 50.14,-23.26 106.04,-36.26 165,-36.26zm32.71 100.87l1109.03 0c55.66,0 108.43,12.28 155.81,34.24 19.99,9.31 38.36,19.98 56.49,32.51 19.22,13.43 37.09,28.65 53.4,45.39l776.87 776.88c16.97,16.49 32.36,34.58 45.94,54.04 10.81,15.42 19.8,31.11 28.32,47.87 24.45,49.47 38.21,105.16 38.21,164.09l0 1109.03c0,55.66 -12.28,108.43 -34.24,155.81 -9.31,19.98 -19.98,38.35 -32.51,56.49 -13.43,19.22 -28.65,37.09 -45.39,53.4l-776.88 776.87c-16.49,16.96 -34.59,32.36 -54.05,45.94 -15.42,10.81 -31.1,19.8 -47.87,28.31 -49.47,24.45 -105.17,38.22 -164.1,38.22l-1109.03 0c-58.91,0 -114.62,-13.76 -164.09,-38.22 -16.76,-8.51 -32.45,-17.5 -47.87,-28.31 -19.46,-13.58 -37.55,-28.97 -54.04,-45.94l-776.88 -776.87c-16.74,-16.31 -31.96,-34.19 -45.39,-53.4 -12.53,-18.13 -23.19,-36.5 -32.51,-56.49 -21.97,-47.35 -34.24,-100.14 -34.24,-155.81l0 -1109.03c0,-58.91 13.76,-114.62 38.21,-164.09 8.52,-16.76 17.51,-32.46 28.32,-47.87 13.58,-19.46 28.97,-37.55 45.94,-54.04l776.87 -776.88c16.31,-16.75 34.19,-31.96 53.41,-45.39 18.13,-12.53 36.5,-23.19 56.48,-32.51 47.35,-21.97 100.14,-34.24 155.81,-34.24z"/>
   <path class="fil1" d="M4615.3 1657.96c0.38,-2.27 1.71,-4.73 3.79,-7.39 2.09,-2.65 4.55,-5.11 7.58,-7.39 3.03,-2.28 6.25,-4.17 9.66,-5.5 3.4,-1.32 6.63,-1.89 9.66,-1.89l145.51 0c6.44,0 11.94,1.89 16.49,5.88 4.55,3.97 7.96,7.58 10.23,10.61l14.21 32.4 298.42 770.22c3.03,7.58 2.46,13.64 -1.71,18.38 -4.17,4.74 -11.37,7.2 -21.61,7.2l-163.14 0c-8.71,0 -15.34,-1.71 -20.08,-4.93 -4.74,-3.21 -8.52,-8.52 -11.18,-16.11 -7.58,-19.32 -14.96,-38.64 -22.16,-57.79 -7.21,-19.14 -14.41,-38.28 -21.61,-57.61l-301.83 0c-7.2,19.33 -14.4,38.47 -21.79,57.61 -7.39,19.14 -14.78,38.47 -21.98,57.79 -4.93,14.02 -14.59,21.04 -28.99,21.04l-167.69 0c-7.2,0 -13.08,-1.89 -17.8,-5.68 -4.74,-3.8 -5.69,-9.47 -2.66,-17.05l308.66 -799.79zm103.45 243.29c-7.19,19.33 -14.39,40.17 -21.78,62.53 -7.4,22.35 -14.78,44.91 -21.98,67.64 -7.19,22.73 -14.4,45.09 -21.79,67.26 -7.4,22.16 -14.78,43.01 -21.98,62.34l174.51 0 -86.98 -259.77zm645.87 242.53c0,28.04 3.97,51.91 11.74,71.43 7.77,19.52 18,35.44 30.69,47.75 12.7,12.31 27.48,21.41 44.34,27.1 16.86,5.68 34.29,8.52 52.49,8.52 18.94,0 36.95,-3.41 53.81,-10.05 16.86,-6.63 31.64,-16.48 44.34,-29.56 12.7,-13.07 22.73,-29.36 30.12,-48.69 7.39,-19.32 10.99,-41.49 10.99,-66.5l0 -482.97c0,-6.82 2.46,-12.7 7.21,-17.62 4.74,-4.93 10.99,-7.39 18.94,-7.39l166.55 0c8.72,0 15.54,2.65 20.47,7.77 4.93,5.11 7.39,10.8 7.39,17.24l0 479.94c0,66.32 -9.86,122.03 -29.37,167.31 -19.51,45.09 -45.66,81.47 -78.63,108.95 -33.16,27.47 -71.24,47.17 -114.64,59.11 -43.58,11.94 -89.06,18 -136.8,18 -47.94,0 -93.6,-6.25 -137.18,-18.57 -43.58,-12.31 -81.86,-32.4 -115.01,-60.25 -32.97,-27.85 -59.12,-64.42 -78.64,-109.33 -19.51,-44.9 -29.36,-100.04 -29.36,-165.22l0 -479.94c0,-6.44 2.27,-12.13 6.63,-17.24 4.36,-5.12 9.66,-7.77 16.1,-7.77l170.53 0c5.68,0 11.74,2.46 18,7.2 6.25,4.74 9.29,10.61 9.29,17.81l0 482.97zm520.81 -482.97c0,-7.58 2.65,-13.64 7.77,-18.19 5.11,-4.54 11.36,-6.82 18.94,-6.82l612.2 0c6.82,0 12.88,2.08 18.19,6.25 5.31,4.17 8.34,10.42 9.09,18.76l0 141.54c0,6.82 -2.28,13.27 -7.01,19.52 -4.74,6.25 -11.56,9.47 -20.28,9.47l-196.1 0 0 622.43c0,6.82 -2.47,12.88 -7.4,18.37 -4.93,5.5 -11.37,8.34 -19.32,8.34l-167.12 0c-6.44,0 -12.51,-2.65 -18.19,-7.77 -5.69,-5.11 -8.52,-11.36 -8.52,-18.94l0 -622.43 -195.54 0c-7.58,0 -13.83,-2.46 -18.94,-7.39 -5.12,-4.93 -7.77,-12.12 -7.77,-21.6l0 -141.54zm827.76 397.33c0,31.46 5.31,60.82 15.92,88.11 10.61,27.28 25.39,50.97 44.53,71.24 19.14,20.28 41.68,36.19 67.83,47.75 26.15,11.56 54.95,17.43 86.4,17.43 31.27,0 60.26,-5.87 86.41,-17.43 26.34,-11.56 49.07,-27.47 68.21,-47.75 19.13,-20.27 33.91,-43.96 44.52,-71.24 10.61,-27.29 15.91,-56.65 15.91,-88.11 0,-31.07 -5.3,-60.45 -15.91,-87.92 -10.61,-27.48 -25.39,-51.35 -44.52,-71.81 -19.14,-20.46 -41.88,-36.56 -68.21,-48.31 -26.14,-11.76 -55.14,-17.63 -86.41,-17.63 -31.45,0 -60.25,5.87 -86.4,17.63 -26.15,11.74 -48.69,27.85 -67.83,48.31 -19.14,20.47 -33.92,44.34 -44.53,71.81 -10.61,27.47 -15.92,56.84 -15.92,87.92zm-220.55 0.76c0,-40.17 5.11,-78.63 15.35,-115.58 10.23,-37.14 24.82,-71.81 43.96,-104.22 18.94,-32.4 41.68,-61.76 68.03,-88.48 26.33,-26.53 55.7,-49.07 87.91,-67.83 32.4,-18.76 66.89,-33.35 104.03,-43.77 36.94,-10.42 75.6,-15.72 115.95,-15.72 39.79,0 78.25,5.31 115.58,15.72 37.14,10.42 71.81,25.01 104.21,43.77 32.21,18.76 61.57,41.31 88.29,67.83 26.53,26.72 49.26,56.08 68.02,88.48 18.76,32.41 33.35,67.08 43.77,104.22 10.43,36.95 15.72,75.41 15.72,115.58 0,40.36 -5.3,78.83 -15.72,115.78 -10.42,36.95 -25.01,71.62 -43.77,103.64 -18.76,32.03 -41.49,61.2 -68.02,87.54 -26.72,26.34 -56.08,49.07 -88.29,68.03 -32.4,18.94 -67.07,33.54 -104.21,43.77 -37.33,10.23 -75.79,15.35 -115.58,15.35 -40.36,0 -79.01,-5.12 -115.95,-15.35 -37.14,-10.23 -71.62,-24.83 -104.03,-43.77 -32.21,-18.95 -61.58,-41.68 -87.91,-68.03 -26.34,-26.34 -49.08,-55.51 -68.03,-87.54 -19.14,-32.01 -33.73,-66.69 -43.96,-103.64 -10.23,-36.95 -15.35,-75.41 -15.35,-115.78zm911.9 -396.95c0,-7.96 2.27,-14.21 6.62,-18.95 4.36,-4.74 10.43,-7.2 18.39,-7.2l564.45 0c8.33,0 14.78,2.46 19.32,7.39 4.55,4.92 6.83,11.56 6.83,19.9l0 140.97c0,6.44 -2.28,12.5 -6.83,18.38 -4.54,5.88 -11.17,8.9 -19.89,8.9l-368.34 0 0 140.97 284.2 0c7.21,0 13.27,1.7 18,5.11 4.74,3.41 7.01,9.09 7.01,17.05l0 123.35c0,5.31 -2.08,10.42 -6.25,15.34 -4.17,4.93 -10.23,7.4 -18.19,7.4l-284.77 0 0 144.38 381.98 0c17.06,0 25.58,8.72 25.58,26.14l0 143.25c0,3.78 -1.51,7.2 -4.54,10.23 -1.52,10.61 -9.29,15.92 -23.31,15.92l-575.24 0c-7.58,0 -13.65,-2.08 -18.19,-6.06 -4.55,-3.99 -6.82,-10.05 -6.82,-18.38l0 -794.09zm776.6 545.69c6.44,5.31 14.78,12.31 24.82,21.22 10.05,8.91 21.41,17.8 34.3,26.53 19.33,12.88 38.46,22.92 57.41,30.12 18.95,7.2 38.85,10.8 59.69,10.8 19.33,0 35.62,-2.27 48.7,-6.63 13.07,-4.36 23.3,-10.04 30.87,-17.24 7.58,-7.21 13.08,-15.55 16.3,-25.02 3.23,-9.47 4.74,-19.52 4.74,-30.12 0,-11.74 -4.36,-22.36 -13.27,-31.64 -8.9,-9.28 -19.89,-17.43 -32.77,-24.63 -12.88,-7.21 -26.34,-13.45 -40.36,-18.57 -14.02,-5.12 -26.15,-9.29 -36.38,-12.7 -45.48,-15.91 -85.27,-33.16 -119.37,-51.54 -34.12,-18.37 -62.53,-38.84 -85.27,-61.39 -22.73,-22.55 -39.78,-47.37 -51.16,-74.47 -11.37,-27.09 -17.06,-57.22 -17.06,-90.57 0,-35.24 7.21,-67.26 21.41,-96.06 14.21,-28.79 34.48,-53.43 61.01,-73.89 26.34,-20.47 58.16,-36.38 95.3,-47.56 37.33,-11.18 78.82,-16.67 124.68,-16.67 34.48,0 67.64,3.79 99.28,11.56 31.64,7.77 62.72,20.27 93.41,37.32 12.88,7.58 25.2,15.35 36.76,23.49 11.56,8.15 21.61,16.11 30.32,23.69 8.72,7.58 15.73,14.78 20.84,21.61 5.13,6.82 7.58,12.69 7.58,17.62 0,4.92 -1.13,9.47 -3.6,13.64 -2.46,4.17 -6.25,8.91 -11.18,14.21l-86.98 92.66c-6.43,6.44 -12.88,9.66 -19.32,9.66 -5.31,0 -10.05,-1.52 -14.41,-4.56 -4.35,-3.03 -9.28,-6.82 -14.59,-11.36l-5.11 -4.55c-7.58,-6.44 -15.92,-13.07 -25.2,-19.9 -9.29,-6.82 -19.33,-13.07 -29.94,-18.57 -10.61,-5.49 -21.79,-10.04 -33.54,-13.64 -11.75,-3.6 -23.68,-5.3 -35.81,-5.3 -12.51,0 -24.26,1.13 -35.24,3.22 -10.99,2.08 -20.65,5.31 -28.99,9.85 -8.34,4.55 -14.97,10.62 -19.9,18 -4.92,7.39 -7.39,16.29 -7.39,26.91 0,10.8 2.65,19.9 7.96,27.67 5.31,7.76 13.27,14.96 23.87,21.59 10.62,6.63 23.88,13.08 39.61,18.94 15.72,5.88 33.91,12.13 54.75,18.95 40.17,13.26 77.31,27.28 111.23,41.88 33.92,14.59 63.1,31.83 87.72,51.92 24.63,19.9 43.96,43.58 57.79,71.43 13.84,27.67 20.66,61.2 20.66,100.8 0,41.69 -8.53,79.58 -25.58,113.5 -17.24,33.92 -40.55,62.91 -70.48,86.78 -29.75,24.06 -64.8,42.44 -104.97,55.51 -40.36,13.08 -83.56,19.71 -129.79,19.71 -43.58,0 -86.4,-7.77 -128.47,-23.5 -42.06,-15.54 -81.28,-36.56 -117.66,-62.9 -15.16,-10.99 -27.85,-21.79 -38.27,-32.59 -10.43,-10.61 -18.76,-19.14 -24.83,-25.57l-1.71 -1.89c-0.38,-0.77 -0.76,-1.14 -1.13,-1.34 -0.38,-0.19 -0.76,-0.56 -1.14,-0.94 -0.38,-0.76 -0.76,-1.14 -1.14,-1.32 -0.37,-0.19 -0.76,-0.57 -1.13,-0.95 -8.72,-9.47 -13.08,-17.05 -13.08,-22.73 0,-6.63 4.36,-13.83 13.08,-21.79l98.34 -93.79c7.96,-5.69 14.4,-8.52 19.33,-8.52 3.41,0 7.01,1.13 10.8,3.4 3.78,2.28 8.34,5.68 13.64,10.23zm1185.87 -510.45c6.44,3.79 11.18,8.72 14.21,14.78 3.03,6.07 2.46,13.27 -1.7,21.61l-96.06 136.42c-4.17,6.44 -8.53,10.05 -13.27,10.99 -4.74,0.95 -10.6,-0.57 -17.43,-4.73 -18.57,-14.03 -39.04,-24.82 -61.39,-32.4 -22.36,-7.58 -46.04,-11.37 -71.05,-11.37 -31.08,0 -59.69,5.87 -85.84,17.63 -26.14,11.74 -48.69,27.85 -67.64,48.31 -18.95,20.47 -33.73,44.34 -44.34,71.62 -10.6,27.29 -15.92,56.47 -15.92,87.54 0,31.07 5.31,60.06 15.92,87.16 10.6,27.1 25.39,50.78 44.34,71.06 18.94,20.28 41.49,36.38 67.64,48.13 26.15,11.74 54.76,17.63 85.84,17.63 25,0 48.88,-3.99 71.62,-11.76 22.74,-7.77 43.39,-18.56 61.96,-32.58 6.82,-4.17 12.51,-5.88 17.05,-5.12 4.55,0.76 9.09,4.17 13.64,10.23l97.2 140.02c4.17,8.53 4.74,15.54 1.71,21.22 -3.03,5.69 -7.77,10.43 -14.21,14.21 -35.62,23.87 -73.89,42.44 -115.01,55.51 -41.11,13.08 -84.51,19.71 -129.98,19.71 -40.17,0 -78.63,-5.12 -115.58,-15.35 -36.95,-10.23 -71.63,-24.83 -103.83,-43.77 -32.4,-18.95 -61.58,-41.68 -88.11,-68.03 -26.34,-26.34 -49.07,-55.51 -68.03,-87.54 -18.94,-32.01 -33.72,-66.69 -43.96,-103.64 -10.23,-36.95 -15.35,-75.41 -15.35,-115.78 0,-40.17 5.12,-78.63 15.35,-115.58 10.23,-37.14 25.01,-71.81 43.96,-104.22 18.95,-32.4 41.69,-61.76 68.03,-88.48 26.53,-26.53 55.71,-49.07 88.11,-67.83 32.2,-18.76 66.88,-33.35 103.83,-43.77 36.95,-10.42 75.41,-15.72 115.58,-15.72 45.47,0 88.49,6.26 128.84,18.94 40.36,12.7 78.25,31.08 113.87,54.95zm195.67 360.95c0,31.46 5.31,60.82 15.92,88.11 10.61,27.28 25.39,50.97 44.53,71.24 19.14,20.28 41.68,36.19 67.83,47.75 26.15,11.56 54.95,17.43 86.4,17.43 31.27,0 60.26,-5.87 86.41,-17.43 26.34,-11.56 49.07,-27.47 68.21,-47.75 19.13,-20.27 33.92,-43.96 44.52,-71.24 10.61,-27.29 15.92,-56.65 15.92,-88.11 0,-31.07 -5.31,-60.45 -15.92,-87.92 -10.6,-27.48 -25.39,-51.35 -44.52,-71.81 -19.14,-20.46 -41.88,-36.56 -68.21,-48.31 -26.14,-11.76 -55.14,-17.63 -86.41,-17.63 -31.45,0 -60.25,5.87 -86.4,17.63 -26.15,11.74 -48.69,27.85 -67.83,48.31 -19.14,20.47 -33.92,44.34 -44.53,71.81 -10.61,27.47 -15.92,56.84 -15.92,87.92zm-220.55 0.76c0,-40.17 5.11,-78.63 15.35,-115.58 10.23,-37.14 24.82,-71.81 43.96,-104.22 18.94,-32.4 41.68,-61.76 68.03,-88.48 26.33,-26.53 55.7,-49.07 87.91,-67.83 32.4,-18.76 66.89,-33.35 104.03,-43.77 36.94,-10.42 75.6,-15.72 115.95,-15.72 39.79,0 78.25,5.31 115.58,15.72 37.14,10.42 71.81,25.01 104.21,43.77 32.21,18.76 61.57,41.31 88.29,67.83 26.53,26.72 49.26,56.08 68.02,88.48 18.76,32.41 33.35,67.08 43.77,104.22 10.43,36.95 15.73,75.41 15.73,115.58 0,40.36 -5.31,78.83 -15.73,115.78 -10.42,36.95 -25.01,71.62 -43.77,103.64 -18.76,32.03 -41.49,61.2 -68.02,87.54 -26.72,26.34 -56.08,49.07 -88.29,68.03 -32.4,18.94 -67.07,33.54 -104.21,43.77 -37.33,10.23 -75.79,15.35 -115.58,15.35 -40.36,0 -79.01,-5.12 -115.95,-15.35 -37.14,-10.23 -71.62,-24.83 -104.03,-43.77 -32.21,-18.95 -61.58,-41.68 -87.91,-68.03 -26.34,-26.34 -49.08,-55.51 -68.03,-87.54 -19.14,-32.01 -33.73,-66.69 -43.96,-103.64 -10.23,-36.95 -15.35,-75.41 -15.35,-115.78zm891.43 -398.09c0,-6.82 2.28,-12.7 6.82,-17.62 4.55,-4.93 10.8,-7.39 18.76,-7.39l168.82 0c6.43,0 12.31,2.28 17.62,6.82 5.31,4.55 8.14,10.61 8.52,18.19l0 618.45 312.63 0c6.83,0 12.7,2.28 17.62,6.82 4.93,4.55 7.4,10.8 7.4,18.76l0 149.5c0,6.44 -2.09,12.31 -6.44,17.62 -4.36,5.31 -10.62,8.14 -18.57,8.52l-508.17 0c-16.67,0 -25.01,-8.34 -25.01,-25.01l0 -794.66zm868.69 -2.85c0.38,-2.27 1.7,-4.73 3.79,-7.39 2.09,-2.65 4.55,-5.11 7.58,-7.39 3.03,-2.28 6.25,-4.17 9.66,-5.5 3.41,-1.32 6.64,-1.89 9.66,-1.89l145.52 0c6.44,0 11.94,1.89 16.49,5.88 4.55,3.97 7.96,7.58 10.23,10.61l14.22 32.4 298.42 770.22c3.03,7.58 2.46,13.64 -1.7,18.38 -4.17,4.74 -11.37,7.2 -21.61,7.2l-163.14 0c-8.71,0 -15.35,-1.71 -20.08,-4.93 -4.74,-3.21 -8.52,-8.52 -11.18,-16.11 -7.58,-19.32 -14.96,-38.64 -22.17,-57.79 -7.2,-19.14 -14.4,-38.28 -21.6,-57.61l-301.83 0c-7.2,19.33 -14.41,38.47 -21.79,57.61 -7.39,19.14 -14.78,38.47 -21.98,57.79 -4.93,14.02 -14.59,21.04 -28.99,21.04l-167.69 0c-7.2,0 -13.08,-1.89 -17.81,-5.68 -4.74,-3.8 -5.69,-9.47 -2.66,-17.05l308.66 -799.79zm103.45 243.29c-7.19,19.33 -14.39,40.17 -21.79,62.53 -7.39,22.35 -14.78,44.91 -21.98,67.64 -7.19,22.73 -14.39,45.09 -21.78,67.26 -7.4,22.16 -14.78,43.01 -21.99,62.34l174.51 0 -86.98 -259.77zm500.92 306.38c6.45,5.31 14.79,12.31 24.83,21.22 10.05,8.91 21.41,17.8 34.3,26.53 19.33,12.88 38.46,22.92 57.41,30.12 18.95,7.2 38.84,10.8 59.69,10.8 19.33,0 35.62,-2.27 48.7,-6.63 13.08,-4.36 23.3,-10.04 30.88,-17.24 7.58,-7.21 13.08,-15.55 16.29,-25.02 3.23,-9.47 4.74,-19.52 4.74,-30.12 0,-11.74 -4.36,-22.36 -13.27,-31.64 -8.9,-9.28 -19.89,-17.43 -32.78,-24.63 -12.88,-7.21 -26.33,-13.45 -40.35,-18.57 -14.02,-5.12 -26.15,-9.29 -36.38,-12.7 -45.47,-15.91 -85.26,-33.16 -119.37,-51.54 -34.11,-18.37 -62.53,-38.84 -85.27,-61.39 -22.73,-22.55 -39.79,-47.37 -51.16,-74.47 -11.37,-27.09 -17.06,-57.22 -17.06,-90.57 0,-35.24 7.21,-67.26 21.41,-96.06 14.22,-28.79 34.49,-53.43 61.02,-73.89 26.34,-20.47 58.16,-36.38 95.3,-47.56 37.33,-11.18 78.82,-16.67 124.68,-16.67 34.48,0 67.64,3.79 99.28,11.56 31.64,7.77 62.71,20.27 93.41,37.32 12.88,7.58 25.2,15.35 36.76,23.49 11.56,8.15 21.61,16.11 30.32,23.69 8.72,7.58 15.73,14.78 20.84,21.61 5.12,6.82 7.58,12.69 7.58,17.62 0,4.92 -1.14,9.47 -3.6,13.64 -2.46,4.17 -6.25,8.91 -11.18,14.21l-86.98 92.66c-6.44,6.44 -12.88,9.66 -19.32,9.66 -5.31,0 -10.05,-1.52 -14.41,-4.56 -4.36,-3.03 -9.28,-6.82 -14.59,-11.36l-5.11 -4.55c-7.58,-6.44 -15.92,-13.07 -25.21,-19.9 -9.28,-6.82 -19.33,-13.07 -29.93,-18.57 -10.61,-5.49 -21.79,-10.04 -33.54,-13.64 -11.75,-3.6 -23.69,-5.3 -35.81,-5.3 -12.51,0 -24.26,1.13 -35.24,3.22 -10.99,2.08 -20.65,5.31 -28.99,9.85 -8.34,4.55 -14.97,10.62 -19.9,18 -4.93,7.39 -7.39,16.29 -7.39,26.91 0,10.8 2.65,19.9 7.96,27.67 5.31,7.76 13.26,14.96 23.87,21.59 10.61,6.63 23.88,13.08 39.6,18.94 15.73,5.88 33.91,12.13 54.76,18.95 40.17,13.26 77.31,27.28 111.23,41.88 33.91,14.59 63.1,31.83 87.72,51.92 24.63,19.9 43.96,43.58 57.79,71.43 13.84,27.67 20.65,61.2 20.65,100.8 0,41.69 -8.52,79.58 -25.57,113.5 -17.24,33.92 -40.55,62.91 -70.49,86.78 -29.75,24.06 -64.79,42.44 -104.97,55.51 -40.36,13.08 -83.56,19.71 -129.79,19.71 -43.58,0 -86.4,-7.77 -128.47,-23.5 -42.06,-15.54 -81.28,-36.56 -117.66,-62.9 -15.16,-10.99 -27.85,-21.79 -38.28,-32.59 -10.42,-10.61 -18.76,-19.14 -24.82,-25.57l-1.71 -1.89c-0.38,-0.77 -0.76,-1.14 -1.14,-1.34 -0.37,-0.19 -0.76,-0.56 -1.13,-0.94 -0.38,-0.76 -0.76,-1.14 -1.14,-1.32 -0.38,-0.19 -0.76,-0.57 -1.13,-0.95 -8.72,-9.47 -13.08,-17.05 -13.08,-22.73 0,-6.63 4.36,-13.83 13.08,-21.79l98.34 -93.79c7.96,-5.69 14.4,-8.52 19.33,-8.52 3.41,0 7.01,1.13 10.8,3.4 3.79,2.28 8.34,5.68 13.64,10.23z"/>
  </g>
 </g>
</svg>
